
<!-- Generator: visioncortex VTracer 0.6.4 -->
<svg version="1.1" xmlns="http://www.w3.org/2000/svg" viewBox="0 0 1024 1024" preserveAspectRatio="xMidYMid meet">
<path d="M0 0 C337.92 0 675.84 0 1024 0 C1024 337.92 1024 675.84 1024 1024 C686.08 1024 348.16 1024 0 1024 C0 686.08 0 348.16 0 0 Z " fill="#FEFEFE" transform="translate(0,0)"/>
<path d="M0 0 C3.553 3.098 6.96 6.332 10.352 9.604 C11.203 10.392 12.054 11.18 12.93 11.991 C24.573 23.067 33.001 36.421 40.352 50.604 C40.831 51.516 40.831 51.516 41.32 52.446 C45.195 59.908 48.145 67.502 50.602 75.542 C50.836 76.304 51.07 77.065 51.312 77.85 C55.54 92.409 56.902 106.276 56.79 121.354 C56.786 122.236 56.783 123.118 56.779 124.027 C56.708 136.943 56.169 149.181 52.352 161.604 C52.105 162.454 51.859 163.304 51.604 164.179 C41.782 197.649 21.417 227.217 -6.023 248.917 C-6.979 249.676 -7.936 250.436 -8.921 251.218 C-11.648 252.604 -11.648 252.604 -13.91 252.155 C-14.813 251.644 -15.717 251.132 -16.648 250.604 C-18.084 249.83 -19.52 249.057 -20.957 248.284 C-21.774 247.835 -22.592 247.386 -23.435 246.923 C-41.999 236.811 -60.957 230.673 -81.648 226.604 C-82.478 226.441 -83.308 226.277 -84.164 226.108 C-88.651 225.233 -93.145 224.398 -97.648 223.604 C-97.897 213.093 -97.483 202.994 -95.648 192.604 C-95.519 191.874 -95.39 191.143 -95.257 190.39 C-93.21 179.146 -90.392 168.309 -86.355 157.611 C-85.528 155.362 -85.528 155.362 -84.738 151.987 C-83.513 148.179 -82.636 146.306 -79.648 143.604 C-73.177 141.08 -66.192 140.227 -59.372 139.108 C-39.814 135.493 -22.984 121.802 -11.703 105.913 C-7.68 99.436 -4.538 92.65 -1.648 85.604 C-1.228 84.589 -1.228 84.589 -0.8 83.553 C4.965 69.161 7.02 53.843 9.352 38.604 C-24.316 39.4 -55.603 42.78 -80.335 68.229 C-92.766 82.579 -96.868 99.393 -96.71 118.042 C-96.704 119.569 -96.704 119.569 -96.697 121.126 C-96.685 123.619 -96.669 126.112 -96.648 128.604 C-96.247 127.805 -95.846 127.006 -95.433 126.183 C-84.627 105.305 -69.245 89.385 -48.648 78.104 C-47.658 77.559 -47.658 77.559 -46.648 77.003 C-45.014 76.139 -43.334 75.363 -41.648 74.604 C-40.988 74.934 -40.328 75.264 -39.648 75.604 C-40.899 76.622 -40.899 76.622 -42.175 77.659 C-70.8 101.205 -90.008 135.842 -101.648 170.604 C-102.05 171.805 -102.452 173.005 -102.867 174.241 C-103.125 175.021 -103.382 175.801 -103.648 176.604 C-105.973 174.5 -107.198 172.748 -108.304 169.823 C-108.599 169.073 -108.893 168.323 -109.196 167.551 C-109.51 166.744 -109.824 165.936 -110.148 165.104 C-118.674 144.089 -131.85 125.438 -145.352 107.351 C-146.566 105.715 -147.762 104.067 -148.957 102.417 C-153.69 95.937 -158.766 90.026 -164.265 84.198 C-166.219 82.072 -167.975 79.953 -169.648 77.604 C-150.251 83.192 -133.296 103.549 -122.648 119.604 C-122.212 120.252 -121.777 120.899 -121.328 121.565 C-120.427 122.907 -119.536 124.255 -118.648 125.604 C-117.644 108.727 -120.727 92.282 -132.023 79.292 C-142.554 68.304 -153.227 61.602 -167.648 56.604 C-168.504 56.305 -169.36 56.006 -170.242 55.698 C-182.378 51.758 -195 51.18 -207.648 50.604 C-202.294 74.403 -197.193 95.93 -180.648 114.604 C-180.072 115.264 -179.496 115.924 -178.902 116.604 C-168.863 127.389 -154.167 134.112 -140.079 137.693 C-133.76 139.434 -131.873 142.474 -128.718 147.96 C-117.922 168.793 -111.302 192.52 -111.585 216.104 C-111.59 216.832 -111.594 217.559 -111.599 218.308 C-111.611 220.073 -111.629 221.839 -111.648 223.604 C-112.275 223.649 -112.903 223.694 -113.55 223.74 C-140.818 225.735 -167.72 229.23 -192.359 242.011 C-193.135 242.413 -193.911 242.815 -194.71 243.229 C-195.341 243.593 -195.971 243.957 -196.621 244.331 C-199.384 244.704 -200.789 243.614 -202.968 242.004 C-206.29 239.237 -209.355 236.235 -212.398 233.167 C-213.103 232.456 -213.808 231.745 -214.535 231.013 C-240.174 204.781 -257.489 167.418 -257.886 130.433 C-257.896 129.676 -257.906 128.92 -257.916 128.141 C-258.079 112.202 -258.047 97.049 -253.648 81.604 C-253.268 80.136 -252.891 78.667 -252.515 77.198 C-245.681 51.443 -231.835 29.857 -213.648 10.604 C-212.953 9.857 -212.258 9.109 -211.542 8.339 C-156.192 -49.33 -59.988 -50.799 0 0 Z " fill="#338B45" transform="translate(332.64794921875,364.3955078125)"/>
<path d="M0 0 C10.697 9.398 18.729 21.459 21.832 35.488 C15.095 38.568 8.105 40.841 1.082 43.176 C-0.765 43.799 -0.765 43.799 -2.648 44.436 C-3.825 44.828 -5.002 45.221 -6.215 45.625 C-7.286 45.983 -8.357 46.341 -9.46 46.71 C-12.168 47.488 -12.168 47.488 -15.168 47.488 C-15.52 46.787 -15.872 46.086 -16.234 45.363 C-22.701 32.937 -30.815 23.819 -44.355 19.113 C-48.632 17.842 -52.704 16.807 -57.168 16.488 C-58.025 16.425 -58.882 16.362 -59.766 16.297 C-72.919 15.76 -86.194 19.929 -96.414 28.336 C-107.758 39.122 -114.803 54.324 -115.469 70.031 C-115.702 88.269 -112.237 105.175 -100.355 119.551 C-89.668 130.489 -76.056 135.307 -61.043 135.738 C-46.251 135.552 -33.292 130.83 -22.605 120.426 C-19.372 116.982 -16.534 113.576 -14.168 109.488 C-6.457 110.14 0.875 111.757 8.395 113.551 C9.594 113.832 10.793 114.114 12.029 114.404 C14.965 115.094 17.899 115.789 20.832 116.488 C21.913 119.795 21.882 120.367 20.461 123.809 C19.788 125.085 19.098 126.353 18.395 127.613 C18.029 128.28 17.664 128.946 17.287 129.633 C14.03 135.42 10.278 140.55 5.832 145.488 C5.242 146.171 4.651 146.855 4.043 147.559 C-9.23 161.962 -30.948 171.671 -50.365 172.649 C-80.922 173.024 -80.922 173.024 -92.168 169.488 C-92.819 169.284 -93.469 169.08 -94.14 168.87 C-108.007 164.404 -118.611 157.573 -129.168 147.488 C-129.783 146.948 -130.398 146.408 -131.031 145.852 C-144.194 133.839 -152.215 114.728 -155.168 97.488 C-155.351 96.487 -155.534 95.485 -155.723 94.453 C-159.046 64.865 -154.767 36.053 -136.168 12.176 C-134.851 10.6 -133.518 9.036 -132.168 7.488 C-131.373 6.568 -131.373 6.568 -130.562 5.629 C-97.666 -29.786 -36.093 -29.946 0 0 Z " fill="#094A21" transform="translate(923.16796875,387.51171875)"/>
<path d="M0 0 C10.095 8.563 16.997 19.473 19.805 32.52 C21.498 55.088 17 72.532 1.996 90.023 C1.273 90.847 0.55 91.671 -0.195 92.52 C-0.805 93.25 -1.415 93.981 -2.043 94.734 C-4.73 97.923 -7.462 100.825 -10.66 103.504 C-16.471 108.533 -21.8 114.054 -27.195 119.52 C-39.48 131.964 -39.48 131.964 -45.672 137.215 C-46.895 138.262 -48.057 139.381 -49.195 140.52 C-14.545 141.015 -14.545 141.015 20.805 141.52 C20.805 153.4 20.805 165.28 20.805 177.52 C-22.095 177.52 -64.995 177.52 -109.195 177.52 C-109.195 145.52 -109.195 145.52 -103.633 138.457 C-101.527 137.082 -99.383 135.761 -97.195 134.52 C-95.135 132.668 -95.135 132.668 -93.445 130.77 C-91.209 128.474 -88.885 126.341 -86.457 124.25 C-82.471 120.782 -78.6 117.208 -74.758 113.582 C-74.08 112.944 -73.402 112.306 -72.703 111.648 C-71.269 110.298 -69.835 108.948 -68.402 107.597 C-66.17 105.496 -63.933 103.4 -61.695 101.305 C-54.997 95.028 -48.342 88.742 -41.906 82.195 C-40.195 80.52 -40.195 80.52 -37.57 78.457 C-28.897 71.382 -20.139 60.136 -18.895 48.773 C-18.861 41.005 -20.168 34.846 -25.578 28.875 C-31.877 23.596 -39.7 22.756 -47.656 23.008 C-55.766 24.18 -63.07 28.064 -68.023 34.664 C-71.225 39.733 -73.352 44.819 -75.195 50.52 C-87.879 48.975 -100.538 47.266 -113.195 45.52 C-111.819 29.461 -104.987 15.108 -93.125 4.066 C-68.114 -15.983 -26.239 -21.03 0 0 Z " fill="#094A21" transform="translate(719.1953125,379.48046875)"/>
<path d="M0 0 C43.23 0 86.46 0 131 0 C131 11.88 131 23.76 131 36 C101.3 36 71.6 36 41 36 C41 49.53 41 63.06 41 77 C66.41 77 91.82 77 118 77 C118 89.21 118 101.42 118 114 C92.59 114 67.18 114 41 114 C41 137.43 41 160.86 41 185 C27.47 185 13.94 185 0 185 C0 123.95 0 62.9 0 0 Z " fill="#094921" transform="translate(455,372)"/>
<path d="M0 0 C0.745 0.684 1.49 1.369 2.258 2.074 C3.499 3.178 3.499 3.178 4.766 4.305 C19.1 17.74 27.697 35.667 30.258 55.074 C30.299 57.074 30.313 59.075 30.258 61.074 C29.701 60.352 29.144 59.63 28.57 58.887 C8.3 34.233 -28.701 31.239 -58.086 25.356 C-86.197 19.727 -113.501 13.997 -139.742 2.074 C-140.423 1.772 -141.104 1.469 -141.805 1.157 C-151.3 -3.101 -159.48 -8.686 -167.742 -14.926 C-166.742 -16.926 -166.742 -16.926 -163.848 -18.074 C-162.545 -18.495 -161.239 -18.903 -159.93 -19.301 C-159.22 -19.518 -158.51 -19.735 -157.778 -19.958 C-109.364 -34.249 -40.488 -34.929 0 0 Z " fill="#094A21" transform="translate(310.7421875,630.92578125)"/>
<path d="M0 0 C6.818 4.752 12.413 10.605 14 19 C14.734 28.501 15.082 37.094 9 45 C1.941 52.824 -4.31 56.024 -14.75 56.562 C-23.045 56.367 -29.557 53.682 -35.938 48.395 C-41.733 42.295 -44.207 34.795 -44.5 26.5 C-44.202 18.05 -41.638 10.788 -35.844 4.535 C-25.743 -3.875 -11.864 -5.659 0 0 Z " fill="#0B441F" transform="translate(550,598)"/>
<path d="M0 0 C8.15 5.982 12.884 12.107 15 22 C15.419 30.377 14.271 38.169 9 45 C1.898 52.564 -4.015 56.037 -14.375 56.438 C-22.583 56.238 -30.089 53.911 -36 48 C-41.847 41.451 -44.716 33.141 -44.344 24.352 C-43.094 15.801 -39.565 8.654 -33 3 C-23.461 -3.461 -10.434 -6.394 0 0 Z " fill="#0B451F" transform="translate(810,598)"/>
<path d="M0 0 C12 0 12 0 15.559 3.086 C16.559 4.488 17.517 5.92 18.438 7.375 C18.96 8.127 19.483 8.879 20.022 9.654 C21.131 11.252 22.224 12.86 23.302 14.479 C25.578 17.858 27.979 21.139 30.388 24.425 C32.948 27.933 35.47 31.469 38 35 C38.33 23.45 38.66 11.9 39 0 C42.63 0 46.26 0 50 0 C50 18.81 50 37.62 50 57 C40 57 40 57 37.73 55.445 C37.221 54.68 36.712 53.914 36.188 53.125 C35.553 52.22 34.919 51.315 34.266 50.383 C33.917 49.857 33.568 49.332 33.209 48.79 C31.808 46.715 30.339 44.699 28.859 42.68 C23.134 34.859 17.559 26.941 12 19 C11.67 31.54 11.34 44.08 11 57 C7.37 57 3.74 57 0 57 C0 38.19 0 19.38 0 0 Z " fill="#0A421E" transform="translate(838,596)"/>
<path d="M0 0 C3.63 0 7.26 0 11 0 C11.015 1.054 11.029 2.108 11.044 3.194 C11.102 7.128 11.18 11.062 11.262 14.996 C11.296 16.694 11.324 18.393 11.346 20.091 C11.38 22.542 11.433 24.991 11.488 27.441 C11.495 28.193 11.501 28.944 11.508 29.718 C11.667 35.519 12.792 40.367 16.625 44.938 C20.378 46.617 23.961 46.534 28 46 C30.804 44.807 32.346 43.92 34.103 41.448 C35.474 37.707 35.359 34.034 35.414 30.078 C35.433 29.218 35.453 28.358 35.473 27.472 C35.532 24.732 35.579 21.991 35.625 19.25 C35.663 17.389 35.702 15.529 35.742 13.668 C35.838 9.112 35.922 4.556 36 0 C39.96 0 43.92 0 48 0 C48.1 5.371 48.172 10.742 48.22 16.113 C48.24 17.937 48.267 19.76 48.302 21.583 C48.704 43.165 48.704 43.165 42.035 51.438 C41.384 51.953 40.733 52.469 40.062 53 C39.414 53.536 38.766 54.072 38.098 54.625 C31.279 59.094 23.846 58.667 16 58 C10.06 56.419 6.427 53.092 3 48 C0.274 41.925 -0.416 37.081 -0.293 30.469 C-0.289 29.592 -0.284 28.716 -0.28 27.813 C-0.263 25.041 -0.226 22.271 -0.188 19.5 C-0.172 17.609 -0.159 15.719 -0.146 13.828 C-0.114 9.218 -0.062 4.609 0 0 Z " fill="#0B441F" transform="translate(625,596)"/>
<path d="M0 0 C2.103 1.193 3.547 2.283 5.059 4.168 C4.861 8.019 3.526 10.271 1.059 13.168 C-1.545 12.667 -3.257 11.98 -5.566 10.605 C-10.003 8.716 -14.168 8.507 -18.941 9.168 C-21.229 11.007 -21.229 11.007 -21.066 13.793 C-21.005 14.969 -21.005 14.969 -20.941 16.168 C-16.142 18.709 -11.453 20.704 -6.316 22.48 C-0.672 24.596 3.012 26.899 6.059 32.168 C7.719 37.149 7.658 41.471 5.934 46.355 C2.324 51.77 -1.752 54.456 -7.941 56.168 C-16.76 57.13 -25.512 56.504 -32.668 50.789 C-34.066 49.418 -34.066 49.418 -35.941 47.168 C-34.499 43.802 -32.609 41.657 -29.941 39.168 C-27.273 40.159 -25.089 41.055 -22.816 42.793 C-18.388 44.911 -13.773 44.744 -8.941 44.168 C-5.741 42.527 -5.741 42.527 -5.379 39.793 C-5.718 36.973 -5.718 36.973 -8.191 35.105 C-12.199 32.729 -16.678 31.569 -21.094 30.168 C-26.208 28.372 -30.05 25.885 -32.941 21.168 C-34.602 16.187 -34.54 11.865 -32.816 6.98 C-24.974 -4.783 -12.05 -5.164 0 0 Z " fill="#0B4520" transform="translate(936.94140625,597.83203125)"/>
<path d="M0 0 C2.92 1.597 5.186 3.235 7.438 5.688 C6.066 8.642 4.449 11.128 2.438 13.688 C-2.562 11.688 -2.562 11.688 -4.75 10.562 C-8.933 9.261 -13.215 9.164 -17.562 9.688 C-19.85 11.526 -19.85 11.526 -19.688 14.312 C-19.626 15.488 -19.626 15.488 -19.562 16.688 C-14.916 19.189 -10.489 21.082 -5.438 22.625 C0.165 24.429 4.364 26.325 7.562 31.512 C9.466 36.246 9.267 41.975 7.785 46.82 C5.353 51.642 2.144 53.502 -2.562 55.688 C-10.524 58.191 -20.16 57.544 -27.562 53.688 C-30.079 51.856 -32.356 49.88 -34.562 47.688 C-30.812 41.938 -30.812 41.938 -28.562 39.688 C-26.042 39.94 -24.701 40.581 -22.688 42.125 C-18.783 44.996 -15.156 45.93 -10.375 45.5 C-6.725 44.94 -6.725 44.94 -4.5 43.438 C-3.403 41.657 -3.403 41.657 -3.312 39.25 C-5.701 34.353 -11.542 33.39 -16.43 31.691 C-27.623 27.793 -27.623 27.793 -30.66 22.93 C-32.485 18.395 -32.07 13.476 -31.562 8.688 C-29.114 3.203 -25.766 1.242 -20.562 -1.312 C-13.66 -3.613 -6.519 -3.193 0 0 Z " fill="#0C4520" transform="translate(486.5625,597.3125)"/>
<path d="M0 0 C4.107 2.729 7.337 6.687 8.801 11.422 C9.983 17.584 9.478 22.162 6.465 27.609 C3.797 31.428 0.645 33.952 -3.812 35.438 C-9.787 36.04 -14.516 35.493 -19.812 32.438 C-23.933 28.627 -25.536 25.2 -26.086 19.703 C-26.292 13.58 -26.088 9.072 -22.352 4.062 C-16.41 -2.21 -7.911 -3.981 0 0 Z " fill="#FBFDFB" transform="translate(543.8125,607.5625)"/>
<path d="M0 0 C4.806 2.559 7.648 5.844 10.25 10.527 C12.018 17.011 11.578 22.6 8.277 28.484 C5.581 32.269 2.449 34.794 -2 36.277 C-6.969 36.799 -10.855 36.85 -15.375 34.59 C-20.009 30.508 -23.463 26.518 -24.258 20.242 C-24.557 14.424 -23.352 10.061 -20 5.277 C-14.263 -0.173 -7.762 -2.805 0 0 Z " fill="#FCFDFC" transform="translate(802,606.72265625)"/>
<path d="M0 0 C15.18 0 30.36 0 46 0 C46 3.63 46 7.26 46 11 C40.39 11 34.78 11 29 11 C29 26.18 29 41.36 29 57 C25.37 57 21.74 57 18 57 C18 41.82 18 26.64 18 11 C12.06 11 6.12 11 0 11 C0 7.37 0 3.74 0 0 Z " fill="#083F1B" transform="translate(683,596)"/>
<path d="M0 0 C3.96 0 7.92 0 12 0 C12 15.18 12 30.36 12 46 C20.58 46 29.16 46 38 46 C38 49.63 38 53.26 38 57 C25.46 57 12.92 57 0 57 C0 38.19 0 19.38 0 0 Z " fill="#114724" transform="translate(577,596)"/>
<path d="M0 0 C3.63 0 7.26 0 11 0 C11 18.81 11 37.62 11 57 C7.37 57 3.74 57 0 57 C0 38.19 0 19.38 0 0 Z " fill="#0B421E" transform="translate(741,596)"/>
<path d="M0 0 C25.41 0 50.82 0 77 0 C77 12.21 77 24.42 77 37 C51.59 37 26.18 37 0 37 C0 36.01 0 35.02 0 34 C24.42 34 48.84 34 74 34 C74 24.76 74 15.52 74 6 C74.33 6 74.66 6 75 6 C75.33 4.35 75.66 2.7 76 1 C50.92 1 25.84 1 0 1 C0 0.67 0 0.34 0 0 Z " fill="#4C7357" transform="translate(496,449)"/>
<path d="M0 0 C3.96 0 7.92 0 12 0 C12.025 5.481 12.043 10.962 12.055 16.443 C12.06 18.307 12.067 20.171 12.075 22.036 C12.088 24.716 12.093 27.397 12.098 30.078 C12.103 30.911 12.108 31.743 12.113 32.601 C12.113 33.381 12.113 34.162 12.114 34.966 C12.116 35.65 12.118 36.334 12.12 37.038 C11.988 39.191 11.761 40.976 11 43 C9.515 43.495 9.515 43.495 8 44 C8 30.8 8 17.6 8 4 C6.35 3.67 4.7 3.34 3 3 C3 14.22 3 25.44 3 37 C2.01 36.67 1.02 36.34 0 36 C0 24.12 0 12.24 0 0 Z M7 44 C7.33 44.99 7.66 45.98 8 47 C6.515 47.99 6.515 47.99 5 49 C5.66 47.35 6.32 45.7 7 44 Z " fill="#214E2F" transform="translate(661,596)"/>
<path d="M0 0 C1 3 1 3 0.094 4.918 C-4.112 10.908 -8.832 16.268 -13.812 21.625 C-14.483 22.348 -15.153 23.072 -15.844 23.817 C-16.479 24.488 -17.115 25.16 -17.77 25.852 C-18.343 26.458 -18.916 27.065 -19.507 27.69 C-21 29 -21 29 -23 29 C-23 29.66 -23 30.32 -23 31 C-24.434 32.41 -24.434 32.41 -26.438 34.062 C-29.608 36.752 -32.586 39.535 -35.5 42.5 C-38.958 46.006 -42.526 49.3 -46.273 52.492 C-47.923 53.933 -49.471 55.433 -51 57 C-51.66 56.67 -52.32 56.34 -53 56 C-40.336 43.162 -40.336 43.162 -34.102 37.883 C-30.688 34.825 -27.499 31.54 -24.299 28.261 C-21.352 25.264 -18.292 22.606 -15 20 C-9.011 14.078 -4.528 7.057 0 0 Z M-55 58 C-55 58.99 -55 59.98 -55 61 C-58 63.188 -58 63.188 -61 65 C-59.607 61.633 -58.021 60.014 -55 58 Z M-63 65 C-62.34 65.33 -61.68 65.66 -61 66 C-65.191 70.309 -69.513 74.366 -74.066 78.289 C-76.838 80.742 -79.416 83.351 -82 86 C-82.66 85.67 -83.32 85.34 -84 85 C-81.817 82.787 -79.628 80.581 -77.438 78.375 C-76.828 77.758 -76.219 77.14 -75.592 76.504 C-71.557 72.448 -67.388 68.671 -63 65 Z M-87 87 C-86.34 87 -85.68 87 -85 87 C-85 87.66 -85 88.32 -85 89 C-85.66 89 -86.32 89 -87 89 C-87.33 89.99 -87.66 90.98 -88 92 C-88 88 -88 88 -87 87 Z " fill="#112F18" transform="translate(699,436)"/>
<path d="M0 0 C0.66 0 1.32 0 2 0 C1.99 1.262 1.979 2.524 1.968 3.824 C1.932 8.494 1.909 13.164 1.89 17.834 C1.88 19.858 1.866 21.881 1.849 23.905 C1.825 26.809 1.814 29.713 1.805 32.617 C1.794 33.526 1.784 34.434 1.773 35.37 C1.773 36.211 1.773 37.051 1.773 37.917 C1.769 38.659 1.764 39.401 1.759 40.165 C1.843 42.249 1.843 42.249 4 44 C4.99 44 5.98 44 7 44 C7 29.81 7 15.62 7 1 C7.66 0.67 8.32 0.34 9 0 C9 15.18 9 30.36 9 46 C6.03 46 3.06 46 0 46 C0 30.82 0 15.64 0 0 Z " fill="#174F2B" transform="translate(702,606)"/>
<path d="M0 0 C6.646 0.928 11.352 7.553 15.243 12.618 C25.178 26.438 32.475 42.698 32 60 C29.591 57.11 27.549 54.431 26 51 C25.629 50.258 25.257 49.515 24.875 48.75 C24.586 48.173 24.298 47.595 24 47 C25.485 47.495 25.485 47.495 27 48 C26.886 46.353 26.759 44.708 26.625 43.062 C26.555 42.146 26.486 41.229 26.414 40.285 C26.277 39.531 26.141 38.777 26 38 C25.34 37.67 24.68 37.34 24 37 C23.578 35.285 23.578 35.285 23.25 33.062 C20.738 20.851 10.87 9.961 1.469 2.277 C0.984 1.856 0.499 1.434 0 1 C0 0.67 0 0.34 0 0 Z " fill="#0F3219" transform="translate(309,632)"/>
<path d="M0 0 C0.66 0 1.32 0 2 0 C2.33 1.65 2.66 3.3 3 5 C1.5 3.625 1.5 3.625 0 2 C0 1.34 0 0.68 0 0 Z M4 6 C6 7 6 7 7.125 9.875 C8.453 14.843 8.166 19.9 8 25 C7.67 25 7.34 25 7 25 C6.951 24.383 6.902 23.765 6.852 23.129 C6.334 17.265 5.384 11.721 4 6 Z M6 25 C6.625 26.812 6.625 26.812 7 29 C6.34 29.99 5.68 30.98 5 32 C5.33 29.69 5.66 27.38 6 25 Z M3 34 C3 34.99 3 35.98 3 37 C1.515 37.99 1.515 37.99 0 39 C1.875 35.125 1.875 35.125 3 34 Z M-2 39 C-1.34 39.33 -0.68 39.66 0 40 C-1.026 42.704 -1.973 43.978 -4.25 45.812 C-7.619 47.267 -9.498 46.896 -13 46 C-10.13 43.662 -7.426 42.352 -4 41 C-3.34 40.34 -2.68 39.68 -2 39 Z M-32 43 C-26.555 44.485 -26.555 44.485 -21 46 C-21 46.66 -21 47.32 -21 48 C-23.97 48 -26.94 48 -30 48 C-30 47.34 -30 46.68 -30 46 C-30.99 45.67 -31.98 45.34 -33 45 C-32.67 44.34 -32.34 43.68 -32 43 Z M-20 46 C-19.01 46.33 -18.02 46.66 -17 47 C-17.99 47.33 -18.98 47.66 -20 48 C-20 47.34 -20 46.68 -20 46 Z M-17 46 C-15.68 46.33 -14.36 46.66 -13 47 C-13.99 47.33 -14.98 47.66 -16 48 C-16.33 47.34 -16.66 46.68 -17 46 Z M-27 48 C-25 49 -25 49 -25 49 Z M-15 48 C-13 49 -13 49 -13 49 Z " fill="#1B522D" transform="translate(555,605)"/>
<path d="M0 0 C2.97 0 5.94 0 9 0 C9 13.86 9 27.72 9 42 C8.67 42 8.34 42 8 42 C6.937 34.212 6.851 26.541 6.875 18.688 C6.871 17.426 6.867 16.165 6.863 14.865 C6.865 13.655 6.866 12.446 6.867 11.199 C6.868 10.104 6.869 9.01 6.871 7.882 C6.982 5.407 7.281 3.358 8 1 C6.35 1.33 4.7 1.66 3 2 C2.67 12.89 2.34 23.78 2 35 C0.515 35.495 0.515 35.495 -1 36 C-0.67 24.12 -0.34 12.24 0 0 Z " fill="#16502A" transform="translate(878,598)"/>
<path d="M0 0 C0.33 0 0.66 0 1 0 C1 3.96 1 7.92 1 12 C0.67 12 0.34 12 0 12 C0.005 12.609 0.01 13.218 0.016 13.845 C0.183 36.172 0.183 36.172 -1 45 C-1.33 45 -1.66 45 -2 45 C-2 31.47 -2 17.94 -2 4 C-3.65 4 -5.3 4 -7 4 C-6.988 4.928 -6.977 5.856 -6.965 6.812 C-6.84 22.551 -7.456 38.274 -8 54 C-8.33 54 -8.66 54 -9 54 C-9 36.84 -9 19.68 -9 2 C-6.03 2 -3.06 2 0 2 C0 1.34 0 0.68 0 0 Z " fill="#18502B" transform="translate(588,596)"/>
<path d="M0 0 C0.66 0.33 1.32 0.66 2 1 C-2.144 6.953 -6.23 12.61 -11.555 17.562 C-13.238 19.141 -13.238 19.141 -15 22 C-15.66 22 -16.32 22 -17 22 C-15.589 18.747 -13.907 16.77 -11.312 14.375 C-6.833 10.034 -3.411 5.202 0 0 Z M-19 23 C-18.67 23.66 -18.34 24.32 -18 25 C-18.66 24.67 -19.32 24.34 -20 24 C-19.67 23.67 -19.34 23.34 -19 23 Z M-24 27 C-23.34 27.33 -22.68 27.66 -22 28 C-27.94 33.94 -33.88 39.88 -40 46 C-40.66 45.67 -41.32 45.34 -42 45 C-36.06 39.06 -30.12 33.12 -24 27 Z M-43 46 C-43 49 -43 49 -44.875 51.188 C-47 53 -47 53 -49 53 C-47.771 49.312 -46.061 48.276 -43 46 Z M-53 55 C-52.34 55.33 -51.68 55.66 -51 56 C-52.98 57.98 -54.96 59.96 -57 62 C-57.66 61.67 -58.32 61.34 -59 61 C-57.02 59.02 -55.04 57.04 -53 55 Z " fill="#0E2A15" transform="translate(727,458)"/>
<path d="M0 0 C1.958 -0.054 3.916 -0.093 5.875 -0.125 C7.511 -0.16 7.511 -0.16 9.18 -0.195 C12 0 12 0 14 2 C15.65 2.707 17.316 3.379 19 4 C15.613 5.129 14.409 4.737 11 4 C9.169 3.887 7.334 3.825 5.5 3.812 C4.582 3.798 3.664 3.784 2.719 3.77 C-0.205 4.017 -2.313 4.867 -5 6 C-5.99 6 -6.98 6 -8 6 C-5.647 3.276 -3.375 2.186 0 1 C0 0.67 0 0.34 0 0 Z M19 5 C20.485 5.99 20.485 5.99 22 7 C21.01 7.99 20.02 8.98 19 10 C19 8.35 19 6.7 19 5 Z M-9 7 C-8.34 7.66 -7.68 8.32 -7 9 C-7.99 9.33 -8.98 9.66 -10 10 C-9.67 9.01 -9.34 8.02 -9 7 Z M22 7 C22.66 7.66 23.32 8.32 24 9 C23.01 9.99 22.02 10.98 21 12 C21 9 21 9 22 7 Z M13 10 C16 11 16 11 16 11 Z M16 11 C18 12 18 12 18 12 Z M18 12 C18.99 12.33 19.98 12.66 21 13 C20.01 13 19.02 13 18 13 C18 12.67 18 12.34 18 12 Z M-14 13 C-13.01 13 -12.02 13 -11 13 C-11 13.99 -11 14.98 -11 16 C-11.99 15.67 -12.98 15.34 -14 15 C-14 14.34 -14 13.68 -14 13 Z " fill="#174928" transform="translate(917,595)"/>
<path d="M0 0 C8.869 0.439 17.116 2.319 25.688 4.562 C26.986 4.896 28.285 5.229 29.584 5.561 C32.725 6.366 35.863 7.179 39 8 C39 8.33 39 8.66 39 9 C31.047 8.301 23.363 6.738 15.562 5.062 C14.284 4.798 13.006 4.533 11.689 4.26 C10.473 4 9.257 3.74 8.004 3.473 C6.346 3.121 6.346 3.121 4.655 2.762 C2 2 2 2 0 0 Z M0 2 C2 3 2 3 2 3 Z M5 3 C7 4 7 4 7 4 Z M10 4 C12 5 12 5 12 5 Z M15 5 C17 6 17 6 17 6 Z M19 6 C21 7 21 7 21 7 Z M28 8 C30 9 30 9 30 9 Z M32 9 C34 10 34 10 34 10 Z M39 9 C43.265 8.688 45.986 9.656 49.812 11.5 C51.276 12.196 51.276 12.196 52.77 12.906 C53.506 13.267 54.242 13.628 55 14 C53.02 14.99 53.02 14.99 51 16 C50.67 15.34 50.34 14.68 50 14 C48.175 13.22 46.314 12.522 44.438 11.875 C43.426 11.522 42.414 11.169 41.371 10.805 C40.197 10.406 40.197 10.406 39 10 C39 9.67 39 9.34 39 9 Z " fill="#1F4F2F" transform="translate(261,655)"/>
<path d="M0 0 C1.65 0 3.3 0 5 0 C5 0.33 5 0.66 5 1 C16.55 1.33 28.1 1.66 40 2 C40 2.33 40 2.66 40 3 C28.12 3 16.24 3 4 3 C4.33 4.65 4.66 6.3 5 8 C5.699 7.977 6.397 7.954 7.117 7.93 C8.027 7.912 8.937 7.894 9.875 7.875 C11.232 7.84 11.232 7.84 12.617 7.805 C15 8 15 8 17 10 C8.585 10.495 8.585 10.495 0 11 C0 7.37 0 3.74 0 0 Z " fill="#224F30" transform="translate(683,596)"/>
<path d="M0 0 C0.99 0.33 1.98 0.66 3 1 C1.515 1.99 1.515 1.99 0 3 C-0.66 2.67 -1.32 2.34 -2 2 C-1.34 1.34 -0.68 0.68 0 0 Z M3 2 C4.98 2.66 6.96 3.32 9 4 C8.34 4.66 7.68 5.32 7 6 C5.68 4.68 4.36 3.36 3 2 Z M-3 3 C-2.484 3.763 -1.969 4.526 -1.438 5.312 C1.558 8.616 3.857 9.486 8 11 C6.438 11.75 6.438 11.75 4 12 C1.453 10.977 -0.863 9.727 -3 8 C-3.33 7.01 -3.66 6.02 -4 5 C-3.67 4.34 -3.34 3.68 -3 3 Z M23 4 C23 4.66 23 5.32 23 6 C18.673 8.229 15.716 7.925 11 7 C13 4 13 4 14.875 3.453 C15.576 3.386 16.278 3.319 17 3.25 C17.701 3.173 18.403 3.095 19.125 3.016 C21 3 21 3 23 4 Z M9 5 C11 6 11 6 11 6 Z M8 12 C9.65 12 11.3 12 13 12 C13 12.66 13 13.32 13 14 C11.35 13.67 9.7 13.34 8 13 C8 12.67 8 12.34 8 12 Z M9 14 C11 15 11 15 11 15 Z " fill="#1A502C" transform="translate(907,639)"/>
<path d="M0 0 C1.606 0.452 3.21 0.912 4.812 1.375 C6.152 1.758 6.152 1.758 7.52 2.148 C10 3 10 3 13 5 C13 5.66 13 6.32 13 7 C9.483 6.347 6.107 5.486 2.688 4.438 C1.804 4.168 0.921 3.899 0.012 3.621 C-0.652 3.416 -1.316 3.211 -2 3 C-1.34 2.67 -0.68 2.34 0 2 C0 1.34 0 0.68 0 0 Z M13 7 C16.153 7.607 18.189 8.642 20.75 10.562 C21.67 11.245 21.67 11.245 22.609 11.941 C23.298 12.465 23.298 12.465 24 13 C23.67 13.66 23.34 14.32 23 15 C21.331 13.858 19.665 12.711 18 11.562 C17.072 10.924 16.144 10.286 15.188 9.629 C14.466 9.091 13.744 8.554 13 8 C13 7.67 13 7.34 13 7 Z M24 15 C27.399 16.133 28.053 17.125 30 20 C29.67 20.66 29.34 21.32 29 22 C24 16.125 24 16.125 24 15 Z M31 23 C31.99 23.495 31.99 23.495 33 24 C32.67 24.66 32.34 25.32 32 26 C31.67 25.01 31.34 24.02 31 23 Z M34 28 C34.66 28.66 35.32 29.32 36 30 C35.34 30 34.68 30 34 30 C34 29.34 34 28.68 34 28 Z " fill="#0F2E17" transform="translate(872,401)"/>
<path d="M0 0 C10.751 5.256 18.737 13.954 25 24 C24.67 24.66 24.34 25.32 24 26 C23.564 25.432 23.129 24.863 22.68 24.277 C20.8 21.841 18.901 19.42 17 17 C16.533 16.381 16.067 15.762 15.586 15.125 C11.798 10.34 7.229 7.115 2.195 3.699 C1.471 3.138 0.746 2.578 0 2 C0 1.34 0 0.68 0 0 Z M25 26 C27.329 28.118 28.888 30.033 30 33 C29.67 33.99 29.34 34.98 29 36 C28.328 34.711 27.663 33.419 27 32.125 C26.629 31.406 26.258 30.686 25.875 29.945 C25 28 25 28 25 26 Z M30 36 C32.36 38.36 32.491 39.779 33 43 C32.34 43 31.68 43 31 43 C30.67 40.69 30.34 38.38 30 36 Z " fill="#0C2A13" transform="translate(912,380)"/>
<path d="M0 0 C0.33 0 0.66 0 1 0 C0.973 6.059 0.103 10.153 -4.211 14.559 C-10.442 19.579 -17.307 19.382 -25 19 C-25 18.67 -25 18.34 -25 18 C-23.915 17.841 -22.829 17.683 -21.711 17.52 C-20.265 17.285 -18.82 17.049 -17.375 16.812 C-16.306 16.661 -16.306 16.661 -15.215 16.506 C-9.784 15.584 -6.827 14.011 -3 10 C-1.682 7.392 -1.682 7.392 -1.125 4.688 C-0.901 3.804 -0.676 2.921 -0.445 2.012 C-0.298 1.348 -0.151 0.684 0 0 Z M-41 7 C-40.34 7 -39.68 7 -39 7 C-39 8.65 -39 10.3 -39 12 C-39.99 11.34 -40.98 10.68 -42 10 C-41.67 9.01 -41.34 8.02 -41 7 Z M-39 12 C-38.361 12.268 -37.721 12.536 -37.062 12.812 C-33.088 14.354 -29.051 15.676 -25 17 C-25 17.33 -25 17.66 -25 18 C-30.857 18.732 -34.504 16.48 -39 13 C-39 12.67 -39 12.34 -39 12 Z " fill="#0E2B15" transform="translate(943,635)"/>
<path d="M0 0 C0 0.99 0 1.98 0 3 C-3 5.188 -3 5.188 -6 7 C-4.607 3.633 -3.021 2.014 0 0 Z M-8 7 C-7.34 7.33 -6.68 7.66 -6 8 C-10.191 12.309 -14.513 16.366 -19.066 20.289 C-21.838 22.742 -24.416 25.351 -27 28 C-27.66 27.67 -28.32 27.34 -29 27 C-26.817 24.787 -24.628 22.581 -22.438 20.375 C-21.828 19.758 -21.219 19.14 -20.592 18.504 C-16.557 14.448 -12.388 10.671 -8 7 Z M-32 29 C-31.34 29 -30.68 29 -30 29 C-30 29.66 -30 30.32 -30 31 C-30.66 31 -31.32 31 -32 31 C-32.33 31.99 -32.66 32.98 -33 34 C-33 30 -33 30 -32 29 Z " fill="#122F19" transform="translate(644,494)"/>
<path d="M0 0 C1.32 1.65 2.64 3.3 4 5 C1.532 3.848 -0.048 2.952 -2 1 C-1.34 0.67 -0.68 0.34 0 0 Z M5 6 C5.99 6.33 6.98 6.66 8 7 C7.01 7 6.02 7 5 7 C5 6.67 5 6.34 5 6 Z M9 7 C12.3 8.65 15.6 10.3 19 12 C16 14 16 14 14.062 13.938 C11.161 12.618 9.832 10.551 8 8 C8.33 7.67 8.66 7.34 9 7 Z M19 13 C21.475 13.495 21.475 13.495 24 14 C22.68 14.33 21.36 14.66 20 15 C19.67 14.34 19.34 13.68 19 13 Z M24 15 C26.875 14.875 26.875 14.875 30 15 C30.66 15.66 31.32 16.32 32 17 C29.125 17.125 29.125 17.125 26 17 C25.34 16.34 24.68 15.68 24 15 Z M38.25 17.438 C39.116 18.211 39.116 18.211 40 19 C35.545 19.495 35.545 19.495 31 20 C31.33 19.01 31.66 18.02 32 17 C34.798 15.649 35.6 15.745 38.25 17.438 Z " fill="#194C2A" transform="translate(803,538)"/>
<path d="M0 0 C0.66 0.66 1.32 1.32 2 2 C1.01 2.495 1.01 2.495 0 3 C0 2.01 0 1.02 0 0 Z M-3 8 C-1.497 11.968 -2.481 15.2 -3.375 19.25 C-4.499 24.491 -5.456 29.665 -6 35 C-9.697 28.588 -8.349 20.845 -6.645 13.918 C-5.846 11.543 -4.729 9.808 -3 8 Z " fill="#1A4F2C" transform="translate(776,421)"/>
<path d="M0 0 C5.445 1.485 5.445 1.485 11 3 C11 3.66 11 4.32 11 5 C8.03 5 5.06 5 2 5 C2 4.34 2 3.68 2 3 C1.01 2.67 0.02 2.34 -1 2 C-0.67 1.34 -0.34 0.68 0 0 Z M29 -1 C29.33 -0.34 29.66 0.32 30 1 C26.914 3.269 25.578 4.055 21.688 3.688 C20.801 3.461 19.914 3.234 19 3 C22.203 0.166 24.781 -0.521 29 -1 Z M12 3 C12.99 3.33 13.98 3.66 15 4 C14.01 4.33 13.02 4.66 12 5 C12 4.34 12 3.68 12 3 Z M15 3 C16.32 3.33 17.64 3.66 19 4 C18.01 4.33 17.02 4.66 16 5 C15.67 4.34 15.34 3.68 15 3 Z M5 5 C7 6 7 6 7 6 Z M17 5 C19 6 19 6 19 6 Z " fill="#1A4527" transform="translate(523,648)"/>
<path d="M0 0 C0 0.66 0 1.32 0 2 C-2.436 2.839 -4.873 3.671 -7.312 4.5 C-8.348 4.858 -8.348 4.858 -9.404 5.223 C-12.389 6.232 -14.827 7 -18 7 C-18.33 5.02 -18.66 3.04 -19 1 C-18.34 0.67 -17.68 0.34 -17 0 C-17 0.66 -17 1.32 -17 2 C-12.98 1.584 -9.521 1.177 -5.688 -0.125 C-3 -1 -3 -1 0 0 Z " fill="#174024" transform="translate(926,428)"/>
<path d="M0 0 C1.098 3.293 0.833 3.824 0 7 C-0.067 8.853 -0.085 10.708 -0.062 12.562 C-0.049 13.988 -0.049 13.988 -0.035 15.441 C-0.024 16.286 -0.012 17.13 0 18 C0 18.99 0 19.98 0 21 C0.33 21.99 0.66 22.98 1 24 C-2 23 -2 23 -4 20 C-4.266 17.004 -4.266 17.004 -4.25 13.562 C-4.255 12.429 -4.26 11.296 -4.266 10.129 C-3.896 5.775 -2.395 3.593 0 0 Z " fill="#143D21" transform="translate(510,611)"/>
<path d="M0 0 C5.947 2.613 10.763 7.427 13.562 13.25 C14.014 16.087 13.699 17.286 13 20 C12.747 22.617 12.559 25.233 12.379 27.855 C12.254 28.563 12.129 29.271 12 30 C11.34 30.33 10.68 30.66 10 31 C10.035 29.998 10.07 28.997 10.105 27.965 C10.367 17.383 9.392 10.961 2 3 C1.34 2.67 0.68 2.34 0 2 C0 1.34 0 0.68 0 0 Z " fill="#0D3117" transform="translate(690,404)"/>
<path d="M0 0 C2 1 2 1 2 1 Z M2 1 C4.875 0.875 4.875 0.875 8 1 C8.66 1.66 9.32 2.32 10 3 C8.68 3.33 7.36 3.66 6 4 C6 3.34 6 2.68 6 2 C4.68 1.67 3.36 1.34 2 1 Z M11 1 C14.161 2.37 14.993 2.989 17 6 C14.69 5.34 12.38 4.68 10 4 C10.33 3.01 10.66 2.02 11 1 Z M17 6 C17.722 6.144 18.444 6.289 19.188 6.438 C20.58 6.716 20.58 6.716 22 7 C23.667 7.333 25.333 7.667 27 8 C26.67 8.99 26.34 9.98 26 11 C19.25 8.25 19.25 8.25 17 6 Z M26 11 C27.32 11.33 28.64 11.66 30 12 C29.67 12.66 29.34 13.32 29 14 C28.01 13.01 27.02 12.02 26 11 Z M30 14 C31.32 14.33 32.64 14.66 34 15 C33.01 15.495 33.01 15.495 32 16 C31.34 15.34 30.68 14.68 30 14 Z M32 17 C34 18 34 18 34 18 Z " fill="#1A4C2B" transform="translate(885,371)"/>
<path d="M0 0 C0.66 0.66 1.32 1.32 2 2 C-1.271 3.635 -4.9 3.424 -8.5 3.625 C-9.285 3.677 -10.07 3.728 -10.879 3.781 C-16.752 4.124 -16.752 4.124 -19 3 C-12.853 -0.353 -6.948 -0.812 0 0 Z M-24 7 C-23.34 7 -22.68 7 -22 7 C-22.66 8.32 -23.32 9.64 -24 11 C-24.33 10.34 -24.66 9.68 -25 9 C-24.67 8.34 -24.34 7.68 -24 7 Z " fill="#12381D" transform="translate(481,595)"/>
<path d="M0 0 C0.33 0 0.66 0 1 0 C1 2.64 1 5.28 1 8 C0.67 8 0.34 8 0 8 C0 5.36 0 2.72 0 0 Z M-1 8 C-0.67 8 -0.34 8 0 8 C0.66 12.29 1.32 16.58 2 21 C2.33 21 2.66 21 3 21 C3.33 23.64 3.66 26.28 4 29 C3.34 29 2.68 29 2 29 C1.67 29.99 1.34 30.98 1 32 C-0.184 23.976 -1.285 16.135 -1 8 Z M2 32 C3.562 33.75 3.562 33.75 5 36 C4.688 38.25 4.688 38.25 4 40 C2.743 37.094 2 35.204 2 32 Z " fill="#1B4E2C" transform="translate(805,451)"/>
<path d="M0 0 C4.875 4.625 4.875 4.625 6 8 C6.66 8 7.32 8 8 8 C8.598 8.969 9.196 9.939 9.812 10.938 C11.682 14.201 11.682 14.201 14.75 14.875 C15.492 14.916 16.235 14.957 17 15 C17 11.7 17 8.4 17 5 C17.66 5 18.32 5 19 5 C19 8.63 19 12.26 19 16 C15.625 16.75 14.231 17.034 11 16 C6.505 11.821 0.843 6.313 0 0 Z " fill="#174E2A" transform="translate(868,636)"/>
<path d="M0 0 C0.66 0 1.32 0 2 0 C1.723 0.984 1.446 1.967 1.16 2.98 C-1.948 14.661 -2.764 25.942 -3 38 C-3.33 38 -3.66 38 -4 38 C-4.226 33.938 -4.428 29.876 -4.625 25.812 C-4.689 24.662 -4.754 23.512 -4.82 22.326 C-4.872 21.214 -4.923 20.103 -4.977 18.957 C-5.029 17.936 -5.081 16.915 -5.135 15.863 C-4.991 12.802 -4.284 10.761 -3 8 C-2.454 6.564 -1.912 5.127 -1.375 3.688 C-0.921 2.471 -0.467 1.254 0 0 Z " fill="#092A12" transform="translate(810,436)"/>
<path d="M0 0 C1.333 2.667 2.667 5.333 4 8 C2.68 8.33 1.36 8.66 0 9 C0 6.03 0 3.06 0 0 Z M3 9 C4.32 9.99 5.64 10.98 7 12 C6.01 12 5.02 12 4 12 C3.67 11.01 3.34 10.02 3 9 Z M6 13 C6.66 13 7.32 13 8 13 C8.33 13.99 8.66 14.98 9 16 C8.34 16 7.68 16 7 16 C6.67 15.01 6.34 14.02 6 13 Z M9 16 C9.99 16.33 10.98 16.66 12 17 C11.01 17 10.02 17 9 17 C9 16.67 9 16.34 9 16 Z M12 18 C13.32 18 14.64 18 16 18 C16 18.66 16 19.32 16 20 C17.237 20.124 18.475 20.247 19.75 20.375 C22.924 20.692 25.206 21.452 28 23 C22.774 22.559 17.879 22.074 13 20 C12.67 19.34 12.34 18.68 12 18 Z " fill="#194D2B" transform="translate(769,630)"/>
<path d="M0 0 C4.75 0.75 4.75 0.75 7 3 C4.062 2.625 4.062 2.625 1 2 C0.67 1.34 0.34 0.68 0 0 Z M7 3 C9 4 9 4 9 4 Z M9 4 C11 5 11 5 11 5 Z M11 5 C16.803 6.488 21.176 9.591 26 13 C25.67 13.66 25.34 14.32 25 15 C22.36 14.01 19.72 13.02 17 12 C17 11.34 17 10.68 17 10 C15.02 9.34 13.04 8.68 11 8 C11 7.01 11 6.02 11 5 Z " fill="#0E3419" transform="translate(281,615)"/>
<path d="M0 0 C2 1 2 1 2 1 Z M-1 1 C-1 1.99 -1 2.98 -1 4 C-3 5.688 -3 5.688 -5 7 C-3.848 4.532 -2.952 2.952 -1 1 Z M-7 9 C-5.792 12.623 -6.457 13.641 -8 17 C-8.931 14.394 -9.149 13.358 -8.062 10.75 C-7.712 10.173 -7.361 9.595 -7 9 Z M-11 16 C-10.34 16.33 -9.68 16.66 -9 17 C-8.946 18.625 -8.907 20.25 -8.875 21.875 C-8.852 22.78 -8.829 23.685 -8.805 24.617 C-9 27 -9 27 -11 29 C-12.183 26.634 -12.134 25.132 -12.125 22.5 C-12.128 21.706 -12.13 20.912 -12.133 20.094 C-12 18 -12 18 -11 16 Z " fill="#224E30" transform="translate(778,602)"/>
<path d="M0 0 C0 0.33 0 0.66 0 1 C-7.26 1 -14.52 1 -22 1 C-22 1.66 -22 2.32 -22 3 C-23.812 3.625 -23.812 3.625 -26 4 C-26.99 3.34 -27.98 2.68 -29 2 C-23.108 -3.892 -7.515 -1.422 0 0 Z M-33 3 C-29 4 -29 4 -29 4 Z " fill="#2B4530" transform="translate(872,367)"/>
<path d="M0 0 C0.33 0 0.66 0 1 0 C2.098 6.99 3.173 13.972 4 21 C3.01 21 2.02 21 1 21 C-0.504 13.655 -1.236 7.419 0 0 Z M4 21 C6 23 6 23 6 26 C5.34 26 4.68 26 4 26 C4 24.35 4 22.7 4 21 Z M6 26 C6.33 26.66 6.66 27.32 7 28 C6.34 27.67 5.68 27.34 5 27 C5.33 26.67 5.66 26.34 6 26 Z " fill="#174626" transform="translate(769,474)"/>
<path d="M0 0 C0.66 0.33 1.32 0.66 2 1 C-2.29 4.63 -6.58 8.26 -11 12 C-11 11.01 -11 10.02 -11 9 C-11.66 8.34 -12.32 7.68 -13 7 C-10.88 5.803 -8.755 4.617 -6.625 3.438 C-6.022 3.095 -5.418 2.753 -4.797 2.4 C-3.23 1.539 -1.617 0.763 0 0 Z M-15 14 C-15 14.99 -15 15.98 -15 17 C-16.98 17.99 -16.98 17.99 -19 19 C-17.68 17.35 -16.36 15.7 -15 14 Z " fill="#397244" transform="translate(291,439)"/>
<path d="M0 0 C2.97 0.495 2.97 0.495 6 1 C4 3 4 3 1.375 3.125 C0.591 3.084 -0.192 3.043 -1 3 C-0.67 2.01 -0.34 1.02 0 0 Z M-22 1 C-19 2 -19 2 -19 2 Z M-6 1 C-4 2 -4 2 -4 2 Z M-28 2 C-24 3 -24 3 -24 3 Z M-23 2 C-19.708 1.942 -16.417 1.906 -13.125 1.875 C-12.188 1.858 -11.251 1.841 -10.285 1.824 C-9.389 1.818 -8.493 1.811 -7.57 1.805 C-6.743 1.794 -5.915 1.784 -5.063 1.773 C-3 2 -3 2 -1 4 C-8.83 4.798 -16.196 5.145 -24 4 C-23.67 3.34 -23.34 2.68 -23 2 Z " fill="#1B4F2D" transform="translate(875,522)"/>
<path d="M0 0 C0.66 0.33 1.32 0.66 2 1 C3.732 8.276 3.503 13.812 0.07 20.398 C-1 22 -1 22 -3 23 C-2.25 16.375 -2.25 16.375 0 13 C0.242 9.796 0.242 9.796 0.125 6.312 C0.107 5.133 0.089 3.954 0.07 2.738 C0.047 1.835 0.024 0.931 0 0 Z " fill="#1A4E2B" transform="translate(813,616)"/>
<path d="M0 0 C1.32 0.33 2.64 0.66 4 1 C3.67 1.66 3.34 2.32 3 3 C2.34 3 1.68 3 1 3 C0.67 2.01 0.34 1.02 0 0 Z M20 -1 C20.66 -0.34 21.32 0.32 22 1 C21.34 1 20.68 1 20 1 C19.67 1.99 19.34 2.98 19 4 C16.874 3.886 14.749 3.759 12.625 3.625 C11.442 3.555 10.258 3.486 9.039 3.414 C6 3 6 3 4 1 C4.978 1.035 4.978 1.035 5.977 1.07 C11.087 1.176 15.204 1.019 20 -1 Z " fill="#184B29" transform="translate(637,650)"/>
<path d="M0 0 C2 1 2 1 2 1 Z M4 1 C1.826 3.5 0.27 4.436 -3 5 C-1.68 6.32 -0.36 7.64 1 9 C-3.752 8.568 -5.92 7.672 -9 4 C-4.446 1.334 -1.261 0.684 4 1 Z " fill="#1F5230" transform="translate(152,611)"/>
<path d="M0 0 C2 1 2 1 3 3 C1.608 3.433 1.608 3.433 0.188 3.875 C-3.098 4.887 -3.098 4.887 -6 7 C-4.25 2.125 -4.25 2.125 -2 1 C-1.34 1.33 -0.68 1.66 0 2 C0 1.34 0 0.68 0 0 Z M3 3 C4.958 2.919 6.916 2.861 8.875 2.812 C10.511 2.76 10.511 2.76 12.18 2.707 C13.11 2.804 14.041 2.9 15 3 C15.66 3.99 16.32 4.98 17 6 C13.165 7.381 9.928 6.857 6 6 C4.285 4.453 4.285 4.453 3 3 Z " fill="#1F5330" transform="translate(913,497)"/>
<path d="M0 0 C0.66 0.33 1.32 0.66 2 1 C1.01 1 0.02 1 -1 1 C-0.67 0.67 -0.34 0.34 0 0 Z M-2 2 C-2 2.99 -2 3.98 -2 5 C-3.485 5.99 -3.485 5.99 -5 7 C-3.125 3.125 -3.125 3.125 -2 2 Z M-10 10 C-9.01 10 -8.02 10 -7 10 C-8.156 13.912 -9.355 16.875 -12 20 C-13.392 15.824 -11.823 13.865 -10 10 Z " fill="#0B3015" transform="translate(656,406)"/>
<path d="M0 0 C0 0.99 0 1.98 0 3 C-0.639 3.124 -1.279 3.248 -1.938 3.375 C-5.97 4.198 -9.984 5.099 -14 6 C-14 5.01 -14 4.02 -14 3 C-12.045 2.303 -10.086 1.618 -8.125 0.938 C-7.034 0.555 -5.944 0.172 -4.82 -0.223 C-2 -1 -2 -1 0 0 Z " fill="#164123" transform="translate(837,370)"/>
<path d="M0 0 C0.33 0.66 0.66 1.32 1 2 C0.67 2.66 0.34 3.32 0 4 C-0.226 5.704 -0.409 7.413 -0.562 9.125 C-0.646 10.035 -0.73 10.945 -0.816 11.883 C-0.877 12.581 -0.938 13.28 -1 14 C-1.99 14 -2.98 14 -4 14 C-4.902 9.901 -5.228 7.588 -3.688 3.625 C-2 1 -2 1 0 0 Z " fill="#1A4527" transform="translate(519,614)"/>
<path d="M0 0 C1.296 -0.039 1.296 -0.039 2.617 -0.078 C5.575 0.309 6.917 1.299 9.125 3.25 C8.444 3.085 7.764 2.92 7.062 2.75 C2.543 1.981 -1.505 1.793 -5.875 3.25 C-6.205 3.91 -6.535 4.57 -6.875 5.25 C-7.865 4.92 -8.855 4.59 -9.875 4.25 C-6.619 0.846 -4.716 0.084 0 0 Z M-13.875 5.25 C-12.885 5.58 -11.895 5.91 -10.875 6.25 C-12.25 7.75 -12.25 7.75 -13.875 9.25 C-14.535 9.25 -15.195 9.25 -15.875 9.25 C-15.215 7.93 -14.555 6.61 -13.875 5.25 Z " fill="#184F2B" transform="translate(534.875,602.75)"/>
<path d="M0 0 C2.169 0.506 4 1 6 2 C4.628 4.954 3.011 7.44 1 10 C-1.475 9.01 -1.475 9.01 -4 8 C-3.01 7.01 -2.02 6.02 -1 5 C-0.67 5.33 -0.34 5.66 0 6 C1.333 3 1.333 3 0 0 Z " fill="#1B4E2C" transform="translate(488,601)"/>
<path d="M0 0 C-2.869 0.956 -4.426 1.053 -7.375 0.938 C-11.041 0.884 -13.686 1.289 -17 3 C-17 2.01 -17 1.02 -17 0 C-11.149 -2.837 -5.851 -2.837 0 0 Z M-20 1 C-17 2 -17 2 -17 2 Z M-23 4 C-22.01 4.495 -22.01 4.495 -21 5 C-21.99 5.495 -21.99 5.495 -23 6 C-23 5.34 -23 4.68 -23 4 Z " fill="#174A28" transform="translate(804,605)"/>
<path d="M0 0 C2.343 0.256 4.678 0.593 7 1 C7.33 1.66 7.66 2.32 8 3 C5.36 2.34 2.72 1.68 0 1 C0 0.67 0 0.34 0 0 Z M8 3 C10.867 3.573 11.861 3.861 14 6 C13.697 9.842 12.475 12.094 10 15 C8.68 14.67 7.36 14.34 6 14 C6 13.34 6 12.68 6 12 C6.928 11.876 6.928 11.876 7.875 11.75 C10.184 11.187 10.184 11.187 11.25 8.938 C11.497 8.298 11.745 7.659 12 7 C10.68 5.68 9.36 4.36 8 3 Z " fill="#0B2712" transform="translate(928,596)"/>
<path d="M0 0 C0 3 0 3 -2.406 5.48 C-3.43 6.391 -4.462 7.293 -5.5 8.188 C-6.025 8.651 -6.549 9.114 -7.09 9.592 C-8.387 10.735 -9.692 11.869 -11 13 C-11 10 -11 10 -9.355 8.027 C-8.64 7.338 -7.925 6.648 -7.188 5.938 C-6.48 5.245 -5.772 4.553 -5.043 3.84 C-3 2 -3 2 0 0 Z " fill="#0D2A14" transform="translate(662,477)"/>
<path d="M0 0 C2.475 0.495 2.475 0.495 5 1 C3.515 1.99 3.515 1.99 2 3 C1.34 2.67 0.68 2.34 0 2 C0 1.34 0 0.68 0 0 Z M6 1 C6.33 1.66 6.66 2.32 7 3 C6.34 2.67 5.68 2.34 5 2 C5.33 1.67 5.66 1.34 6 1 Z M8 2 C8.33 2.66 8.66 3.32 9 4 C8.34 3.67 7.68 3.34 7 3 C7.33 2.67 7.66 2.34 8 2 Z M9 4 C10.875 4.625 10.875 4.625 13 6 C14.25 9.125 14.25 9.125 15 12 C14.34 12.66 13.68 13.32 13 14 C13 12.35 13 10.7 13 9 C11.68 8.34 10.36 7.68 9 7 C9 6.01 9 5.02 9 4 Z " fill="#1C4D2D" transform="translate(921,627)"/>
<path d="M0 0 C0.99 0.33 1.98 0.66 3 1 C2.375 3.375 2.375 3.375 1 6 C-2.125 7.312 -2.125 7.312 -5 8 C-5 8.66 -5 9.32 -5 10 C-5.66 9.67 -6.32 9.34 -7 9 C-2.857 2.571 -2.857 2.571 0 0 Z " fill="#184828" transform="translate(902,506)"/>
<path d="M0 0 C6.97 3.408 12.636 8.441 18 14 C18.33 14.99 18.66 15.98 19 17 C16.275 15.929 15.027 15.035 13.219 12.68 C10.811 9.772 8.358 7.938 5.25 5.812 C3.465 4.591 1.704 3.331 0 2 C0 1.34 0 0.68 0 0 Z " fill="#18351F" transform="translate(912,380)"/>
<path d="M0 0 C0.66 0.66 1.32 1.32 2 2 C1.34 2 0.68 2 0 2 C0 1.34 0 0.68 0 0 Z M3 3 C5.48 3.988 5.48 3.988 8 6 C8.379 8.941 8.478 11.276 8.312 14.188 C8.29 14.937 8.267 15.687 8.244 16.459 C8.185 18.307 8.096 20.154 8 22 C7.67 22 7.34 22 7 22 C6.879 21.131 6.758 20.262 6.633 19.367 C6.465 18.215 6.298 17.062 6.125 15.875 C5.963 14.738 5.8 13.601 5.633 12.43 C5.026 9.139 4.137 6.142 3 3 Z M9 4 C11 5 11 5 11 5 Z " fill="#0B2D14" transform="translate(806,608)"/>
<path d="M0 0 C0.66 0.33 1.32 0.66 2 1 C0.02 1.99 0.02 1.99 -2 3 C-1.34 2.01 -0.68 1.02 0 0 Z M-3 3 C-3 6 -3 6 -4.875 8.188 C-7 10 -7 10 -9 10 C-7.771 6.312 -6.061 5.276 -3 3 Z M-13 12 C-12.34 12.33 -11.68 12.66 -11 13 C-12.98 14.98 -14.96 16.96 -17 19 C-17.66 18.67 -18.32 18.34 -19 18 C-17.02 16.02 -15.04 14.04 -13 12 Z " fill="#102E17" transform="translate(687,501)"/>
<path d="M0 0 C3 1 3 1 3 1 Z M3 1 C8.633 0.76 13.545 1.615 19 3 C18.01 4.485 18.01 4.485 17 6 C15.04 5.55 13.082 5.09 11.125 4.625 C10.034 4.37 8.944 4.115 7.82 3.852 C5 3 5 3 3 1 Z M19 4 C21 5 21 5 21 5 Z " fill="#133A1F" transform="translate(195,641)"/>
<path d="M0 0 C2.97 0.495 2.97 0.495 6 1 C6 1.33 6 1.66 6 2 C4.35 2 2.7 2 1 2 C0.67 1.34 0.34 0.68 0 0 Z M-1 2 C1 3 1 3 1 3 Z M6 2 C10.265 1.688 12.986 2.656 16.812 4.5 C18.276 5.196 18.276 5.196 19.77 5.906 C20.506 6.267 21.242 6.628 22 7 C20.02 7.99 20.02 7.99 18 9 C17.67 8.34 17.34 7.68 17 7 C15.175 6.22 13.314 5.522 11.438 4.875 C10.426 4.522 9.414 4.169 8.371 3.805 C7.197 3.406 7.197 3.406 6 3 C6 2.67 6 2.34 6 2 Z " fill="#1B502D" transform="translate(294,662)"/>
<path d="M0 0 C0.99 0.33 1.98 0.66 3 1 C1.68 1.33 0.36 1.66 -1 2 C-0.67 1.34 -0.34 0.68 0 0 Z M-20 1 C-18.02 1.66 -16.04 2.32 -14 3 C-14.99 3.495 -14.99 3.495 -16 4 C-18.125 3.062 -18.125 3.062 -20 2 C-20 1.67 -20 1.34 -20 1 Z M-5 1 C-3.68 1.66 -2.36 2.32 -1 3 C-4.314 5.209 -5.345 5.225 -9.188 5.125 C-10.089 5.107 -10.99 5.089 -11.918 5.07 C-12.605 5.047 -13.292 5.024 -14 5 C-14 4.67 -14 4.34 -14 4 C-10.924 3.707 -10.924 3.707 -7.848 3.414 C-7.238 3.277 -6.628 3.141 -6 3 C-5.67 2.34 -5.34 1.68 -5 1 Z " fill="#194F2B" transform="translate(805,641)"/>
<path d="M0 0 C0.33 0 0.66 0 1 0 C1 5.61 1 11.22 1 17 C0.01 17.33 -0.98 17.66 -2 18 C-1.86 15.187 -1.713 12.375 -1.562 9.562 C-1.523 8.76 -1.484 7.958 -1.443 7.131 C-1.113 1.113 -1.113 1.113 0 0 Z " fill="#174D2A" transform="translate(879,616)"/>
<path d="M0 0 C1.454 0.495 1.454 0.495 2.938 1 C5.621 2.052 5.621 2.052 7 2 C7.33 5.63 7.66 9.26 8 13 C5.591 10.11 3.549 7.431 2 4 C1.629 3.258 1.257 2.515 0.875 1.75 C0.586 1.173 0.298 0.595 0 0 Z " fill="#1D4529" transform="translate(333,679)"/>
<path d="M0 0 C-4.944 2.747 -9.398 3.13 -15 3 C-11.003 -0.997 -5.313 -0.09 0 0 Z M-20 3 C-18.35 3 -16.7 3 -15 3 C-16.98 3.99 -16.98 3.99 -19 5 C-19.33 4.34 -19.66 3.68 -20 3 Z " fill="#0D2C15" transform="translate(181,606)"/>
<path d="M0 0 C1.072 0.005 2.145 0.01 3.25 0.016 C4.859 0.008 4.859 0.008 6.5 0 C9.25 0.266 9.25 0.266 11.25 2.266 C5.673 3.334 0.856 3.092 -4.75 2.266 C-2.75 0.266 -2.75 0.266 0 0 Z " fill="#103219" transform="translate(792.75,594.734375)"/>
<path d="M0 0 C-4.747 3.165 -8.318 3.109 -14 3 C-12.157 0.645 -11.069 0.018 -8.125 -0.75 C-5.131 -0.99 -2.887 -0.764 0 0 Z " fill="#0C3318" transform="translate(889,556)"/>
<path d="M0 0 C0 0.66 0 1.32 0 2 C-4.431 4.092 -4.431 4.092 -7.312 3.625 C-7.869 3.419 -8.426 3.212 -9 3 C-8.67 2.67 -8.34 2.34 -8 2 C-8.66 1.34 -9.32 0.68 -10 0 C-2.25 -1.125 -2.25 -1.125 0 0 Z " fill="#245233" transform="translate(930,643)"/>
<path d="M0 0 C4.875 4.625 4.875 4.625 6 8 C6.66 8 7.32 8 8 8 C8.99 9.485 8.99 9.485 10 11 C9.67 11.99 9.34 12.98 9 14 C7.494 12.046 5.995 10.087 4.5 8.125 C4.071 7.569 3.641 7.014 3.199 6.441 C0 2.227 0 2.227 0 0 Z " fill="#174D2A" transform="translate(868,636)"/>
<path d="M0 0 C4.128 0.607 7.332 2.038 11 4 C11 4.66 11 5.32 11 6 C9.538 5.771 8.08 5.516 6.625 5.25 C5.407 5.041 5.407 5.041 4.164 4.828 C2 4 2 4 0.711 1.922 C0.476 1.288 0.242 0.653 0 0 Z " fill="#133E21" transform="translate(183,635)"/>
<path d="M0 0 C9.41 -0.185 9.41 -0.185 14 1 C11.585 3.415 10.873 3.296 7.562 3.312 C6.389 3.338 6.389 3.338 5.191 3.363 C2.539 2.924 1.677 2.044 0 0 Z " fill="#10381D" transform="translate(239,605)"/>
<path d="M0 0 C2.005 3.743 3 6.737 3 11 C2.01 11 1.02 11 0 11 C-1.761 7.674 -2.108 6.408 -1.125 2.688 C-0.568 1.357 -0.568 1.357 0 0 Z " fill="#194D2B" transform="translate(508,623)"/>
<path d="M0 0 C0.33 1.32 0.66 2.64 1 4 C-1.31 4.33 -3.62 4.66 -6 5 C-4.067 2.975 -2.368 1.579 0 0 Z M-9 5 C-8.01 5.33 -7.02 5.66 -6 6 C-7.32 6.99 -8.64 7.98 -10 9 C-9.67 7.68 -9.34 6.36 -9 5 Z " fill="#1B4A2A" transform="translate(662,401)"/>
<path d="M0 0 C2 1 2 1 2 1 Z M-3 1 C-1 2 -1 2 -1 2 Z M5 2 C3.59 2.702 2.172 3.386 0.75 4.062 C-0.039 4.445 -0.828 4.828 -1.641 5.223 C-4.26 6.086 -5.449 5.93 -8 5 C-6.401 4.301 -4.795 3.616 -3.188 2.938 C-2.294 2.555 -1.401 2.172 -0.48 1.777 C2 1 2 1 5 2 Z " fill="#1F5230" transform="translate(650,370)"/>
<path d="M0 0 C4 1 4 1 4 1 Z M4 1 C7.3 1 10.6 1 14 1 C14 1.66 14 2.32 14 3 C14.99 3.33 15.98 3.66 17 4 C15.395 3.886 13.791 3.758 12.188 3.625 C11.294 3.555 10.401 3.486 9.48 3.414 C7 3 7 3 4 1 Z " fill="#0E2D16" transform="translate(239,652)"/>
<path d="M0 0 C0 0.99 0 1.98 0 3 C-4.537 4.452 -8.181 5.235 -13 5 C-12.67 4.34 -12.34 3.68 -12 3 C-10.007 2.739 -8.012 2.483 -6.012 2.285 C-3.705 1.958 -1.973 1.233 0 0 Z " fill="#164F2B" transform="translate(485,648)"/>
<path d="M0 0 C5.277 0.539 9.256 1.773 14 4 C11 5 11 5 7 5 C7 4.34 7 3.68 7 3 C4.69 2.34 2.38 1.68 0 1 C0 0.67 0 0.34 0 0 Z " fill="#0C3317" transform="translate(266,610)"/>
<path d="M0 0 C3.3 0.33 6.6 0.66 10 1 C10 1.33 10 1.66 10 2 C8.896 2.182 8.896 2.182 7.77 2.367 C6.794 2.535 5.818 2.702 4.812 2.875 C3.85 3.037 2.887 3.2 1.895 3.367 C-0.91 3.98 -3.372 4.857 -6 6 C-4.71 4.624 -3.373 3.292 -2 2 C-1.34 2 -0.68 2 0 2 C0 1.34 0 0.68 0 0 Z " fill="#1B4F2C" transform="translate(786,596)"/>
<path d="M0 0 C1.98 0.99 3.96 1.98 6 3 C4.125 4.062 4.125 4.062 2 5 C1.34 4.67 0.68 4.34 0 4 C0 2.68 0 1.36 0 0 Z M7 5 C7.66 5 8.32 5 9 5 C8.67 5.66 8.34 6.32 8 7 C7.67 6.34 7.34 5.68 7 5 Z " fill="#18502C" transform="translate(686,400)"/>
<path d="M0 0 C3.3 0.99 6.6 1.98 10 3 C9.67 3.66 9.34 4.32 9 5 C6.69 5 4.38 5 2 5 C2 4.34 2 3.68 2 3 C1.01 2.67 0.02 2.34 -1 2 C-0.67 1.34 -0.34 0.68 0 0 Z M5 5 C7 6 7 6 7 6 Z " fill="#1D4E2D" transform="translate(523,648)"/>
<path d="M0 0 C2 1 2 1 3.125 4.062 C3.414 5.032 3.702 6.001 4 7 C0.839 5.63 0.007 5.011 -2 2 C-1.34 1.34 -0.68 0.68 0 0 Z M4 7 C6.31 7.66 8.62 8.32 11 9 C9.188 9.688 9.188 9.688 7 10 C5.25 8.562 5.25 8.562 4 7 Z " fill="#102E17" transform="translate(454,642)"/>
<path d="M0 0 C2 1 2 1 2 1 Z M2 1 C3.708 2.634 4.935 3.869 6 6 C6.04 8 6.043 10 6 12 C4.333 8.667 2.667 5.333 1 2 C1.33 1.67 1.66 1.34 2 1 Z " fill="#1C522E" transform="translate(488,626)"/>
<path d="M0 0 C2 3.75 2 3.75 2 6 C-3.28 6 -8.56 6 -14 6 C-10.256 4.128 -9.16 3.76 -5.25 3.875 C-4.451 3.893 -3.652 3.911 -2.828 3.93 C-2.225 3.953 -1.622 3.976 -1 4 C-0.67 2.68 -0.34 1.36 0 0 Z " fill="#174F2B" transform="translate(726,600)"/>
<path d="M0 0 C0 0.99 0 1.98 0 3 C-3 5.188 -3 5.188 -6 7 C-4.607 3.633 -3.021 2.014 0 0 Z M-8 7 C-7.01 7.495 -7.01 7.495 -6 8 C-6.99 8.495 -6.99 8.495 -8 9 C-8 8.34 -8 7.68 -8 7 Z " fill="#15321C" transform="translate(644,494)"/>
<path d="M0 0 C0.433 0.598 0.866 1.196 1.312 1.812 C2.875 4.007 2.875 4.007 4.75 5.438 C5.163 5.953 5.575 6.469 6 7 C5.688 9.688 5.688 9.688 5 12 C2.847 9.847 2.065 8.152 0.875 5.375 C0.522 4.558 0.169 3.74 -0.195 2.898 C-0.461 2.272 -0.726 1.645 -1 1 C-0.67 0.67 -0.34 0.34 0 0 Z " fill="#1C532E" transform="translate(730,395)"/>
<path d="M0 0 C1.884 3.265 2.493 6.281 3 10 C2.01 10 1.02 10 0 10 C-1.125 6.688 -1.125 6.688 -2 3 C-1.34 2.01 -0.68 1.02 0 0 Z " fill="#143E21" transform="translate(337,671)"/>
<path d="M0 0 C0.413 0.557 0.825 1.114 1.25 1.688 C2.52 3.366 3.84 5.008 5.188 6.625 C7 9 7 9 7 11 C2.911 9.637 1.454 7.476 -1 4 C-0.812 1.625 -0.812 1.625 0 0 Z " fill="#173A21" transform="translate(778,630)"/>
<path d="M0 0 C1.438 0.115 2.876 0.242 4.312 0.375 C5.513 0.479 5.513 0.479 6.738 0.586 C9 1 9 1 12 3 C5.746 4.349 5.746 4.349 2.062 2.625 C1.382 2.089 0.701 1.553 0 1 C0 0.67 0 0.34 0 0 Z " fill="#0E361A" transform="translate(927,501)"/>
<path d="M0 0 C2.352 0.599 4.686 1.269 7 2 C7.33 2.66 7.66 3.32 8 4 C4.37 3.67 0.74 3.34 -3 3 C-2.01 2.67 -1.02 2.34 0 2 C0 1.34 0 0.68 0 0 Z " fill="#0D3319" transform="translate(633,425)"/>
<path d="M0 0 C0.66 0.33 1.32 0.66 2 1 C-0.518 4.123 -1.726 4.945 -5.75 5.75 C-7.359 5.874 -7.359 5.874 -9 6 C-3.304 1.253 -3.304 1.253 0 0 Z " fill="#11391D" transform="translate(810,647)"/>
<path d="M0 0 C0.369 4.554 0.369 4.554 -1.5 6.812 C-1.995 7.204 -2.49 7.596 -3 8 C-3.66 7.67 -4.32 7.34 -5 7 C-4.67 6.381 -4.34 5.763 -4 5.125 C-2.858 3.09 -2.858 3.09 -3 1 C-1 0 -1 0 0 0 Z M-7 8 C-6.34 8.33 -5.68 8.66 -5 9 C-5.99 9 -6.98 9 -8 9 C-7.67 8.67 -7.34 8.34 -7 8 Z M-10 10 C-8 11 -8 11 -8 11 Z " fill="#184E2B" transform="translate(663,634)"/>
<path d="M0 0 C1.887 0.062 1.887 0.062 3.812 0.125 C3.812 1.115 3.812 2.105 3.812 3.125 C0.183 2.795 -3.447 2.465 -7.188 2.125 C-4.099 0.066 -3.478 -0.114 0 0 Z " fill="#22492C" transform="translate(620.1875,423.875)"/>
<path d="M0 0 C0.66 0.66 1.32 1.32 2 2 C1.01 2 0.02 2 -1 2 C-0.67 1.34 -0.34 0.68 0 0 Z " fill="#3F8E4D" transform="translate(113,381)"/>
<path d="M0 0 C0.33 1.32 0.66 2.64 1 4 C-1.97 4 -4.94 4 -8 4 C-8 3.01 -8 2.02 -8 1 C-7.423 1.206 -6.845 1.413 -6.25 1.625 C-3.48 2.087 -2.354 1.429 0 0 Z " fill="#1A512D" transform="translate(710,648)"/>
<path d="M0 0 C1.938 0.875 1.938 0.875 3.938 3.875 C3.009 3.71 2.081 3.545 1.125 3.375 C-2.019 2.798 -2.019 2.798 -5.062 2.875 C-2.635 -0.16 -2.635 -0.16 0 0 Z M3.938 3.875 C4.928 4.205 5.918 4.535 6.938 4.875 C5.947 4.875 4.957 4.875 3.938 4.875 C3.938 4.545 3.938 4.215 3.938 3.875 Z " fill="#103119" transform="translate(460.0625,637.125)"/>
<path d="M0 0 C0.33 0.66 0.66 1.32 1 2 C1.99 1.67 2.98 1.34 4 1 C4.99 2.32 5.98 3.64 7 5 C5.188 5.688 5.188 5.688 3 6 C1.25 4.75 1.25 4.75 0 3 C0 2.01 0 1.02 0 0 Z M7 5 C9 6 9 6 9 6 Z M9 6 C12 7 12 7 12 7 Z " fill="#1B492A" transform="translate(163,625)"/>
<path d="M0 0 C0.99 0.33 1.98 0.66 3 1 C2.67 1.99 2.34 2.98 2 4 C1.01 3.01 0.02 2.02 -1 1 C-0.67 0.67 -0.34 0.34 0 0 Z M4 3 C4.66 3.33 5.32 3.66 6 4 C5.67 4.99 5.34 5.98 5 7 C4.34 6.67 3.68 6.34 3 6 C3.33 5.01 3.66 4.02 4 3 Z M6 6 C6.99 6.99 7.98 7.98 9 9 C8.01 8.67 7.02 8.34 6 8 C6 7.34 6 6.68 6 6 Z " fill="#174D2A" transform="translate(456,616)"/>
<path d="M0 0 C0.66 0.33 1.32 0.66 2 1 C4.568 1.03 7.121 0.933 9.688 0.84 C12 1 12 1 14 3 C9.05 3 4.1 3 -1 3 C-0.67 2.01 -0.34 1.02 0 0 Z " fill="#18502C" transform="translate(686,603)"/>
<path d="M0 0 C0.66 0.66 1.32 1.32 2 2 C1.01 2.99 0.02 3.98 -1 5 C-1 2 -1 2 0 0 Z M-9 3 C-6 4 -6 4 -6 4 Z M-6 4 C-4 5 -4 5 -4 5 Z M-4 5 C-3.01 5.33 -2.02 5.66 -1 6 C-1.99 6 -2.98 6 -4 6 C-4 5.67 -4 5.34 -4 5 Z " fill="#1A522D" transform="translate(939,602)"/>
<path d="M0 0 C6.75 2.875 6.75 2.875 9 4 C8.67 4.99 8.34 5.98 8 7 C4.125 5.25 4.125 5.25 3 3 C0.983 1.866 0.983 1.866 -1 1 C-0.67 0.67 -0.34 0.34 0 0 Z " fill="#173E23" transform="translate(544,596)"/>
<path d="M0 0 C0.99 0.66 1.98 1.32 3 2 C1.614 5.092 0.508 6.492 -2 9 C-1.34 6.03 -0.68 3.06 0 0 Z " fill="#184224" transform="translate(770,435)"/>
<path d="M0 0 C0.66 0 1.32 0 2 0 C1.67 0.99 1.34 1.98 1 3 C0.34 2.34 -0.32 1.68 -1 1 C-0.67 0.67 -0.34 0.34 0 0 Z M1 3 C2.32 3.33 3.64 3.66 5 4 C4.67 4.66 4.34 5.32 4 6 C3.01 5.01 2.02 4.02 1 3 Z M5 6 C6.32 6.33 7.64 6.66 9 7 C8.01 7.495 8.01 7.495 7 8 C6.34 7.34 5.68 6.68 5 6 Z M7 9 C9 10 9 10 9 10 Z " fill="#1B4E2C" transform="translate(910,379)"/>
<path d="M0 0 C1.32 0.66 2.64 1.32 4 2 C0.366 4.326 -2.771 4.163 -7 4 C-7 3.67 -7 3.34 -7 3 C-3.535 2.505 -3.535 2.505 0 2 C0 1.34 0 0.68 0 0 Z " fill="#1B4E2B" transform="translate(540,642)"/>
<path d="M0 0 C0.99 0 1.98 0 3 0 C1.814 3.375 0.724 5.647 -2 8 C-1.125 1.125 -1.125 1.125 0 0 Z " fill="#184326" transform="translate(812,631)"/>
<path d="M0 0 C3.465 1.485 3.465 1.485 7 3 C6.01 3.66 5.02 4.32 4 5 C2.68 4.34 1.36 3.68 0 3 C0 2.01 0 1.02 0 0 Z M5 5 C7 6 7 6 7 6 Z M7 6 C7.66 6.66 8.32 7.32 9 8 C8.34 8 7.68 8 7 8 C7 7.34 7 6.68 7 6 Z " fill="#194A29" transform="translate(304,628)"/>
<path d="M0 0 C1.136 3.409 0.867 4.003 -0.438 7.188 C-0.725 7.903 -1.012 8.618 -1.309 9.355 C-1.651 10.17 -1.651 10.17 -2 11 C-2.66 11 -3.32 11 -4 11 C-3.913 9.541 -3.805 8.082 -3.688 6.625 C-3.629 5.813 -3.571 5.001 -3.512 4.164 C-3 2 -3 2 0 0 Z " fill="#1A4F2B" transform="translate(613,405)"/>
<path d="M0 0 C3.255 0.349 4.019 1.021 6.25 3.562 C6.827 4.367 7.405 5.171 8 6 C5.333 4.667 2.667 3.333 0 2 C0 1.34 0 0.68 0 0 Z " fill="#1A4C2B" transform="translate(511,641)"/>
<path d="M0 0 C0.33 0.66 0.66 1.32 1 2 C0.67 2.66 0.34 3.32 0 4 C-0.99 3.67 -1.98 3.34 -3 3 C-2.01 2.01 -1.02 1.02 0 0 Z M-7 4 C-6.01 4.33 -5.02 4.66 -4 5 C-5.375 6.5 -5.375 6.5 -7 8 C-7.66 8 -8.32 8 -9 8 C-8.34 6.68 -7.68 5.36 -7 4 Z " fill="#1B4D2B" transform="translate(528,604)"/>
<path d="M0 0 C0.99 0 1.98 0 3 0 C2.67 1.32 2.34 2.64 2 4 C1.01 4 0.02 4 -1 4 C-0.67 2.68 -0.34 1.36 0 0 Z M-3 7 C-2.67 8.32 -2.34 9.64 -2 11 C-2.99 11.495 -2.99 11.495 -4 12 C-3.67 10.35 -3.34 8.7 -3 7 Z " fill="#1B522D" transform="translate(811,432)"/>
<path d="M0 0 C0.99 0.495 0.99 0.495 2 1 C1.01 1.495 1.01 1.495 0 2 C0 1.34 0 0.68 0 0 Z M-2 3 C-2 6 -2 6 -2 6 Z M-4 6 C-3.34 7.32 -2.68 8.64 -2 10 C-2.99 10 -3.98 10 -5 10 C-5.33 9.01 -5.66 8.02 -6 7 C-5.34 6.67 -4.68 6.34 -4 6 Z " fill="#1B4D2C" transform="translate(818,420)"/>
<path d="M0 0 C2.97 0.99 5.94 1.98 9 3 C6.005 3.998 4.827 4.007 1.812 3.562 C0.554 3.377 -0.704 3.191 -2 3 C-1.34 2.67 -0.68 2.34 0 2 C0 1.34 0 0.68 0 0 Z " fill="#174325" transform="translate(872,401)"/>
<path d="M0 0 C1.32 0.66 2.64 1.32 4 2 C3.67 2.66 3.34 3.32 3 4 C1.68 3.01 0.36 2.02 -1 1 C-0.67 0.67 -0.34 0.34 0 0 Z M7 7 C7.99 7.99 8.98 8.98 10 10 C9.01 10.495 9.01 10.495 8 11 C7.67 9.68 7.34 8.36 7 7 Z " fill="#1B522D" transform="translate(921,389)"/>
<path d="M0 0 C2.475 0.99 2.475 0.99 5 2 C4.01 2.495 4.01 2.495 3 3 C2.01 2.67 1.02 2.34 0 2 C0 1.34 0 0.68 0 0 Z M5 3 C7.375 3.312 7.375 3.312 10 4 C10.66 4.99 11.32 5.98 12 7 C9.085 5.926 7.222 5.222 5 3 Z " fill="#184F2B" transform="translate(897,374)"/>
<path d="M0 0 C0.784 0.041 1.567 0.082 2.375 0.125 C2.375 1.115 2.375 2.105 2.375 3.125 C0.562 3.75 0.562 3.75 -1.625 4.125 C-2.615 3.465 -3.605 2.805 -4.625 2.125 C-2.625 0.125 -2.625 0.125 0 0 Z M-8.625 3.125 C-4.625 4.125 -4.625 4.125 -4.625 4.125 Z " fill="#1B4C2B" transform="translate(847.625,366.875)"/>
<path d="M0 0 C-6.75 4 -6.75 4 -9 4 C-9 3.01 -9 2.02 -9 1 C-5.574 -0.618 -3.619 -1.341 0 0 Z " fill="#1F4B2D" transform="translate(850,403)"/>
<path d="M0 0 C0.99 0.33 1.98 0.66 3 1 C1.68 1.33 0.36 1.66 -1 2 C-0.67 1.34 -0.34 0.68 0 0 Z M-5 1 C-3.68 1.66 -2.36 2.32 -1 3 C-2.65 3.66 -4.3 4.32 -6 5 C-5.67 3.68 -5.34 2.36 -5 1 Z " fill="#1A4A29" transform="translate(805,641)"/>
<path d="M0 0 C0.66 0.33 1.32 0.66 2 1 C-0.64 2.98 -3.28 4.96 -6 7 C-6 5.68 -6 4.36 -6 3 C-4.035 1.932 -2.031 0.934 0 0 Z " fill="#4A7253" transform="translate(291,439)"/>
<path d="M0 0 C0.99 0.33 1.98 0.66 3 1 C2.67 2.32 2.34 3.64 2 5 C0.68 4.67 -0.64 4.34 -2 4 C-2 3.34 -2 2.68 -2 2 C-1.34 2 -0.68 2 0 2 C0 1.34 0 0.68 0 0 Z " fill="#214A2D" transform="translate(642,425)"/>
<path d="M0 0 C3.821 0.531 6.062 1.497 9 4 C7.68 4.33 6.36 4.66 5 5 C4.67 4.34 4.34 3.68 4 3 C1.983 1.866 1.983 1.866 0 1 C0 0.67 0 0.34 0 0 Z " fill="#174D2A" transform="translate(307,666)"/>
<path d="M0 0 C0.66 0 1.32 0 2 0 C2 1.65 2 3.3 2 5 C1.01 4.34 0.02 3.68 -1 3 C-0.67 2.01 -0.34 1.02 0 0 Z M2 5 C3.98 5.99 3.98 5.99 6 7 C5.01 7 4.02 7 3 7 C2.67 6.34 2.34 5.68 2 5 Z " fill="#102D17" transform="translate(902,642)"/>
<path d="M0 0 C2.97 0.33 5.94 0.66 9 1 C8.67 1.99 8.34 2.98 8 4 C5.028 2.875 2.666 1.777 0 0 Z " fill="#184828" transform="translate(226,648)"/>
<path d="M0 0 C2.64 0.33 5.28 0.66 8 1 C8 1.99 8 2.98 8 4 C6.35 3.67 4.7 3.34 3 3 C3 2.34 3 1.68 3 1 C2.01 0.67 1.02 0.34 0 0 Z " fill="#1E4A2C" transform="translate(216,646)"/>
<path d="M0 0 C0.66 0.33 1.32 0.66 2 1 C0.68 2.32 -0.64 3.64 -2 5 C-2.66 4.67 -3.32 4.34 -4 4 C-2.68 2.68 -1.36 1.36 0 0 Z M-6 5 C-5.34 5.33 -4.68 5.66 -4 6 C-4.99 6 -5.98 6 -7 6 C-6.67 5.67 -6.34 5.34 -6 5 Z " fill="#07260F" transform="translate(809,636)"/>
<path d="M0 0 C0.99 0.99 1.98 1.98 3 3 C1.68 2.34 0.36 1.68 -1 1 C-0.67 0.67 -0.34 0.34 0 0 Z M6 2 C6.66 2.99 7.32 3.98 8 5 C7.01 5.495 7.01 5.495 6 6 C5.01 5.01 4.02 4.02 3 3 C3.99 2.67 4.98 2.34 6 2 Z " fill="#184F2B" transform="translate(914,615)"/>
<path d="M0 0 C-1.98 0.99 -1.98 0.99 -4 2 C-3.67 2.66 -3.34 3.32 -3 4 C-4.32 3.34 -5.64 2.68 -7 2 C-5.266 -1.468 -3.41 -1.137 0 0 Z " fill="#1A3B23" transform="translate(150,614)"/>
<path d="M0 0 C0.66 0.33 1.32 0.66 2 1 C0.68 2.65 -0.64 4.3 -2 6 C-2.99 5.67 -3.98 5.34 -5 5 C-3.35 3.35 -1.7 1.7 0 0 Z " fill="#0D2B15" transform="translate(491,605)"/>
<path d="M0 0 C3 1 3 1 3 1 Z M-5 1 C-4.01 1.33 -3.02 1.66 -2 2 C-2.99 2.495 -2.99 2.495 -4 3 C-4.33 3.66 -4.66 4.32 -5 5 C-5.66 4.34 -6.32 3.68 -7 3 C-6.34 2.34 -5.68 1.68 -5 1 Z M-2 1 C0 2 0 2 0 2 Z " fill="#174D2A" transform="translate(894,552)"/>
<path d="M0 0 C0.99 0.495 0.99 0.495 2 1 C1.67 1.66 1.34 2.32 1 3 C0.67 2.01 0.34 1.02 0 0 Z M2 3 C2.99 3 3.98 3 5 3 C5 4.65 5 6.3 5 8 C3.5 6.625 3.5 6.625 2 5 C2 4.34 2 3.68 2 3 Z " fill="#1D4F2D" transform="translate(813,497)"/>
<path d="M0 0 C2.475 0.495 2.475 0.495 5 1 C5.33 2.32 5.66 3.64 6 5 C3.562 4.188 3.562 4.188 1 3 C0.67 2.01 0.34 1.02 0 0 Z " fill="#143E21" transform="translate(805,597)"/>
<path d="M0 0 C2.188 0.312 2.188 0.312 4 1 C4 1.66 4 2.32 4 3 C1.69 3 -0.62 3 -3 3 C-1.75 1.438 -1.75 1.438 0 0 Z " fill="#123A1F" transform="translate(878,556)"/>
<path d="M0 0 C1.32 0.66 2.64 1.32 4 2 C1.03 3.98 1.03 3.98 -2 6 C-2.66 5.67 -3.32 5.34 -4 5 C-2.68 4.34 -1.36 3.68 0 3 C0 2.01 0 1.02 0 0 Z " fill="#1E4F2D" transform="translate(809,380)"/>
<path d="M0 0 C1.65 0.33 3.3 0.66 5 1 C4.67 1.66 4.34 2.32 4 3 C2.35 2.67 0.7 2.34 -1 2 C-0.67 1.34 -0.34 0.68 0 0 Z " fill="#153E21" transform="translate(466,625)"/>
<path d="M0 0 C-0.99 1.485 -0.99 1.485 -2 3 C-3.32 2.67 -4.64 2.34 -6 2 C-6 1.34 -6 0.68 -6 0 C-2.25 -1.125 -2.25 -1.125 0 0 Z " fill="#10311A" transform="translate(940,608)"/>
<path d="M0 0 C0.66 0.33 1.32 0.66 2 1 C2 1.99 2 2.98 2 4 C1.01 4.33 0.02 4.66 -1 5 C-1.66 3.68 -2.32 2.36 -3 1 C-2.01 0.67 -1.02 0.34 0 0 Z " fill="#1C4B2B" transform="translate(943,504)"/>
<path d="M0 0 C2.02 0.602 4.021 1.273 6 2 C6.33 2.66 6.66 3.32 7 4 C6.01 4.33 5.02 4.66 4 5 C2.68 3.35 1.36 1.7 0 0 Z " fill="#446C4D" transform="translate(163,442)"/>
<path d="M0 0 C0.99 0.33 1.98 0.66 3 1 C3 1.66 3 2.32 3 3 C1.35 3.33 -0.3 3.66 -2 4 C-1.34 2.68 -0.68 1.36 0 0 Z " fill="#214B2E" transform="translate(923,427)"/>
<path d="M0 0 C0.66 0.66 1.32 1.32 2 2 C1.34 2 0.68 2 0 2 C-0.33 2.99 -0.66 3.98 -1 5 C-1.99 4.67 -2.98 4.34 -4 4 C-2.68 2.68 -1.36 1.36 0 0 Z " fill="#204A2D" transform="translate(657,649)"/>
<path d="M0 0 C2.97 0.495 2.97 0.495 6 1 C4 3 4 3 1.375 3.125 C0.591 3.084 -0.192 3.043 -1 3 C-0.67 2.01 -0.34 1.02 0 0 Z " fill="#184828" transform="translate(875,522)"/>
<path d="M0 0 C2.64 0.33 5.28 0.66 8 1 C6.02 1.99 6.02 1.99 4 3 C2.68 2.01 1.36 1.02 0 0 Z " fill="#1A522D" transform="translate(916,500)"/>
<path d="M0 0 C0.66 1.32 1.32 2.64 2 4 C1.01 4 0.02 4 -1 4 C-1.33 4.99 -1.66 5.98 -2 7 C-2.33 6.34 -2.66 5.68 -3 5 C-1.562 2.375 -1.562 2.375 0 0 Z " fill="#1C4B2B" transform="translate(728,454)"/>
<path d="M0 0 C0 0.99 0 1.98 0 3 C-1.65 3.33 -3.3 3.66 -5 4 C-3.366 2.292 -2.131 1.065 0 0 Z " fill="#184E2B" transform="translate(485,648)"/>
<path d="M0 0 C1.32 0.99 2.64 1.98 4 3 C3.67 3.99 3.34 4.98 3 6 C0 2.25 0 2.25 0 0 Z " fill="#194F2B" transform="translate(868,636)"/>
<path d="M0 0 C0.33 0.99 0.66 1.98 1 3 C-0.32 3.99 -1.64 4.98 -3 6 C-1.125 1.125 -1.125 1.125 0 0 Z " fill="#1D532D" transform="translate(819,637)"/>
<path d="M0 0 C0.66 0.33 1.32 0.66 2 1 C1.01 2.485 1.01 2.485 0 4 C-0.66 4 -1.32 4 -2 4 C-1.34 2.68 -0.68 1.36 0 0 Z " fill="#1A522D" transform="translate(516,603)"/>
<path d="M0 0 C1.32 1.32 2.64 2.64 4 4 C3.01 4 2.02 4 1 4 C0.67 2.68 0.34 1.36 0 0 Z " fill="#184B29" transform="translate(779,511)"/>
<path d="M0 0 C1.938 0.812 1.938 0.812 4 2 C4.33 2.99 4.66 3.98 5 5 C2 4 2 4 0.812 1.938 C0.41 0.978 0.41 0.978 0 0 Z " fill="#17371F" transform="translate(780,636)"/>
<path d="M0 0 C0.99 0.33 1.98 0.66 3 1 C3 1.66 3 2.32 3 3 C1.35 2.67 -0.3 2.34 -2 2 C-1.34 1.34 -0.68 0.68 0 0 Z " fill="#214F2E" transform="translate(482,621)"/>
<path d="M0 0 C1.32 1.32 2.64 2.64 4 4 C3.01 4.495 3.01 4.495 2 5 C2 4.34 2 3.68 2 3 C1.01 2.67 0.02 2.34 -1 2 C-0.67 1.34 -0.34 0.68 0 0 Z " fill="#184527" transform="translate(523,648)"/>
<path d="M0 0 C0.99 0 1.98 0 3 0 C3 0.66 3 1.32 3 2 C1.68 2.33 0.36 2.66 -1 3 C-0.67 2.01 -0.34 1.02 0 0 Z " fill="#164A28" transform="translate(546,648)"/>
<path d="M0 0 C2.475 0.495 2.475 0.495 5 1 C4.01 2.485 4.01 2.485 3 4 C1 2 1 2 0 0 Z " fill="#1D4B2B" transform="translate(848,613)"/>
<path d="M0 0 C2.475 0.99 2.475 0.99 5 2 C3.68 2.33 2.36 2.66 1 3 C0.67 2.01 0.34 1.02 0 0 Z " fill="#1C532E" transform="translate(831,517)"/>
<path d="M0 0 C0.99 0 1.98 0 3 0 C2.67 1.32 2.34 2.64 2 4 C1.01 3.67 0.02 3.34 -1 3 C-0.67 2.01 -0.34 1.02 0 0 Z " fill="#1E4228" transform="translate(811,432)"/>
<path d="M0 0 C0.33 1.32 0.66 2.64 1 4 C0.01 3.67 -0.98 3.34 -2 3 C-2 2.34 -2 1.68 -2 1 C-1.34 0.67 -0.68 0.34 0 0 Z " fill="#1B4528" transform="translate(662,634)"/>
<path d="M0 0 C0.66 1.32 1.32 2.64 2 4 C1.01 4.33 0.02 4.66 -1 5 C-0.67 3.35 -0.34 1.7 0 0 Z " fill="#134625" transform="translate(878,629)"/>
<path d="M0 0 C0.99 0.33 1.98 0.66 3 1 C2.67 1.99 2.34 2.98 2 4 C1.34 3.67 0.68 3.34 0 3 C0 2.01 0 1.02 0 0 Z " fill="#1F4628" transform="translate(860,612)"/>
<path d="M0 0 C0.66 0.66 1.32 1.32 2 2 C1.67 2.66 1.34 3.32 1 4 C0.01 3.67 -0.98 3.34 -2 3 C-2 2.34 -2 1.68 -2 1 C-1.34 0.67 -0.68 0.34 0 0 Z " fill="#18502C" transform="translate(614,524)"/>
<path d="M0 0 C0.66 0 1.32 0 2 0 C1.67 1.65 1.34 3.3 1 5 C0.34 3.68 -0.32 2.36 -1 1 C-0.67 0.67 -0.34 0.34 0 0 Z " fill="#194828" transform="translate(734,402)"/>
<path d="M0 0 C1.32 0.33 2.64 0.66 4 1 C4 1.66 4 2.32 4 3 C2.68 2.67 1.36 2.34 0 2 C0 1.34 0 0.68 0 0 Z " fill="#1B3923" transform="translate(686,402)"/>
<path d="M0 0 C1.32 0.33 2.64 0.66 4 1 C2.515 1.99 2.515 1.99 1 3 C0.67 2.01 0.34 1.02 0 0 Z " fill="#488A53" transform="translate(168,446)"/>
<path d="M0 0 C0.99 0.33 1.98 0.66 3 1 C2.67 1.66 2.34 2.32 2 3 C1.34 3 0.68 3 0 3 C0 2.01 0 1.02 0 0 Z " fill="#1D4629" transform="translate(317,670)"/>
<path d="M0 0 C1.485 0.99 1.485 0.99 3 2 C1.68 2.33 0.36 2.66 -1 3 C-0.67 2.01 -0.34 1.02 0 0 Z " fill="#184125" transform="translate(313,668)"/>
<path d="M0 0 C0.66 0 1.32 0 2 0 C1.67 0.99 1.34 1.98 1 3 C0.34 2.34 -0.32 1.68 -1 1 C-0.67 0.67 -0.34 0.34 0 0 Z " fill="#355A3E" transform="translate(667,520)"/>
</svg>