<?xml version="1.0" encoding="UTF-8"?>
<svg xmlns="http://www.w3.org/2000/svg" version="1.1" width="1024" height="1024" style="background-color:transparent;">
  <path d="M0 0 C337.92 0 675.84 0 1024 0 C1024 337.92 1024 675.84 1024 1024 C686.08 1024 348.16 1024 0 1024 C0 686.08 0 348.16 0 0 Z " fill="rgba(248, 249, 250)
 " transform="translate(0,0)"/>
  <path d="M0 0 C16.46531226 14.32384642 28.93974993 30.11611957 38.953125 49.48046875 C39.27265137 50.0935791 39.59217773 50.70668945 39.92138672 51.33837891 C43.66548189 58.62497918 46.66717583 66.06619783 49.203125 73.85546875 C49.43733154 74.56098877 49.67153809 75.26650879 49.9128418 75.9934082 C54.31195848 90.19392721 55.50810228 104.39319931 55.390625 119.16796875 C55.38725128 119.9967453 55.38387756 120.82552185 55.38040161 121.67941284 C55.12701154 164.79251622 38.65534813 201.45289564 8.953125 232.48046875 C8.49115723 232.96966797 8.02918945 233.45886719 7.55322266 233.96289062 C-7.52938279 249.88606188 -7.52938279 249.88606188 -14.5703125 250.8125 C-17.44897691 250.42655919 -18.89826614 249.60254956 -21.296875 247.98046875 C-43.47343875 234.09970351 -68.97100883 227.37870783 -94.67578125 223.875 C-97.046875 223.48046875 -97.046875 223.48046875 -99.046875 222.48046875 C-99.85803505 201.2400926 -96.02755838 180.64312018 -89.109375 160.60546875 C-88.88080811 159.93999023 -88.65224121 159.27451172 -88.41674805 158.58886719 C-87.67708995 156.52993587 -86.86440084 154.50965588 -86.046875 152.48046875 C-85.597677 151.17517212 -85.597677 151.17517212 -85.1394043 149.84350586 C-82.48005647 143.16891058 -82.48005647 143.16891058 -78.65405273 141.33105469 C-75.68189872 140.61037448 -72.76955624 140.16595786 -69.734375 139.79296875 C-67.56678084 139.43512815 -65.40134507 139.06396509 -63.23828125 138.6796875 C-62.18141113 138.49196777 -61.12454102 138.30424805 -60.03564453 138.11083984 C-41.15926419 134.12956113 -23.67045419 120.21910459 -13.046875 104.48046875 C-0.39467276 84.03424553 4.84318565 61.12269588 7.953125 37.48046875 C-22.69020601 38.37521764 -53.64154229 40.26776445 -77.046875 62.48046875 C-77.83578125 63.228125 -78.6246875 63.97578125 -79.4375 64.74609375 C-93.45765916 79.14775384 -98.37778676 96.80879802 -98.296875 116.48046875 C-98.24662396 120.14852189 -98.16627305 123.8140301 -98.046875 127.48046875 C-97.73669434 126.8361792 -97.42651367 126.19188965 -97.10693359 125.52807617 C-86.74850935 104.3571867 -70.62739682 88.26223917 -50.046875 76.98046875 C-49.386875 76.61703369 -48.726875 76.25359863 -48.046875 75.87915039 C-46.41308612 75.01439104 -44.73259214 74.23904146 -43.046875 73.48046875 C-42.386875 73.81046875 -41.726875 74.14046875 -41.046875 74.48046875 C-42.29791016 75.49753906 -42.29791016 75.49753906 -43.57421875 76.53515625 C-61.79942554 91.52304443 -74.26229343 110.22473035 -86.046875 130.48046875 C-86.44503418 131.15480957 -86.84319336 131.82915039 -87.25341797 132.52392578 C-94.22593669 144.44883307 -98.75813765 157.0424621 -103.13647461 170.11474609 C-104.046875 172.48046875 -104.046875 172.48046875 -106.046875 175.48046875 C-106.541875 174.32546875 -107.036875 173.17046875 -107.546875 171.98046875 C-115.24782194 154.71413509 -124.22908155 137.99421121 -135.046875 122.48046875 C-135.71807373 121.51173828 -135.71807373 121.51173828 -136.40283203 120.5234375 C-145.03910996 108.07287567 -153.78627028 95.81746022 -164.0625 84.6484375 C-166.48788056 81.9986615 -168.77662029 79.26336162 -171.046875 76.48046875 C-151.64980663 82.06798248 -134.69540968 102.4249061 -124.046875 118.48046875 C-123.61117187 119.12757813 -123.17546875 119.7746875 -122.7265625 120.44140625 C-121.82597096 121.7828468 -120.93489742 123.13067467 -120.046875 124.48046875 C-119.2156583 107.57906251 -122.10790479 91.19854134 -133.421875 78.16796875 C-134.94205353 76.58455484 -136.48273051 75.02046693 -138.046875 73.48046875 C-138.68496094 72.84367187 -139.32304687 72.206875 -139.98046875 71.55078125 C-158.85766327 53.89020426 -184.33622724 50.38756848 -209.046875 49.48046875 C-203.74482054 74.81610488 -197.87157052 97.65577323 -179.046875 116.48046875 C-178.41136719 117.11597656 -177.77585937 117.75148438 -177.12109375 118.40625 C-166.35894411 128.45537938 -152.37284222 134.25394001 -138.16796875 137.51171875 C-130.45256078 141.03551466 -126.13676677 154.2042558 -123.14501953 161.75732422 C-115.86779646 181.42560843 -112.50580899 201.55924951 -113.046875 222.48046875 C-113.67440674 222.52534424 -114.30193848 222.57021973 -114.94848633 222.61645508 C-145.5499289 224.85463327 -172.04987459 230.70990716 -200.046875 243.48046875 C-232.22529027 221.59914637 -250.29304762 183.99746803 -257.64550781 146.89477539 C-264.30491192 106.83708241 -256.25203381 64.11159867 -232.81494141 30.72558594 C-227.37893369 23.22955027 -221.40447182 16.21071334 -215.046875 9.48046875 C-214.35207031 8.7328125 -213.65726563 7.98515625 -212.94140625 7.21484375 C-156.63803895 -51.44731672 -60.53484871 -51.31736345 0 0 Z " fill="#338C44" transform="translate(334.046875,365.51953125)"/>
  <path d="M0 0 C10.81669109 9.50376858 18.49685366 21.41510408 21.83203125 35.48828125 C14.44975213 38.54869882 6.97692473 41.21859357 -0.60546875 43.73828125 C-1.67990234 44.10179687 -2.75433594 44.4653125 -3.86132812 44.83984375 C-4.88935547 45.18273437 -5.91738281 45.525625 -6.9765625 45.87890625 C-7.90267334 46.18860352 -8.82878418 46.49830078 -9.78295898 46.81738281 C-12.16796875 47.48828125 -12.16796875 47.48828125 -15.16796875 47.48828125 C-15.51988281 46.78703125 -15.87179687 46.08578125 -16.234375 45.36328125 C-22.70081361 32.93691357 -30.8150396 23.81858038 -44.35546875 19.11328125 C-59.41517658 14.63555364 -73.77689181 15.55762234 -87.85546875 22.61328125 C-102.08191383 30.70616917 -109.46721245 43.08262409 -113.74536133 58.57983398 C-115.06365895 63.98291469 -115.51967478 69.12351496 -115.48046875 74.67578125 C-115.4762793 75.49804199 -115.47208984 76.32030273 -115.46777344 77.16748047 C-115.17234346 93.33755752 -110.0549703 108.57585644 -99.13671875 120.75390625 C-87.60240983 131.70314153 -73.23302968 135.86424055 -57.640625 135.703125 C-42.85877602 134.78861241 -31.30140529 129.17132791 -21.16796875 118.48828125 C-19.42650647 116.04731947 -17.75841832 113.62065249 -16.2265625 111.04296875 C-14.16796875 109.48828125 -14.16796875 109.48828125 -10.296875 109.56640625 C-8.58172191 109.84123583 -6.872287 110.15275074 -5.16796875 110.48828125 C-4.12825928 110.69018066 -3.0885498 110.89208008 -2.01733398 111.10009766 C1.44387417 111.8094866 4.8871559 112.5786152 8.33203125 113.36328125 C9.523125 113.61980469 10.71421875 113.87632812 11.94140625 114.140625 C13.070625 114.39714844 14.19984375 114.65367187 15.36328125 114.91796875 C16.39001953 115.14726074 17.41675781 115.37655273 18.47460938 115.61279297 C19.6415332 116.04615967 19.6415332 116.04615967 20.83203125 116.48828125 C22.06663487 120.1920921 21.13859939 121.54190089 19.48242188 124.93359375 C19.12341797 125.63226562 18.76441406 126.3309375 18.39453125 127.05078125 C18.02908203 127.76878906 17.66363281 128.48679687 17.28710938 129.2265625 C14.12455068 135.25874992 10.43605101 140.45661539 5.83203125 145.48828125 C5.24164062 146.17019531 4.65125 146.85210938 4.04296875 147.5546875 C-9.25869747 162.01671184 -30.95786248 171.60305023 -50.40917969 172.6652832 C-81.14130627 173.20440564 -105.93408395 169.68243971 -129.16796875 147.48828125 C-129.78285156 146.94816406 -130.39773438 146.40804687 -131.03125 145.8515625 C-146.04097528 132.15303162 -154.08307366 110.28485654 -156.16796875 90.48828125 C-157.46905157 58.98622892 -153.45534848 31.8898468 -132.16796875 7.48828125 C-131.37326172 6.56789063 -131.37326172 6.56789063 -130.5625 5.62890625 C-97.6473536 -29.80567111 -36.11695167 -29.96563219 0 0 Z " fill="#0A4B22" transform="translate(923.16796875,387.51171875)"/>
  <path d="M0 0 C10.38663558 8.86966049 18.23635816 21.32619155 19.37646484 35.21240234 C20.13651506 58.08300442 14.34520509 74.45171747 -0.81640625 91.86328125 C-1.57050781 92.75144531 -2.32460938 93.63960938 -3.1015625 94.5546875 C-7.12416117 99.21973387 -7.12416117 99.21973387 -8.81640625 100.86328125 C-9.47640625 100.86328125 -10.13640625 100.86328125 -10.81640625 100.86328125 C-10.81640625 101.52328125 -10.81640625 102.18328125 -10.81640625 102.86328125 C-12.19726562 104.22070312 -12.19726562 104.22070312 -14.16015625 105.83203125 C-19.51189077 110.38289 -24.38736425 115.36352128 -29.31640625 120.36328125 C-34.80751934 125.93317645 -40.28173105 131.43283023 -46.24023438 136.50585938 C-47.47918134 137.57285831 -48.66023232 138.70710732 -49.81640625 139.86328125 C-15.16640625 140.35828125 -15.16640625 140.35828125 20.18359375 140.86328125 C20.18359375 152.74328125 20.18359375 164.62328125 20.18359375 176.86328125 C-22.71640625 176.86328125 -65.61640625 176.86328125 -109.81640625 176.86328125 C-109.81640625 144.86328125 -109.81640625 144.86328125 -104.25390625 137.80078125 C-102.14776353 136.42549227 -100.00427301 135.10444843 -97.81640625 133.86328125 C-95.75615195 132.01179506 -95.75615195 132.01179506 -94.06640625 130.11328125 C-91.89248356 127.90312651 -89.66556611 125.82366891 -87.31640625 123.80078125 C-83.20407324 120.25178153 -79.22612462 116.56727752 -75.25390625 112.86328125 C-74.62871094 112.2818335 -74.00351562 111.70038574 -73.359375 111.10131836 C-69.64334373 107.62778545 -66.01087608 104.08867919 -62.44628906 100.4597168 C-60.73507987 98.78362379 -58.95499121 97.22526321 -57.12890625 95.67578125 C-52.93344607 92.06915759 -49.06539998 88.17151764 -45.2043457 84.21411133 C-42.79395978 81.76175653 -40.39448115 79.51515293 -37.734375 77.3203125 C-29.05741238 70.01400797 -20.63091978 59.21452309 -19.61328125 47.53125 C-19.47085077 39.99430354 -20.9682765 33.99135787 -26.19921875 28.21875 C-32.61981315 22.8372373 -40.39567462 22.21740603 -48.48046875 22.48046875 C-56.14011384 23.35944442 -62.78562222 27.00205679 -67.81640625 32.86328125 C-71.31405499 38.27093633 -73.89201568 43.71968694 -75.81640625 49.86328125 C-88.50014464 48.31869993 -101.15908253 46.60996392 -113.81640625 44.86328125 C-112.4722686 28.35190365 -104.66923496 14.27355304 -92.81640625 2.86328125 C-67.5660736 -18.38908207 -26.38396253 -20.0166817 0 0 Z " fill="#094A21" transform="translate(719.81640625,380.13671875)"/>
  <path d="M0 0 C43.23 0 86.46 0 131 0 C131 11.88 131 23.76 131 36 C101.3 36 71.6 36 41 36 C41 49.53 41 63.06 41 77 C66.41 77 91.82 77 118 77 C118 89.21 118 101.42 118 114 C92.59 114 67.18 114 41 114 C41 137.43 41 160.86 41 185 C27.47 185 13.94 185 0 185 C0 123.95 0 62.9 0 0 Z " fill="#0B4A22" transform="translate(455,372)"/>
  <path d="M0 0 C0.74507812 0.68449219 1.49015625 1.36898437 2.2578125 2.07421875 C3.49917969 3.17830078 3.49917969 3.17830078 4.765625 4.3046875 C19.09993431 17.74036274 27.69715494 35.66712989 30.2578125 55.07421875 C30.29871304 57.07380049 30.3126699 59.07497123 30.2578125 61.07421875 C26.2578125 56.07421875 26.2578125 56.07421875 24.40625 53.609375 C5.5359658 31.34243965 -40.31444274 28.62237403 -67.52084351 23.30145264 C-102.70275529 16.40192625 -139.11758123 7.85706864 -167.7421875 -14.92578125 C-166.7421875 -16.92578125 -166.7421875 -16.92578125 -163.8125 -18.07421875 C-162.50099235 -18.49446675 -161.18549457 -18.90237548 -159.8671875 -19.30078125 C-159.15393311 -19.51774658 -158.44067871 -19.73471191 -157.70581055 -19.95825195 C-109.3619182 -34.24226905 -40.54670061 -34.98011967 0 0 Z " fill="#094920" transform="translate(310.7421875,630.92578125)"/>
  <path d="M0 0 C6.81639114 4.75861268 12.41254588 10.60092459 14 19 C14.73411121 28.50149655 15.08150531 37.0940431 9 45 C1.94085355 52.82411099 -4.30966822 56.02386598 -14.75 56.5625 C-23.04473203 56.3667016 -29.55677042 53.68178903 -35.9375 48.39453125 C-41.73299895 42.29476861 -44.20723483 34.79501328 -44.5 26.5 C-44.20165541 18.04690331 -41.63509759 10.79625008 -35.84765625 4.53515625 C-25.75253952 -3.85254116 -11.84886499 -5.73332177 0 0 Z " fill="#0D4621" transform="translate(550,598)"/>
  <path d="M0 0 C8.54889768 5.37495992 12.91435633 11.77822525 16.09375 21.31640625 C16.98071037 30.05514691 15.62494996 37.36588621 10.48046875 44.578125 C4.94222975 51.22155581 -1.19448067 55.69304056 -9.984375 56.65234375 C-18.80137554 56.7609275 -25.29288748 55.2894621 -32.71875 50.50390625 C-39.10544436 44.11721189 -42.65650224 37.29566155 -43.0390625 28.13671875 C-42.65925776 18.64160037 -40.17744408 11.09019897 -33.21875 4.44140625 C-23.61303973 -3.15338897 -11.2144738 -5.83071373 0 0 Z " fill="#0C4923" transform="translate(808.90625,597.68359375)"/>
  <path d="M0 0 C12 0 12 0 15.55859375 3.0859375 C16.55850475 4.48775221 17.51675317 5.91996332 18.4375 7.375 C18.96045654 8.1270874 19.48341309 8.8791748 20.0222168 9.65405273 C21.13106003 11.2516114 22.2239411 12.86035072 23.30175781 14.47900391 C25.57810906 17.85818778 27.97949403 21.13899579 30.38818359 24.42456055 C32.94785649 27.93347524 35.47024136 31.46945772 38 35 C38.33 23.45 38.66 11.9 39 0 C42.63 0 46.26 0 50 0 C50 18.81 50 37.62 50 57 C40 57 40 57 37.73046875 55.4453125 C37.22128906 54.67960938 36.71210937 53.91390625 36.1875 53.125 C35.55328125 52.22007812 34.9190625 51.31515625 34.265625 50.3828125 C33.91693359 49.85719727 33.56824219 49.33158203 33.20898438 48.79003906 C31.80782583 46.71546425 30.3392271 44.69886739 28.859375 42.6796875 C23.13353269 34.85914462 17.55893019 26.94132884 12 19 C11.67 31.54 11.34 44.08 11 57 C7.37 57 3.74 57 0 57 C0 38.19 0 19.38 0 0 Z " fill="#0B421F" transform="translate(838,596)"/>
  <path d="M0 0 C3.63 0 7.26 0 11 0 C11.01458252 1.05388916 11.02916504 2.10777832 11.04418945 3.19360352 C11.10244945 7.12818213 11.17967904 11.06220493 11.26245117 14.99633789 C11.29557083 16.69448786 11.32364261 18.39274448 11.34643555 20.09106445 C11.38022169 22.54163787 11.43254639 24.99124531 11.48828125 27.44140625 C11.49467117 28.19273331 11.5010611 28.94406036 11.50764465 29.71815491 C11.66707479 35.51908405 12.79151997 40.36681227 16.625 44.9375 C20.37811062 46.61652317 23.96090312 46.5337378 28 46 C30.80360769 44.80697545 32.34574152 43.92042206 34.10302734 41.44824219 C35.4736553 37.70718146 35.35916921 34.03398359 35.4140625 30.078125 C35.43342865 29.21813904 35.4527948 28.35815308 35.4727478 27.47210693 C35.53241814 24.73150479 35.5788786 21.99086036 35.625 19.25 C35.66319134 17.38930483 35.70224375 15.52862712 35.7421875 13.66796875 C35.83810935 9.11212136 35.92218668 4.55619121 36 0 C39.96 0 43.92 0 48 0 C48.07466663 5.24695799 48.12884421 10.49360043 48.16479492 15.7409668 C48.17979643 17.52259719 48.20020433 19.30419119 48.22631836 21.08569336 C48.26308509 23.66008535 48.27981285 26.2339853 48.29296875 28.80859375 C48.30845261 29.59334579 48.32393646 30.37809784 48.33988953 31.18663025 C48.34247975 39.87556662 45.9857066 47.02863131 39.9296875 53.3359375 C33.90521741 58.5311283 27.0644491 58.5374811 19.34765625 58.34765625 C13.10564045 57.6994189 9.61389914 55.57803471 5.1875 51.25 C0.57800537 44.40160797 -0.44245246 38.51705032 -0.29296875 30.46875 C-0.28872391 29.59222778 -0.28447906 28.71570557 -0.28010559 27.81262207 C-0.2634513 25.04142177 -0.22582509 22.27097664 -0.1875 19.5 C-0.17243599 17.60938558 -0.1587506 15.71875964 -0.14648438 13.828125 C-0.11359139 9.21846361 -0.06190255 4.60935938 0 0 Z " fill="#0C4721" transform="translate(625,596)"/>
  <path d="M0 0 C2.50005164 1.39937424 4.28148535 2.59398535 6.3125 4.625 C6.00920231 8.46677074 4.78774576 10.71927672 2.3125 13.625 C-0.38451834 13.08559633 -2.42640199 12.26975866 -4.9375 11.0625 C-9.01469595 9.26993971 -12.26070043 9.25610004 -16.6875 9.625 C-17.6775 10.285 -18.6675 10.945 -19.6875 11.625 C-19.93780977 14.20880177 -19.93780977 14.20880177 -19.6875 16.625 C-14.88805523 19.16588252 -10.19877163 21.16069126 -5.0625 22.9375 C1.4504452 25.37040992 5.21076796 28.42153592 8.3125 34.625 C8.90307744 40.30362925 8.60620905 44.79422672 5.3125 49.625 C-0.20285255 55.01778916 -5.28364682 56.90574072 -12.9375 57 C-20.49506236 56.87058969 -27.2859602 55.29347897 -32.8125 49.875 C-33.43125 49.1325 -34.05 48.39 -34.6875 47.625 C-33.24496343 44.25908134 -31.35485273 42.11452921 -28.6875 39.625 C-26.41940254 40.75904873 -24.271687 41.88868629 -22.125 43.25 C-17.35993843 45.15602463 -12.76748362 45.23906395 -7.6875 44.625 C-6.6975 43.965 -5.7075 43.305 -4.6875 42.625 C-4.43734127 39.04142759 -4.43734127 39.04142759 -4.6875 35.625 C-5.56148437 35.38716797 -5.56148437 35.38716797 -6.453125 35.14453125 C-26.81812857 29.34883055 -26.81812857 29.34883055 -31.6875 21.625 C-33.34776461 16.64420617 -33.28653425 12.32226371 -31.5625 7.4375 C-24.38129848 -3.33430228 -11.34587129 -5.59048019 0 0 Z " fill="#0D4420" transform="translate(935.6875,597.375)"/>
  <path d="M0 0 C2.92005296 1.59667921 5.18604415 3.23463596 7.4375 5.6875 C6.06595496 8.64159701 4.44886276 11.12758376 2.4375 13.6875 C-2.5625 11.6875 -2.5625 11.6875 -4.75 10.5625 C-8.93322826 9.26105121 -13.21547265 9.16431795 -17.5625 9.6875 C-19.84978734 11.52633881 -19.84978734 11.52633881 -19.6875 14.3125 C-19.625625 15.488125 -19.625625 15.488125 -19.5625 16.6875 C-14.59283756 19.37111772 -9.75327388 21.31498514 -4.375 23.0625 C2.28028359 25.36405953 5.27861712 27.36973424 8.4375 33.6875 C9.15660796 40.79605901 8.95142888 46.01615346 4.4375 51.6875 C-2.84813231 57.21511431 -10.72956841 57.43394492 -19.5625 56.6875 C-25.56962619 55.05242423 -30.0378838 51.8640688 -34.5625 47.6875 C-30.8125 41.9375 -30.8125 41.9375 -28.5625 39.6875 C-25.61945423 39.89771755 -24.22249919 40.93477332 -21.8125 42.6875 C-17.98231383 45.04453765 -15.03114993 45.8027628 -10.5625 45.6875 C-7.1809661 44.86906968 -7.1809661 44.86906968 -4.5625 43.6875 C-4.2325 41.7075 -3.9025 39.7275 -3.5625 37.6875 C-7.48150453 34.25588436 -12.01848888 33.11349233 -16.8984375 31.66992188 C-22.39614936 29.95742897 -26.82636023 27.92282584 -30.41015625 23.30859375 C-32.50062637 18.55366003 -32.1694531 13.77073222 -31.5625 8.6875 C-29.11397311 3.20279977 -25.76600266 1.24194676 -20.5625 -1.3125 C-13.65953443 -3.61348852 -6.51943352 -3.19260494 0 0 Z " fill="#0D4521" transform="translate(486.5625,597.3125)"/>
  <path d="M0 0 C5.02701696 3.71999255 7.65823895 7.20099563 9.125 13.3125 C9.6362246 18.83372566 8.91105491 23.51699086 6.125 28.3125 C2.59726439 32.16548783 -0.76354394 34.98068388 -6.109375 35.55078125 C-12.34148207 35.73464776 -15.83245524 35.04398312 -20.875 31.3125 C-26.09611604 25.81658837 -26.29565062 20.72177887 -26.21484375 13.359375 C-25.61403623 7.97282479 -23.32523853 4.50154559 -19.3359375 0.9375 C-13.58934361 -2.98434607 -6.13137213 -3.22357548 0 0 Z " fill="#FBFCFB" transform="translate(543.875,607.6875)"/>
  <path d="M0 0 C4.80637141 2.55856409 7.64831772 5.84431564 10.25 10.52734375 C12.01816534 17.01061665 11.57766909 22.60016505 8.27734375 28.484375 C5.58124289 32.26881016 2.44924858 34.79426089 -2 36.27734375 C-6.96860315 36.79900432 -10.85518979 36.84974885 -15.375 34.58984375 C-21.1561421 29.49693285 -23.6292653 25.10826897 -24.375 17.40234375 C-24.20534241 11.49825953 -21.72895129 6.91984748 -17.5 2.90234375 C-11.87148959 -0.75618802 -6.5923129 -2.38198806 0 0 Z " fill="#FBFDFC" transform="translate(802,606.72265625)"/>
  <path d="M0 0 C15.18 0 30.36 0 46 0 C46 3.63 46 7.26 46 11 C40.39 11 34.78 11 29 11 C29 26.18 29 41.36 29 57 C25.37 57 21.74 57 18 57 C18 41.82 18 26.64 18 11 C12.06 11 6.12 11 0 11 C0 7.37 0 3.74 0 0 Z " fill="#0B431F" transform="translate(683,596)"/>
  <path d="M0 0 C3.96 0 7.92 0 12 0 C12 15.18 12 30.36 12 46 C20.58 46 29.16 46 38 46 C38 49.63 38 53.26 38 57 C25.46 57 12.92 57 0 57 C0 38.19 0 19.38 0 0 Z " fill="#0A4E22" transform="translate(577,596)"/>
  <path d="M0 0 C3.63 0 7.26 0 11 0 C11 18.81 11 37.62 11 57 C7.37 57 3.74 57 0 57 C0 38.19 0 19.38 0 0 Z " fill="#0B431F" transform="translate(741,596)"/>
  <path d="M0 0 C3.96 0 7.92 0 12 0 C12.02476651 5.32022769 12.04289156 10.64042162 12.05493164 15.96069336 C12.05995238 17.76961858 12.06677029 19.57853976 12.07543945 21.38745117 C12.08760402 23.99138386 12.09325098 26.59526277 12.09765625 29.19921875 C12.10281754 30.00461594 12.10797882 30.81001312 12.11329651 31.63981628 C12.1142941 41.68310697 12.1142941 41.68310697 9.625 44.625 C9.08875 45.07875 8.5525 45.5325 8 46 C7.443125 46.556875 6.88625 47.11375 6.3125 47.6875 C5.879375 48.120625 5.44625 48.55375 5 49 C5 48.34 5 47.68 5 47 C2.64561267 45.57055055 1.51967567 44.91338739 -1.25 45.375 C-1.8275 45.58125 -2.405 45.7875 -3 46 C-2.67854004 45.37005127 -2.35708008 44.74010254 -2.02587891 44.09106445 C-0.62879113 39.88151464 -0.64441048 35.95212204 -0.5859375 31.54296875 C-0.56657135 30.64000565 -0.5472052 29.73704254 -0.5272522 28.80671692 C-0.46765918 25.93373953 -0.42115231 23.06072163 -0.375 20.1875 C-0.33680155 18.23500895 -0.29774873 16.28253441 -0.2578125 14.33007812 C-0.16197431 9.55352016 -0.07786848 4.77688333 0 0 Z " fill="#0E4E26" transform="translate(661,596)"/>
  <path d="M0 0 C3.63 0 7.26 0 11 0 C10.67 14.85 10.34 29.7 10 45 C9.67 45 9.34 45 9 45 C8.67 31.47 8.34 17.94 8 4 C6.35 3.67 4.7 3.34 3 3 C3 20.16 3 37.32 3 55 C4.485 54.505 4.485 54.505 6 54 C7.67235088 54.3035316 9.3385653 54.64149808 11 55 C13.05633365 55.14291188 15.11571192 55.24536938 17.17578125 55.31640625 C18.33271484 55.35830078 19.48964844 55.40019531 20.68164062 55.44335938 C22.47891602 55.50233398 22.47891602 55.50233398 24.3125 55.5625 C25.53001953 55.60568359 26.74753906 55.64886719 28.00195312 55.69335938 C31.0011947 55.79921496 34.00051591 55.90129726 37 56 C37 53.03 37 50.06 37 47 C35.68 46.67 34.36 46.34 33 46 C34.65 46 36.3 46 38 46 C38 49.63 38 53.26 38 57 C25.46 57 12.92 57 0 57 C0 38.19 0 19.38 0 0 Z " fill="#23482F" transform="translate(577,596)"/>
  <path d="M0 0 C0.495 1.485 0.495 1.485 1 3 C0.67 3.66 0.34 4.32 0 5 C0.66 5.33 1.32 5.66 2 6 C-4.16255268 13.51175061 -9.97335563 19.23313272 -20.078125 20.3359375 C-27.30856785 20.42498236 -33.73857196 19.91641445 -40 16 C-41.7734375 13.859375 -41.7734375 13.859375 -43 12 C-42.505 12.268125 -42.01 12.53625 -41.5 12.8125 C-30.70404494 17.94057866 -21.53121252 18.07499 -10 15 C-11.98 15.33 -13.96 15.66 -16 16 C-16.33 15.01 -16.66 14.02 -17 13 C-16.195625 12.731875 -15.39125 12.46375 -14.5625 12.1875 C-13.716875 11.795625 -12.87125 11.40375 -12 11 C-11.67 10.01 -11.34 9.02 -11 8 C-13.31 8.33 -15.62 8.66 -18 9 C-17.2575 8.4225 -16.515 7.845 -15.75 7.25 C-13.01843558 5.11356926 -13.01843558 5.11356926 -10.9375 2.8125 C-7.59319404 -0.31604428 -4.42981535 -0.12305043 0 0 Z " fill="#0A4A23" transform="translate(819,634)"/>
  <path d="M0 0 C0.33 0 0.66 0 1 0 C1 15.18 1 30.36 1 46 C7.93 46 14.86 46 22 46 C23.32 46.33 24.64 46.66 26 47 C26 49.97 26 52.94 26 56 C17.42 56 8.84 56 0 56 C0 55.67 0 55.34 0 55 C8.02332397 54.09958689 15.92970447 53.88452677 24 54 C24.33 52.35 24.66 50.7 25 49 C24.28344238 49.01571045 23.56688477 49.0314209 22.82861328 49.04760742 C19.59415524 49.10981863 16.35982281 49.14894649 13.125 49.1875 C11.99707031 49.21263672 10.86914062 49.23777344 9.70703125 49.26367188 C8.09248047 49.27817383 8.09248047 49.27817383 6.4453125 49.29296875 C4.95281982 49.31653442 4.95281982 49.31653442 3.43017578 49.34057617 C2.22723877 49.17199097 2.22723877 49.17199097 1 49 C-1.0814669 45.87779965 -1.24948668 45.1956216 -1.24291992 41.65209961 C-1.24599655 40.7778685 -1.24907318 39.90363739 -1.25224304 39.00291443 C-1.24505753 38.0622261 -1.23787201 37.12153778 -1.23046875 36.15234375 C-1.23001053 35.18470596 -1.22955231 34.21706818 -1.2290802 33.22010803 C-1.22605931 31.17496514 -1.21817788 29.12982452 -1.20581055 27.0847168 C-1.1875516 23.94636936 -1.1853009 20.80831689 -1.18554688 17.66992188 C-1.18063173 15.68489327 -1.17480342 13.69986667 -1.16796875 11.71484375 C-1.16685593 10.7721312 -1.1657431 9.82941864 -1.16459656 8.85813904 C-1.15502678 7.55152061 -1.15502678 7.55152061 -1.14526367 6.21850586 C-1.14145187 5.45034042 -1.13764008 4.68217499 -1.13371277 3.89073181 C-1 2 -1 2 0 0 Z " fill="#143F25" transform="translate(588,596)"/>
  <path d="M0 0 C3.96 0 7.92 0 12 0 C12.04941382 5.35683849 12.08572607 10.7135445 12.10986328 16.07055664 C12.11992491 17.89317129 12.1335756 19.71576979 12.15087891 21.53833008 C12.17512021 24.15710435 12.18648138 26.77566531 12.1953125 29.39453125 C12.20563507 30.21025101 12.21595764 31.02597076 12.22659302 31.8664093 C12.2273686 35.77130756 12.21650661 37.67524008 10 41 C10 28.13 10 15.26 10 2 C7.36 2 4.72 2 2 2 C2.01047363 3.04454346 2.02094727 4.08908691 2.03173828 5.1652832 C2.06793172 9.03976007 2.09089805 12.91422199 2.10986328 16.78881836 C2.11992237 18.46592725 2.13357122 20.14301861 2.15087891 21.82006836 C2.17513152 24.23035002 2.1864839 26.64039986 2.1953125 29.05078125 C2.20563507 29.80087967 2.21595764 30.55097809 2.22659302 31.32380676 C2.227408 35.10300779 2.15057067 36.77414399 0 40 C0 26.8 0 13.6 0 0 Z " fill="#22412B" transform="translate(661,596)"/>
  <path d="M0 0 C0.66 0 1.32 0 2 0 C1.67 1.65 1.34 3.3 1 5 C1 13.58 1 22.16 1 31 C63.37 31.495 63.37 31.495 127 32 C127 32.33 127 32.66 127 33 C84.76 33 42.52 33 -1 33 C-1.33 22.77 -1.66 12.54 -2 2 C-1.34 1.34 -0.68 0.68 0 0 Z " fill="#194C2D" transform="translate(612,523)"/>
  <path d="M0 0 C-0.99 0.495 -0.99 0.495 -2 1 C-2 1.66 -2 2.32 -2 3 C-5.465 4.485 -5.465 4.485 -9 6 C-7.95681897 7.67395328 -7.95681897 7.67395328 -6 9 C-2.624829 9.06820939 -2.624829 9.06820939 1.0625 8.5625 C4.84765625 8.12890625 4.84765625 8.12890625 8 8 C8.66 8.66 9.32 9.32 10 10 C8.948125 10.02126953 8.948125 10.02126953 7.875 10.04296875 C-0.85596887 10.48188974 -5.86002452 12.86002452 -12 19 C-12 16.03 -12 13.06 -12 10 C-12.99 10.99 -13.98 11.98 -15 13 C-16.32 13 -17.64 13 -19 13 C-19.99 14.98 -20.98 16.96 -22 19 C-23 16 -23 16 -22.1015625 13.94921875 C-16.85057596 5.90604095 -10.03852129 -0.27131139 0 0 Z " fill="#103B1E" transform="translate(531,596)"/>
  <path d="M0 0 C1.67299959 0.65061095 3.33859237 1.32033324 5 2 C6.0828125 2.3403125 6.0828125 2.3403125 7.1875 2.6875 C10.05789866 4.76606455 10.16724394 7.66897574 11 11 C11.66 11.66 12.32 12.32 13 13 C-0.95460358 11.82161125 -0.95460358 11.82161125 -6 6 C-5 3 -5 3 -3 1.875 C-2.34 1.58625 -1.68 1.2975 -1 1 C-0.67 0.67 -0.34 0.34 0 0 Z " fill="#0E4A24" transform="translate(907,639)"/>
  <path d="M0 0 C3.63 0 7.26 0 11 0 C11 12.21 11 24.42 11 37 C10.67 37 10.34 37 10 37 C10 25.45 10 13.9 10 2 C7.36 2 4.72 2 2 2 C2.01047363 3.01425049 2.02094727 4.02850098 2.03173828 5.07348633 C2.06793589 8.83614574 2.09089956 12.59878976 2.10986328 16.36157227 C2.11992142 17.99017932 2.13356958 19.61876832 2.15087891 21.24731445 C2.17513574 23.58809872 2.18648483 25.92864424 2.1953125 28.26953125 C2.20563507 28.99775589 2.21595764 29.72598053 2.22659302 30.47627258 C2.22742249 34.21275069 2.12883296 35.80675056 0 39 C0 26.13 0 13.26 0 0 Z " fill="#07250F" transform="translate(625,596)"/>
  <path d="M0 0 C4.77704806 1.34534335 8.50525685 3.44216792 12.5 6.3125 C13.04269531 6.69083984 13.58539063 7.06917969 14.14453125 7.45898438 C17.92658896 10.12628283 21.47576452 13.00121529 25 16 C24.34 16.99 23.68 17.98 23 19 C20.375 19.1875 20.375 19.1875 18 19 C18 18.34 18 17.68 18 17 C17.43152344 16.93167969 16.86304688 16.86335938 16.27734375 16.79296875 C13.11088867 15.69041235 11.7406417 13.83793639 9.5625 11.3125 C8.78132812 10.41402344 8.00015625 9.51554687 7.1953125 8.58984375 C6.47085938 7.73519531 5.74640625 6.88054687 5 6 C4.16082031 5.01193359 4.16082031 5.01193359 3.3046875 4.00390625 C2.1921541 2.67840217 1.09390651 1.34091766 0 0 Z " fill="#3F8E4B" transform="translate(163,442)"/>
  <path d="M0 0 C0.66 0 1.32 0 2 0 C1.731875 0.65484375 1.46375 1.3096875 1.1875 1.984375 C-5.11841861 17.99808935 -9.23716493 32.7438006 -9.0625 50.0625 C-9.05798828 50.92810547 -9.05347656 51.79371094 -9.04882812 52.68554688 C-9.03719913 54.79039539 -9.01927073 56.89520758 -9 59 C-8.67 59 -8.34 59 -8 59 C-8 64.61 -8 70.22 -8 76 C-15.72084491 60.55831018 -12.51611946 33.80714369 -7.30126953 17.86376953 C-5.21456536 11.77655157 -3.00858038 5.7004681 0 0 Z " fill="#123019" transform="translate(778,413)"/>
  <path d="M0 0 C0.99 0.33 1.98 0.66 3 1 C3 1.99 3 2.98 3 4 C4.9375006 6.18777466 4.9375006 6.18777466 7 8 C6.34 9.65 5.68 11.3 5 13 C4.67 12.01 4.34 11.02 4 10 C3.2575 10.165 2.515 10.33 1.75 10.5 C-1 11 -1 11 -5 11 C-5.433125 11.969375 -5.86625 12.93875 -6.3125 13.9375 C-8 17 -8 17 -11 18 C-9.68493198 13.35250831 -7.83857485 10.0362944 -4.9375 6.1875 C-4.22464844 5.23230469 -3.51179687 4.27710938 -2.77734375 3.29296875 C-1 1 -1 1 0 0 Z " fill="#338641" transform="translate(250,471)"/>
  <path d="M0 0 C0.66 0.33 1.32 0.66 2 1 C1.36191406 1.60328125 0.72382812 2.2065625 0.06640625 2.828125 C-0.75988281 3.62734375 -1.58617187 4.4265625 -2.4375 5.25 C-3.26121094 6.03890625 -4.08492187 6.8278125 -4.93359375 7.640625 C-6.99002622 9.98861216 -7.44326956 11.04314279 -8 14 C-10.49534274 16.99441129 -12.19370548 18.74267196 -15.9375 19.9375 C-20.14283166 21.39649262 -22.01618012 23.7320068 -25 27 C-25.66 26.67 -26.32 26.34 -27 26 C-11.79297327 10.59991531 -11.79297327 10.59991531 -5.51953125 5.296875 C-3.57189919 3.63462861 -1.77253163 1.84638711 0 0 Z " fill="#0D3318" transform="translate(671,468)"/>
  <path d="M0 0 C1.03013277 1.64821244 2.03114628 3.31503702 3 5 C5.6666419 6.33332095 7.16680303 5.67102033 10 5 C9.67 6.051875 9.34 7.10375 9 8.1875 C7.49928164 14.05298373 7.83511697 19.99092943 8 26 C7.67 26 7.34 26 7 26 C6.97421875 25.29875 6.9484375 24.5975 6.921875 23.875 C6.45314052 16.03435054 5.25740863 10.09851065 -0.5625 4.5625 C-4.5427258 2.01107321 -7.55716647 1.88771147 -12.1875 1.9375 C-13.27417969 1.94652344 -14.36085938 1.95554687 -15.48046875 1.96484375 C-16.31191406 1.97644531 -17.14335938 1.98804688 -18 2 C-15.26453975 -0.73546025 -13.37728884 -0.42807735 -9.5625 -0.6875 C-7.83193359 -0.81705078 -7.83193359 -0.81705078 -6.06640625 -0.94921875 C-3 -1 -3 -1 0 0 Z " fill="#0B3016" transform="translate(806,605)"/>
  <path d="M0 0 C0.721875 0.680625 1.44375 1.36125 2.1875 2.0625 C1.1975 2.0625 0.2075 2.0625 -0.8125 2.0625 C-1.1425 3.7125 -1.4725 5.3625 -1.8125 7.0625 C-1.1525 6.7325 -0.4925 6.4025 0.1875 6.0625 C1.8375 7.7125 3.4875 9.3625 5.1875 11.0625 C3.228536 10.75397815 1.27034287 10.4405582 -0.6875 10.125 C-1.77804687 9.95097656 -2.86859375 9.77695312 -3.9921875 9.59765625 C-6.8125 9.0625 -6.8125 9.0625 -8.8125 8.0625 C-8.626875 7.44375 -8.44125 6.825 -8.25 6.1875 C-7.57563824 4.02089822 -7.57563824 4.02089822 -8.8125 2.0625 C-8.4825 1.0725 -8.1525 0.0825 -7.8125 -0.9375 C-4.17291729 -2.18535693 -3.26390008 -2.2484645 0 0 Z " fill="#124E28" transform="translate(474.8125,618.9375)"/>
  <path d="M0 0 C0.66 0.33 1.32 0.66 2 1 C0.79989255 1.96861464 -0.41058244 2.9243885 -1.625 3.875 C-2.29789063 4.40867187 -2.97078125 4.94234375 -3.6640625 5.4921875 C-10.26035329 9.74999393 -17.40511419 9.72925133 -25 9 C-30.69789717 7.54169914 -34.69749576 6.00634401 -38 1 C-37.505 1.268125 -37.01 1.53625 -36.5 1.8125 C-25.88009803 6.85695344 -16.34367104 7.34731277 -5 4 C-4.67 3.34 -4.34 2.68 -4 2 C-2.0625 0.8125 -2.0625 0.8125 0 0 Z " fill="#0E2C15" transform="translate(814,645)"/>
  <path d="M0 0 C3.63 0 7.26 0 11 0 C11.33 0.99 11.66 1.98 12 3 C11.34 3 10.68 3 10 3 C10 2.34 10 1.68 10 1 C7.69 1.33 5.38 1.66 3 2 C2.2326107 8.22923487 1.81012254 14.35641033 1.68359375 20.62890625 C1.66281265 21.50401352 1.64203156 22.37912079 1.62062073 23.28074646 C1.55590224 26.04126102 1.49660659 28.80186017 1.4375 31.5625 C1.39424063 33.44857601 1.35062415 35.33464386 1.30664062 37.22070312 C1.2003021 41.81371822 1.09882254 46.40681729 1 51 C0.67 51 0.34 51 0 51 C0 34.17 0 17.34 0 0 Z " fill="#184228" transform="translate(839,598)"/>
  <path d="M0 0 C1.65 0 3.3 0 5 0 C5 0.33 5 0.66 5 1 C24.8 1.495 24.8 1.495 45 2 C45 2.33 45 2.66 45 3 C31.47 3 17.94 3 4 3 C3.67 4.32 3.34 5.64 3 7 C2.36345658 8.3479743 1.70394612 9.68596724 1 11 C0.67 11 0.34 11 0 11 C0 7.37 0 3.74 0 0 Z " fill="#225131" transform="translate(683,596)"/>
  <path d="M0 0 C5.60285927 1.35826891 8.80191581 5.46740661 12 10 C13.28333604 12.65673074 14.13905057 15.1639313 15 18 C14.34 18 13.68 18 13 18 C12.47599609 16.93458984 12.47599609 16.93458984 11.94140625 15.84765625 C11.48636719 14.92855469 11.03132812 14.00945313 10.5625 13.0625 C10.11003906 12.14597656 9.65757812 11.22945312 9.19140625 10.28515625 C8.19474606 8.09471096 8.19474606 8.09471096 7 7 C6.34 8.32 5.68 9.64 5 11 C3.68 10.67 2.36 10.34 1 10 C0.67 6.7 0.34 3.4 0 0 Z " fill="#0A3A1A" transform="translate(809,599)"/>
  <path d="M0 0 C2.31 0 4.62 0 7 0 C7 10.56 7 21.12 7 32 C6.34 32 5.68 32 5 32 C4.67 22.1 4.34 12.2 4 2 C2.68 1.34 1.36 0.68 0 0 Z " fill="#124625" transform="translate(732,523)"/>
  <path d="M0 0 C7.63592151 6.94174683 13.84921172 16.13737627 17 26 C16.67 26.99 16.34 27.98 16 29 C15.32880451 27.5437455 14.66318193 26.08492133 14 24.625 C13.62875 23.81289063 13.2575 23.00078125 12.875 22.1640625 C12 20 12 20 12 18 C11.01 17.67 10.02 17.34 9 17 C6.92469613 14.07920195 6 12.62453269 6 9 C4.68 8.67 3.36 8.34 2 8 C1.34 5.36 0.68 2.72 0 0 Z " fill="#12381E" transform="translate(319,640)"/>
  <path d="M0 0 C8.24568314 -0.70542917 14.00987433 0.48582883 21 5 C21.66 5.66 22.32 6.32 23 7 C22.69670231 10.84177074 21.47524576 13.09427672 19 16 C18.34 15.67 17.68 15.34 17 15 C18.32 12.69 19.64 10.38 21 8 C15.71487448 5.42615637 10.74816277 3.51132608 4.9453125 2.4921875 C3 2 3 2 0 0 Z " fill="#13331D" transform="translate(919,595)"/>
  <path d="M0 0 C2.89814316 1.49298284 4.79874761 3.74070268 7.0625 6.0625 C8.0525 6.3925 9.0425 6.7225 10.0625 7.0625 C10.0625 8.0525 10.0625 9.0425 10.0625 10.0625 C7.0925 9.5675 7.0925 9.5675 4.0625 9.0625 C4.0625 8.0725 4.0625 7.0825 4.0625 6.0625 C1.0925 5.5675 1.0925 5.5675 -1.9375 5.0625 C-2.2675 6.3825 -2.5975 7.7025 -2.9375 9.0625 C-3.5975 9.0625 -4.2575 9.0625 -4.9375 9.0625 C-5.6875 6.8125 -5.6875 6.8125 -5.9375 4.0625 C-3.12255647 0.10072763 -3.12255647 0.10072763 0 0 Z " fill="#124923" transform="translate(459.9375,636.9375)"/>
  <path d="M0 0 C3.76780935 2.5118729 3.86383881 4.02740756 5.0625 8.3125 C6.40134637 13.06966255 6.40134637 13.06966255 8.18359375 17.66796875 C9.09697471 20.27700432 8.94561979 21.44682656 8 24 C2.89659397 16.02392202 -0.39666565 9.71830847 0 0 Z " fill="#184225" transform="translate(806,476)"/>
  <path d="M0 0 C2 2 4 4 6 6 C6 5.34 6 4.68 6 4 C8.60183588 3.30238463 11.20583602 2.61662226 13.8125 1.9375 C14.91948242 1.63875977 14.91948242 1.63875977 16.04882812 1.33398438 C21.66015625 -0.11328125 21.66015625 -0.11328125 25 1 C7.97969543 8 7.97969543 8 3 8 C0 2.25 0 2.25 0 0 Z " fill="#153620" transform="translate(905,427)"/>
  <path d="M0 0 C-3 2 -3 2 -6 2 C-6 2.66 -6 3.32 -6 4 C-10.03035071 6.31745166 -13.22069002 7.20689408 -17.83203125 7.6171875 C-21.83001378 8.32313757 -25.38823663 10.20247888 -29 12 C-29 11.34 -29 10.68 -29 10 C-9.39282281 -0.61678949 -9.39282281 -0.61678949 0 0 Z " fill="#0E341A" transform="translate(840,369)"/>
  <path d="M0 0 C2.54292289 2.54292289 2.297619 3.53570198 2.3125 7.0625 C2.23362978 12.49737516 1.07238606 17.00406932 -1 22 C-1.99 22 -2.98 22 -4 22 C-3.690625 21.13375 -3.38125 20.2675 -3.0625 19.375 C-1.5823293 14.32991114 -1.51546288 9.13652528 -1.24609375 3.9140625 C-1 1 -1 1 0 0 Z " fill="#21462C" transform="translate(823,617)"/>
  <path d="M0 0 C1.2951165 3.8853495 0.39397444 5.58244318 -0.875 9.4375 C-3.30096088 16.85695399 -3.30096088 16.85695399 -4.31640625 24.546875 C-4.35830078 25.39121094 -4.40019531 26.23554688 -4.44335938 27.10546875 C-4.48267578 27.97816406 -4.52199219 28.85085938 -4.5625 29.75 C-4.60568359 30.63816406 -4.64886719 31.52632813 -4.69335938 32.44140625 C-4.79913615 34.62745963 -4.90122546 36.81362089 -5 39 C-5.33 39 -5.66 39 -6 39 C-6.22616462 35.25085209 -6.42782662 31.50077551 -6.625 27.75 C-6.68945312 26.68652344 -6.75390625 25.62304688 -6.8203125 24.52734375 C-6.89765625 22.99013672 -6.89765625 22.99013672 -6.9765625 21.421875 C-7.02893066 20.47924805 -7.08129883 19.53662109 -7.13525391 18.56542969 C-6.9898275 15.80705307 -6.36208184 14.36660938 -5 12 C-4.67 11.01 -4.34 10.02 -4 9 C-3.32559435 7.43180374 -2.6370797 5.86962901 -1.9375 4.3125 C-1.57527344 3.50425781 -1.21304688 2.69601562 -0.83984375 1.86328125 C-0.56269531 1.24839844 -0.28554688 0.63351562 0 0 Z " fill="#0A2912" transform="translate(812,433)"/>
  <path d="M0 0 C0.66 0.99 1.32 1.98 2 3 C-1.00015912 4.00005304 -2.97423756 4.11575585 -6.10546875 4.09765625 C-7.08837891 4.09443359 -8.07128906 4.09121094 -9.08398438 4.08789062 C-10.10814453 4.07951172 -11.13230469 4.07113281 -12.1875 4.0625 C-13.22326172 4.05798828 -14.25902344 4.05347656 -15.32617188 4.04882812 C-17.88417266 4.0370401 -20.44205733 4.02058515 -23 4 C-22.67 3.01 -22.34 2.02 -22 1 C-20.91460938 1.01160156 -19.82921875 1.02320313 -18.7109375 1.03515625 C-17.26562673 1.04454138 -15.82031409 1.05364081 -14.375 1.0625 C-13.30572266 1.07506836 -13.30572266 1.07506836 -12.21484375 1.08789062 C-8.02655562 1.10710296 -4.1271538 0.8267327 0 0 Z " fill="#12391F" transform="translate(875,522)"/>
  <path d="M0 0 C0 0.33 0 0.66 0 1 C-0.85722656 1.12117188 -1.71445312 1.24234375 -2.59765625 1.3671875 C-8.55229962 2.23990862 -14.26612809 3.17004088 -20 5 C-21.33130115 5.34135927 -22.66358148 5.67925956 -24 6 C-24 4.68 -24 3.36 -24 2 C-15.67230405 -0.95391219 -8.72604207 -1.15144911 0 0 Z " fill="#124323" transform="translate(671,369)"/>
  <path d="M0 0 C0.33 0 0.66 0 1 0 C1 3.96 1 7.92 1 12 C-2.85388124 12.33695136 -6.70804929 12.66968228 -10.5625 13 C-11.64853516 13.09539063 -12.73457031 13.19078125 -13.85351562 13.2890625 C-19.2562501 13.74886969 -24.57754412 14.12447531 -30 14 C-28.88745117 12.51831055 -28.88745117 12.51831055 -27 11 C-24.1809082 10.65942383 -24.1809082 10.65942383 -20.80078125 10.70703125 C-18.98803711 10.7215332 -18.98803711 10.7215332 -17.13867188 10.73632812 C-15.2447168 10.7740332 -15.2447168 10.7740332 -13.3125 10.8125 C-11.40114258 10.83280273 -11.40114258 10.83280273 -9.45117188 10.85351562 C-6.30035943 10.88891801 -3.15038955 10.9383021 0 11 C0 7.37 0 3.74 0 0 Z " fill="#306E39" transform="translate(220,576)"/>
  <path d="M0 0 C1.546875 0.8971875 1.546875 0.8971875 3.125 1.8125 C5.44114762 3.15269026 7.6657441 4.29292741 10.125 5.375 C14.2978798 7.73358424 17.22284609 10.72831934 18.8125 15.375 C18.874375 15.91125 18.93625 16.4475 19 17 C18.34 17.33 17.68 17.66 17 18 C16.505 15.525 16.505 15.525 16 13 C14.68 13.33 13.36 13.66 12 14 C12 12.68 12 11.36 12 10 C11.1028125 9.566875 11.1028125 9.566875 10.1875 9.125 C6.44175834 7.19861858 3.17842319 4.74890654 0 2 C0 1.34 0 0.68 0 0 Z " fill="#1C4C2E" transform="translate(912,382)"/>
  <path d="M0 0 C1.03447266 0.01160156 1.03447266 0.01160156 2.08984375 0.0234375 C2.77949219 0.01570312 3.46914063 0.00796875 4.1796875 0 C9.33651082 0.02010457 9.33651082 0.02010457 11.58984375 2.2734375 C10.43355469 2.34691406 10.43355469 2.34691406 9.25390625 2.421875 C8.25101562 2.49664063 7.248125 2.57140625 6.21484375 2.6484375 C5.21710938 2.71804688 4.219375 2.78765625 3.19140625 2.859375 C0.43475496 3.03707714 0.43475496 3.03707714 -1.41015625 5.2734375 C-1.61888344 8.05646669 -1.66656523 9.76061955 -0.41015625 12.2734375 C-1.40015625 11.9434375 -2.39015625 11.6134375 -3.41015625 11.2734375 C-3.51328125 10.3453125 -3.61640625 9.4171875 -3.72265625 8.4609375 C-4.41717545 5.24089392 -4.88756564 4.24763885 -7.41015625 2.2734375 C-4.91805186 -0.21866689 -3.40654837 0.01328089 0 0 Z " fill="#0A3518" transform="translate(468.41015625,603.7265625)"/>
  <path d="M0 0 C1.14726562 0.00451172 2.29453125 0.00902344 3.4765625 0.01367188 C6.27609813 0.02533661 9.07551986 0.04170386 11.875 0.0625 C11.875 2.3725 11.875 4.6825 11.875 7.0625 C9.875 5.0625 9.875 5.0625 8.875 2.0625 C-1.685 2.0625 -12.245 2.0625 -23.125 2.0625 C-23.125 1.7325 -23.125 1.4025 -23.125 1.0625 C-15.39714866 0.09296618 -7.78166099 -0.05881488 0 0 Z " fill="#DBF4DF" transform="translate(330.125,402.9375)"/>
  <path d="M0 0 C3.67420866 0.30618405 4.78135513 0.75771784 7.3125 3.5625 C8.1478125 4.7690625 8.1478125 4.7690625 9 6 C8.34 6 7.68 6 7 6 C7 6.99 7 7.98 7 9 C5.35 8.67 3.7 8.34 2 8 C1.67 7.01 1.34 6.02 1 5 C-1.00016466 3.79117904 -1.00016466 3.79117904 -3 3 C-2.01 2.67 -1.02 2.34 0 2 C0 1.34 0 0.68 0 0 Z " fill="#389046" transform="translate(186,462)"/>
  <path d="M0 0 C2.97 0.495 2.97 0.495 6 1 C6 1.99 6 2.98 6 4 C7.32 4.66 8.64 5.32 10 6 C10 6.66 10 7.32 10 8 C10.92232422 8.14695312 10.92232422 8.14695312 11.86328125 8.296875 C18.54716981 9.53344768 18.54716981 9.53344768 21.0625 12.125 C21.5265625 13.053125 21.5265625 13.053125 22 14 C16.96411454 13.48193614 13.6022624 11.9005849 9.3125 9.25 C8.19488281 8.57453125 7.07726562 7.8990625 5.92578125 7.203125 C2.99675049 4.99755311 1.60978656 3.25370286 0 0 Z " fill="#164025" transform="translate(801,539)"/>
  <path d="M0 0 C2.9138405 0.60272591 5.39244293 1.0625 8.375 1.0625 C8.045 2.3825 7.715 3.7025 7.375 5.0625 C4.74743412 4.80812289 2.12428226 4.53485799 -0.5 4.25 C-1.61955078 4.14461914 -1.61955078 4.14461914 -2.76171875 4.03710938 C-4.73051777 3.81539777 -6.68136658 3.44670661 -8.625 3.0625 C-9.285 2.0725 -9.945 1.0825 -10.625 0.0625 C-6.73423945 -0.94909774 -3.91929813 -0.82596779 0 0 Z " fill="#154327" transform="translate(636.625,424.9375)"/>
  <path d="M0 0 C0.66 0 1.32 0 2 0 C3.6491828 4.25315564 4.49974625 6.6648225 2.625 10.9375 C1.820625 12.4534375 1.820625 12.4534375 1 14 C0.67 13.34 0.34 12.68 0 12 C-1.03125 12.515625 -2.0625 13.03125 -3.125 13.5625 C-6.73052374 15.13395026 -9.15678443 15.03110662 -13 14 C-12.67 13.01 -12.34 12.02 -12 11 C-10.84371094 10.94392578 -10.84371094 10.94392578 -9.6640625 10.88671875 C-8.15972656 10.78810547 -8.15972656 10.78810547 -6.625 10.6875 C-5.62726562 10.62949219 -4.62953125 10.57148437 -3.6015625 10.51171875 C-2.74304688 10.34285156 -1.88453125 10.17398438 -1 10 C1.56687367 6.1496895 0.83288724 4.41430237 0 0 Z " fill="#134D28" transform="translate(932,632)"/>
  <path d="M0 0 C0.33 0 0.66 0 1 0 C1.33 6.27 1.66 12.54 2 19 C2.33 19 2.66 19 3 19 C3 24.61 3 30.22 3 36 C-0.81970602 28.36058795 -0.12444464 20.44408682 -0.0625 12.0625 C-0.05798828 10.90169922 -0.05347656 9.74089844 -0.04882812 8.54492188 C-0.03710647 5.69656066 -0.0206976 2.84830778 0 0 Z " fill="#082911" transform="translate(767,453)"/>
  <path d="M0 0 C0.66 0.33 1.32 0.66 2 1 C-2.29 4.63 -6.58 8.26 -11 12 C-11.33 11.01 -11.66 10.02 -12 9 C-13.32 9.33 -14.64 9.66 -16 10 C-12.96086531 6.63052458 -9.93142307 4.69577825 -5.875 2.6875 C-4.29332031 1.88892578 -4.29332031 1.88892578 -2.6796875 1.07421875 C-1.79539062 0.71972656 -0.91109375 0.36523438 0 0 Z " fill="#49774E" transform="translate(291,439)"/>
  <path d="M0 0 C2.359375 2.10546875 2.359375 2.10546875 4 4 C0.76652128 3.47847117 -2.17906783 2.60252381 -5.25 1.5 C-9.17457559 0.14376102 -12.82110582 -0.44279871 -16.95703125 -0.69140625 C-19.28229666 -1.04264137 -20.9582983 -1.85756466 -23 -3 C-16.17958416 -5.27347195 -6.58225441 -2.43543413 0 0 Z " fill="#174E2C" transform="translate(312,666)"/>
  <path d="M0 0 C0.391875 0.53625 0.78375 1.0725 1.1875 1.625 C6.50276656 9.06630057 6.50276656 9.06630057 14.578125 12.4140625 C15.45984375 12.48367188 16.3415625 12.55328125 17.25 12.625 C18.14203125 12.69976563 19.0340625 12.77453125 19.953125 12.8515625 C20.96632813 12.92503906 20.96632813 12.92503906 22 13 C20 15 20 15 16.75 15.25 C11.8053368 14.92035579 8.63655284 14.69287146 5.0703125 11.00390625 C0 4.80346386 0 4.80346386 0 0 Z " fill="#113119" transform="translate(778,630)"/>
  <path d="M0 0 C0.33 4.29 0.66 8.58 1 13 C-0.32 11.35 -1.64 9.7 -3 8 C-3.7425 7.113125 -4.485 6.22625 -5.25 5.3125 C-7 3 -7 3 -7 1 C-3.375 -1.125 -3.375 -1.125 0 0 Z " fill="#1E3726" transform="translate(340,679)"/>
  <path d="M0 0 C0.99 0 1.98 0 3 0 C3.33 1.98 3.66 3.96 4 6 C4.66 6 5.32 6 6 6 C6.84179395 8.72681111 7.67363069 11.45601443 8.5 14.1875 C8.73847656 14.95642578 8.97695312 15.72535156 9.22265625 16.51757812 C10.40213617 20.44356128 11.3326262 23.85048821 11 28 C8.84425364 24.76638046 7.78355507 21.59817127 6.625 17.9375 C4.65357017 11.85223041 2.4842096 5.89826302 0 0 Z " fill="#E5F9E7" transform="translate(205,515)"/>
  <path d="M0 0 C1.485 0.99 1.485 0.99 3 2 C4.32 1.34 5.64 0.68 7 0 C7.75 1.625 7.75 1.625 8 4 C6.0625 7.25 6.0625 7.25 4 10 C1.5 8.3125 1.5 8.3125 -1 6 C-1.375 3.3125 -1.375 3.3125 -1 1 C-0.67 0.67 -0.34 0.34 0 0 Z " fill="#338D41" transform="translate(246,482)"/>
  <path d="M0 0 C0.66 0.33 1.32 0.66 2 1 C0.68 2.32 -0.64 3.64 -2 5 C-1.34 5.66 -0.68 6.32 0 7 C-4.52513966 11.77653631 -4.52513966 11.77653631 -7.125 13 C-9.76562074 14.40833106 -10.63358496 16.40381141 -12 19 C-12.33 18.34 -12.66 17.68 -13 17 C-9.66451638 10.47822372 -5.42056129 4.89172604 0 0 Z " fill="#0C3116" transform="translate(626,384)"/>
  <path d="M0 0 C0.66 0.33 1.32 0.66 2 1 C3.45866945 6.5429439 3.09106925 12.31323109 3 18 C1.02 18.99 1.02 18.99 -1 20 C-1.66 19.34 -2.32 18.68 -3 18 C-2.34 16.35 -1.68 14.7 -1 13 C-0.67 13 -0.34 13 0 13 C0 8.71 0 4.42 0 0 Z " fill="#174D2B" transform="translate(813,616)"/>
  <path d="M0 0 C0.66 0.33 1.32 0.66 2 1 C0.29556344 2.70443656 -1.409296 4.40839804 -3.1171875 6.109375 C-4.25812128 7.25504295 -5.39084903 8.40907515 -6.5078125 9.578125 C-7.63632171 10.753937 -8.81421522 11.88197435 -10 13 C-10.66 13 -11.32 13 -12 13 C-12.2475 13.598125 -12.495 14.19625 -12.75 14.8125 C-14.16370012 17.28647521 -15.65055383 18.43370255 -18 20 C-14.20941075 11.72296453 -6.7964161 5.79467676 0 0 Z " fill="#ECFCEE" transform="translate(265,420)"/>
  <path d="M0 0 C1.52066941 0.18882484 3.04149236 0.37641928 4.5625 0.5625 C6.2640625 0.7790625 6.2640625 0.7790625 8 1 C8 1.33 8 1.66 8 2 C6.87980469 2.06058594 5.75960937 2.12117188 4.60546875 2.18359375 C3.13280016 2.26801424 1.66014456 2.35266149 0.1875 2.4375 C-0.55048828 2.47681641 -1.28847656 2.51613281 -2.04882812 2.55664062 C-5.23071342 2.74381035 -7.96162378 2.98720793 -11 4 C-12.20882096 6.00016466 -12.20882096 6.00016466 -13 8 C-13.33 5.36 -13.66 2.72 -14 0 C-9.17930484 -1.39955666 -4.87384533 -0.66975027 0 0 Z " fill="#3D8B4B" transform="translate(136,412)"/>
  <path d="M0 0 C3.53586014 3.17320782 5.58578031 5.16743695 6 10 C5.01 10 4.02 10 3 10 C2.67 9.34 2.34 8.68 2 8 C1.34 7.67 0.68 7.34 0 7 C0.33 6.34 0.66 5.68 1 5 C0.34 4.67 -0.32 4.34 -1 4 C-0.67 2.68 -0.34 1.36 0 0 Z M-8 3 C-6.35 3 -4.7 3 -3 3 C-3 3.66 -3 4.32 -3 5 C-2.34 5.33 -1.68 5.66 -1 6 C-2.32 6.33 -3.64 6.66 -5 7 C-5.99 5.68 -6.98 4.36 -8 3 Z " fill="#114F28" transform="translate(815,605)"/>
  <path d="M0 0 C-17.22536496 7.41058394 -17.22536496 7.41058394 -24 7 C-23.01 6.67 -22.02 6.34 -21 6 C-21 5.34 -21 4.68 -21 4 C-17.7 3.67 -14.4 3.34 -11 3 C-11 2.34 -11 1.68 -11 1 C-3.375 -1.125 -3.375 -1.125 0 0 Z " fill="#0A2E15" transform="translate(905,551)"/>
  <path d="M0 0 C1.01126953 0.46019531 1.01126953 0.46019531 2.04296875 0.9296875 C5.46946184 2.1699241 8.70159321 2.65254491 12.3125 3.125 C13.56675781 3.29257812 14.82101562 3.46015625 16.11328125 3.6328125 C17.06589844 3.75398438 18.01851562 3.87515625 19 4 C19 4.33 19 4.66 19 5 C12.48755792 5.69508823 6.4489191 6.31909709 0 5 C0 3.35 0 1.7 0 0 Z " fill="#1E442C" transform="translate(606,420)"/>
  <path d="M0 0 C1.875 1.4375 1.875 1.4375 3 3 C3 3.66 3 4.32 3 5 C0.68613705 4.71935082 -1.62609008 4.42518311 -3.9375 4.125 C-5.22527344 3.96257813 -6.51304687 3.80015625 -7.83984375 3.6328125 C-8.88269531 3.42398438 -9.92554688 3.21515625 -11 3 C-11.33 2.34 -11.66 1.68 -12 1 C-7.56980483 -0.79317423 -4.6336848 -1.33862005 0 0 Z " fill="#173F24" transform="translate(845,555)"/>
  <path d="M0 0 C1.0725 0.165 2.145 0.33 3.25 0.5 C7.03028752 1.08810915 7.03028752 1.08810915 11 1 C13.75 3.5 13.75 3.5 16 6 C15.67 6.66 15.34 7.32 15 8 C14.4225 7.360625 13.845 6.72125 13.25 6.0625 C11.01937599 4.01776132 9.92563609 3.41794801 7 3 C7 3.66 7 4.32 7 5 C6.01 5.33 5.02 5.66 4 6 C0 1.125 0 1.125 0 0 Z " fill="#337C3D" transform="translate(179,459)"/>
  <path d="M0 0 C1.65 0 3.3 0 5 0 C5.82514784 2.83384108 6.07936233 5.16935251 5.87890625 8.109375 C5.83056641 8.86347656 5.78222656 9.61757813 5.73242188 10.39453125 C5.64831055 11.56048828 5.64831055 11.56048828 5.5625 12.75 C5.51029297 13.54277344 5.45808594 14.33554687 5.40429688 15.15234375 C5.27510676 17.10193997 5.13830035 19.05102886 5 21 C4.67 21 4.34 21 4 21 C3.87882813 19.90300781 3.75765625 18.80601562 3.6328125 17.67578125 C3.46390637 16.22131177 3.29461519 14.76688696 3.125 13.3125 C3.04636719 12.59126953 2.96773437 11.87003906 2.88671875 11.12695312 C2.4103949 7.11484068 1.73699858 3.70024488 0 0 Z " fill="#0D3017" transform="translate(697,411)"/>
  <path d="M0 0 C13.86 0.495 13.86 0.495 28 1 C28 1.33 28 1.66 28 2 C18.76 2.33 9.52 2.66 0 3 C0 2.01 0 1.02 0 0 Z " fill="#1B4D2C" transform="translate(186,604)"/>
  <path d="M0 0 C1.32 0.66 2.64 1.32 4 2 C1.91789421 5.12315868 0.2990429 6.35047855 -3 8 C-4.70496537 9.62746694 -6.37897032 11.28891311 -8 13 C-8.66 12.67 -9.32 12.34 -10 12 C-9.61328125 11.55269531 -9.2265625 11.10539063 -8.828125 10.64453125 C-5.81609925 7.1478974 -2.85678969 3.62592537 0 0 Z " fill="#1B4B2C" transform="translate(629,507)"/>
  <path d="M0 0 C0.721875 0.144375 1.44375 0.28875 2.1875 0.4375 C1.68918276 4.12504757 1.08682357 6.04240662 -1.8125 8.4375 C-2.1425 7.7775 -2.4725 7.1175 -2.8125 6.4375 C-4.4625 6.7675 -6.1125 7.0975 -7.8125 7.4375 C-3.69871444 0.57535558 -3.69871444 0.57535558 0 0 Z " fill="#3C8B48" transform="translate(276.8125,447.5625)"/>
  <path d="M0 0 C0 4.4375084 -1.35030591 6.28006871 -4.3125 9.5625 C-6.78951685 11.80909668 -8.99679206 13.53897992 -12 15 C-12.66 14.67 -13.32 14.34 -14 14 C-9.38 9.38 -4.76 4.76 0 0 Z " fill="#ECFBEB" transform="translate(350,590)"/>
  <path d="M0 0 C4.97093824 0.41153737 9.44508386 0.79600832 14 3 C13.54917531 4.46067199 13.08906463 5.91848032 12.625 7.375 C12.36976563 8.18710937 12.11453125 8.99921875 11.8515625 9.8359375 C11 12 11 12 9 14 C9.67170806 10.1936543 10.72746564 6.64793184 12 3 C8.37 3 4.74 3 1 3 C0.67 2.01 0.34 1.02 0 0 Z " fill="#0A2812" transform="translate(931,502)"/>
  <path d="M0 0 C1.32 0.33 2.64 0.66 4 1 C0.83451967 4.88901869 -2.40365256 8.50640535 -6 12 C-6.99 11.01 -7.98 10.02 -9 9 C-6.85769441 6.69900511 -4.97051851 4.98257912 -2.25 3.375 C-1.5075 2.92125 -0.765 2.4675 0 2 C0 1.34 0 0.68 0 0 Z " fill="#184B2B" transform="translate(685,499)"/>
  <path d="M0 0 C4.17625628 1.40208245 6.92312178 3.37406574 10.1875 6.3125 C11.04730469 7.07175781 11.90710938 7.83101563 12.79296875 8.61328125 C15.023261 11.02515482 16.01632755 12.89511211 17 16 C16.29875 15.2575 15.5975 14.515 14.875 13.75 C12.11745909 10.95243542 12.11745909 10.95243542 9 9 C5.36823235 6.57882156 1.98167921 3.96335842 0 0 Z " fill="#11301A" transform="translate(712,376)"/>
  <path d="M0 0 C0.66 1.32 1.32 2.64 2 4 C-3.18644068 9.61864407 -3.18644068 9.61864407 -7 10 C-7.99 10 -8.98 10 -10 10 C-10.33 9.01 -10.66 8.02 -11 7 C-9.9275 6.773125 -8.855 6.54625 -7.75 6.3125 C-3.62781299 4.86973455 -2.35585477 3.58089925 0 0 Z " fill="#154D28" transform="translate(551,635)"/>
  <path d="M0 0 C0.66 0.66 1.32 1.32 2 2 C1.625 5.125 1.625 5.125 1 8 C-2 9 -2 9 -5 8 C-4.45773019 4.20411134 -2.79872437 2.52788007 0 0 Z " fill="#074D21" transform="translate(939,636)"/>
  <path d="M0 0 C1.57156655 3.1431331 0.11705576 5.365464 -0.9375 8.625 C-1.31777344 9.81351562 -1.69804688 11.00203125 -2.08984375 12.2265625 C-2.39019531 13.14179688 -2.69054687 14.05703125 -3 15 C-3.99 14.34 -4.98 13.68 -6 13 C-5.57674417 11.20491499 -5.13589265 9.4139717 -4.6875 7.625 C-4.44386719 6.62726563 -4.20023438 5.62953125 -3.94921875 4.6015625 C-3 2 -3 2 0 0 Z " fill="#144023" transform="translate(613,405)"/>
  <path d="M0 0 C4.23429756 1.31061591 8.07407404 2.94356259 12 5 C11.67 5.99 11.34 6.98 11 8 C7.04 6.02 3.08 4.04 -1 2 C-0.67 1.34 -0.34 0.68 0 0 Z " fill="#41854D" transform="translate(299,603)"/>
  <path d="M0 0 C0.66 0.33 1.32 0.66 2 1 C2.99 1.33 3.98 1.66 5 2 C3.68 3.65 2.36 5.3 1 7 C-2.37503669 5.8141763 -4.64722731 4.72426311 -7 2 C-4.69 2 -2.38 2 0 2 C0 1.34 0 0.68 0 0 Z " fill="#0F391D" transform="translate(488,604)"/>
  <path d="M0 0 C0.33 0.99 0.66 1.98 1 3 C0.67 3.66 0.34 4.32 0 5 C1.65 5.33 3.3 5.66 5 6 C1.01754349 7.3274855 -1.44789543 5.99907829 -5.1875 4.5625 C-5.84169922 4.31951172 -6.49589844 4.07652344 -7.16992188 3.82617188 C-8.78303286 3.2256707 -10.3919435 2.61390797 -12 2 C-9.23157127 1.07719042 -7.71056559 0.91629327 -4.875 1 C-3.59625 1 -2.3175 1 -1 1 C-0.67 0.67 -0.34 0.34 0 0 Z " fill="#357C41" transform="translate(283,593)"/>
  <path d="M0 0 C3.86584668 1.14218197 7.06311187 2.1718855 10 5 C10.94379835 7.5167956 11 9.28070943 11 12 C9.16364422 10.19047409 7.33083792 8.37759362 5.5 6.5625 C4.97535156 6.04623047 4.45070312 5.52996094 3.91015625 4.99804688 C2.58775448 3.68423213 1.29164432 2.34406495 0 1 C0 0.67 0 0.34 0 0 Z " fill="#4D7951" transform="translate(163,442)"/>
  <path d="M0 0 C13.6332574 0.77904328 13.6332574 0.77904328 20 3 C20 3.33 20 3.66 20 4 C17.93757383 4.02717692 15.87504297 4.0464758 13.8125 4.0625 C12.66394531 4.07410156 11.51539063 4.08570313 10.33203125 4.09765625 C7.36247766 4.01062361 4.8336987 3.88081221 2 3 C1.34 2.01 0.68 1.02 0 0 Z " fill="#194529" transform="translate(259,655)"/>
  <path d="M0 0 C3.44216672 2.6598561 3.99504674 5.90288286 5 10 C5.66 10 6.32 10 7 10 C7 11.65 7 13.3 7 15 C0 8 0 8 -0.1953125 6.0546875 C-0.13020833 4.03645833 -0.06510417 2.01822917 0 0 Z " fill="#184729" transform="translate(903,608)"/>
  <path d="M0 0 C0.99 0 1.98 0 3 0 C3.33 1.65 3.66 3.3 4 5 C-0.455 6.485 -0.455 6.485 -5 8 C-4 4 -4 4 -1.9375 2.75 C-1.298125 2.5025 -0.65875 2.255 0 2 C0 1.34 0 0.68 0 0 Z " fill="#173E24" transform="translate(941,418)"/>
  <path d="M0 0 C5.61 0 11.22 0 17 0 C17 0.33 17 0.66 17 1 C12.38 1.33 7.76 1.66 3 2 C3 5.96 3 9.92 3 14 C2.67 14 2.34 14 2 14 C1.66179834 12.4176994 1.32964061 10.83410625 1 9.25 C0.814375 8.36828125 0.62875 7.4865625 0.4375 6.578125 C0 4 0 4 0 0 Z " fill="#E0F9E2" transform="translate(125,415)"/>
  <path d="M0 0 C5.21745066 0.52506828 9.22651111 1.7798559 13.9375 4.0625 C15.65259766 4.88427734 15.65259766 4.88427734 17.40234375 5.72265625 C18.25957031 6.14417969 19.11679687 6.56570313 20 7 C17 8 17 8 14.94921875 7.2578125 C14.20285156 6.88398438 13.45648437 6.51015625 12.6875 6.125 C9.11055138 4.43004069 5.97504311 3.40769673 2 3 C2 2.34 2 1.68 2 1 C1.34 0.67 0.68 0.34 0 0 Z " fill="#0F3119" transform="translate(890,371)"/>
  <path d="M0 0 C3.63 0 7.26 0 11 0 C11.33 0.99 11.66 1.98 12 3 C11.34 3 10.68 3 10 3 C10 2.34 10 1.68 10 1 C7.69 1.33 5.38 1.66 3 2 C2.67 4.97 2.34 7.94 2 11 C1.34 10.67 0.68 10.34 0 10 C0 6.7 0 3.4 0 0 Z " fill="#194D2D" transform="translate(839,598)"/>
  <path d="M0 0 C5.18605661 2.17090742 7.9072863 4.40778875 11 9 C10.8125 11.375 10.8125 11.375 10 13 C9.62875 12.071875 9.2575 11.14375 8.875 10.1875 C6.66337426 6.42773624 4.84020659 5.83662054 1 4 C0.125 1.8125 0.125 1.8125 0 0 Z " fill="#11361D" transform="translate(932,621)"/>
  <path d="M0 0 C-4.05461251 3.56805901 -8.62308477 5 -14 5 C-14 4.01 -14 3.02 -14 2 C-9.35150485 -0.3992233 -5.08913926 -0.19957409 0 0 Z " fill="#20472C" transform="translate(158,612)"/>
  <path d="M0 0 C0.66 0.66 1.32 1.32 2 2 C1.48050781 2.44730469 0.96101563 2.89460938 0.42578125 3.35546875 C-3.52679654 6.78201031 -7.35827082 10.24446679 -11 14 C-11.99 13.67 -12.98 13.34 -14 13 C-12.2852718 11.2852718 -10.54147123 9.74549356 -8.6875 8.1875 C-5.63497947 5.58838733 -2.79146731 2.87605723 0 0 Z " fill="#3F904D" transform="translate(126,370)"/>
  <path d="M0 0 C1.485 0.99 1.485 0.99 3 2 C3 4 3 6 3 8 C4.41977909 10.22743787 4.41977909 10.22743787 6 12 C6 12.66 6 13.32 6 14 C6.99 14.33 7.98 14.66 9 15 C8.01 15.33 7.02 15.66 6 16 C5.34 15.01 4.68 14.02 4 13 C3.01 12.67 2.02 12.34 1 12 C0.67 8.04 0.34 4.08 0 0 Z " fill="#1C5231" transform="translate(776,626)"/>
  <path d="M0 0 C3.63 0.66 7.26 1.32 11 2 C11.33 2.99 11.66 3.98 12 5 C3.42857143 4 3.42857143 4 0 3 C0 2.01 0 1.02 0 0 Z " fill="#173E23" transform="translate(256,607)"/>
  <path d="M0 0 C10.72524662 -0.56229448 10.72524662 -0.56229448 15 3 C15 3.33 15 3.66 15 4 C9.76119922 3.44854729 5.02649303 2.57077907 0 1 C0 0.67 0 0.34 0 0 Z " fill="#12391F" transform="translate(870,403)"/>
  <path d="M0 0 C3.44634028 0.8109036 6.64380806 0.02217879 10.125 -0.5 C7.21972388 2.40527612 3.91400975 2.21264319 0 2.625 C-0.75410156 2.71136719 -1.50820313 2.79773438 -2.28515625 2.88671875 C-4.14757127 3.09889261 -6.01118931 3.30045763 -7.875 3.5 C-7.875 2.51 -7.875 1.52 -7.875 0.5 C-2.35731511 -0.62861736 -2.35731511 -0.62861736 0 0 Z " fill="#194D2C" transform="translate(648.875,650.5)"/>
  <path d="M0 0 C0.99 0 1.98 0 3 0 C3.33337803 4.77841845 2.55194066 7.01897257 0 11 C-0.70670728 13.69254991 -0.70670728 13.69254991 -1 16 C-2.5976589 13.52880098 -3.08060592 12.43855084 -2.5390625 9.4921875 C-2.23742187 8.62851562 -1.93578125 7.76484375 -1.625 6.875 C-0.40127508 3.50588522 -0.40127508 3.50588522 0 0 Z " fill="#184C2A" transform="translate(517,610)"/>
  <path d="M0 0 C0.90105469 0.01804687 1.80210937 0.03609375 2.73046875 0.0546875 C3.41753906 0.07789063 4.10460937 0.10109375 4.8125 0.125 C4.8125 1.115 4.8125 2.105 4.8125 3.125 C0.29632401 3.20154536 -3.77835217 3.22728696 -8.1875 2.125 C-4.87379 -0.08414 -3.8428979 -0.09981553 0 0 Z " fill="#0C3319" transform="translate(795.1875,594.875)"/>
  <path d="M0 0 C1.31534494 3.65857532 0.65468309 6.08026481 -0.4375 9.75 C-0.86869141 11.22726562 -0.86869141 11.22726562 -1.30859375 12.734375 C-1.53675781 13.48203125 -1.76492187 14.2296875 -2 15 C-2.33 15 -2.66 15 -3 15 C-4.0070238 9.96488101 -3.97387813 6.76052962 -2 2 C-1.34 2 -0.68 2 0 2 C0 1.34 0 0.68 0 0 Z " fill="#3B8649" transform="translate(244,533)"/>
  <path d="M0 0 C-2.5550839 2.98093122 -5.38281401 4.52359755 -9 6 C-11.375 5.6875 -11.375 5.6875 -13 5 C-10.74037349 0.48074698 -4.66953512 -0.42450319 0 0 Z " fill="#3C8548" transform="translate(294,498)"/>
  <path d="M0 0 C0.66 0.33 1.32 0.66 2 1 C-2.049191 5.83290538 -5.96719209 7.3833652 -12 9 C-9.67350413 6.49280542 -7.17318479 4.67816399 -4.3125 2.8125 C-3.50425781 2.28269531 -2.69601562 1.75289063 -1.86328125 1.20703125 C-1.24839844 0.80871094 -0.63351562 0.41039062 0 0 Z " fill="#34753E" transform="translate(302,490)"/>
  <path d="M0 0 C0.58203125 1.91015625 0.58203125 1.91015625 1 4 C-0.3125 5.4375 -0.3125 5.4375 -2 7 C-2.33 7.86625 -2.66 8.7325 -3 9.625 C-3.33 10.40875 -3.66 11.1925 -4 12 C-4.99 12.33 -5.98 12.66 -7 13 C-5.58832253 7.73829306 -3.25149768 4.27828642 0 0 Z " fill="#31753C" transform="translate(246,476)"/>
  <path d="M0 0 C0.33 0.66 0.66 1.32 1 2 C-0.3125 4.625 -0.3125 4.625 -2 7 C-2.66 7 -3.32 7 -4 7 C-4.33 7.99 -4.66 8.98 -5 10 C-5.99 9.67 -6.98 9.34 -8 9 C-5.94789884 4.74921902 -4.44585687 1.92653798 0 0 Z " fill="#194B2B" transform="translate(692,449)"/>
  <path d="M0 0 C4.455 1.98 4.455 1.98 9 4 C9 4.99 9 5.98 9 7 C10.32 7.66 11.64 8.32 13 9 C7.71223057 8.66951441 3.75899378 5.51647805 0 2 C0 1.34 0 0.68 0 0 Z " fill="#092D15" transform="translate(513,643)"/>
  <path d="M0 0 C1.06505018 3.19515053 1.27693153 3.99008996 0 7 C-2.5625 9.25 -2.5625 9.25 -5 11 C-4.54663921 6.12637153 -3.2910841 3.60957611 0 0 Z " fill="#184428" transform="translate(941,640)"/>
  <path d="M0 0 C1.9609375 3.7578125 1.9609375 3.7578125 2.3125 5.9375 C3.35591322 9.06773966 5.64389224 10.76169763 8 13 C8.33 13.66 8.66 14.32 9 15 C5.08774328 13.73115998 2.9050331 12.71481455 1 9 C0.46793566 6.00907524 0.18779129 3.03056291 0 0 Z " fill="#144D29" transform="translate(456,610)"/>
  <path d="M0 0 C1.9375 0.375 1.9375 0.375 4 1 C4.33 1.66 4.66 2.32 5 3 C3.35 5.31 1.7 7.62 0 10 C-0.33 8.68 -0.66 7.36 -1 6 C-0.34 6 0.32 6 1 6 C0.67 4.02 0.34 2.04 0 0 Z " fill="#184D2C" transform="translate(936,601)"/>
  <path d="M0 0 C2.3125 0.1875 2.3125 0.1875 5 1 C6.875 3.375 6.875 3.375 8 6 C7.67 6.99 7.34 7.98 7 9 C5.83037314 7.69013727 4.66437056 6.3770374 3.5 5.0625 C2.8503125 4.33160156 2.200625 3.60070312 1.53125 2.84765625 C0 1 0 1 0 0 Z " fill="#3C7B46" transform="translate(111,586)"/>
  <path d="M0 0 C2 2 2 2 2.25 5.375 C2.02515633 8.63523324 1.7239511 10.30632641 0 13 C-0.66 13 -1.32 13 -2 13 C-1.34 8.71 -0.68 4.42 0 0 Z " fill="#3F7E46" transform="translate(78,449)"/>
  <path d="M0 0 C5.35152885 0.32433508 8.28280043 3.49704824 12 7 C8.78390659 7 8.13180718 6.62557488 5.5625 4.9375 C2.79061785 3.21720403 2.79061785 3.21720403 -0.4375 3.25 C-1.2109375 3.62125 -1.2109375 3.62125 -2 4 C-1.34 2.68 -0.68 1.36 0 0 Z " fill="#0A3418" transform="translate(910,380)"/>
  <path d="M0 0 C3.15702316 3.90869534 6 7.8614939 6 13 C4.35 13.66 2.7 14.32 1 15 C1 14.34 1 13.68 1 13 C1.66 13 2.32 13 3 13 C2.48636193 9.23332085 1.73730949 6.35879836 0 3 C0 2.01 0 1.02 0 0 Z " fill="#174B2A" transform="translate(330,658)"/>
  <path d="M0 0 C5 1.66666667 10 3.33333333 15 5 C15 5.33 15 5.66 15 6 C9.72684667 5.5547115 4.98229776 4.91626837 0 3 C0 2.01 0 1.02 0 0 Z " fill="#184C2A" transform="translate(905,646)"/>
  <path d="M0 0 C1.125 1.625 1.125 1.625 2 4 C1.125 7.25 1.125 7.25 0 10 C-0.99 9.67 -1.98 9.34 -3 9 C-3.33 7.35 -3.66 5.7 -4 4 C-3.01 4.33 -2.02 4.66 -1 5 C-0.67 3.35 -0.34 1.7 0 0 Z " fill="#3E8A4A" transform="translate(230,528)"/>
  <path d="M0 0 C-2.42130331 2.42130331 -3.80111377 2.52840504 -7.125 3.125 C-8.03507812 3.29257812 -8.94515625 3.46015625 -9.8828125 3.6328125 C-10.58148438 3.75398438 -11.28015625 3.87515625 -12 4 C-12 2.68 -12 1.36 -12 0 C-7.74433453 -1.16063604 -4.3164922 -0.76173392 0 0 Z " fill="#3D8047" transform="translate(265,508)"/>
  <path d="M0 0 C0.66 0.33 1.32 0.66 2 1 C-1.96 6.94 -1.96 6.94 -6 13 C-7 10 -7 10 -6.07421875 7.7734375 C-5.61660156 6.98195313 -5.15898437 6.19046875 -4.6875 5.375 C-4.23761719 4.57835937 -3.78773438 3.78171875 -3.32421875 2.9609375 C-2 1 -2 1 0 0 Z " fill="#E8F9E9" transform="translate(245,475)"/>
  <path d="M0 0 C0.33 0 0.66 0 1 0 C1.33 5.61 1.66 11.22 2 17 C1.34 17 0.68 17 0 17 C-0.33 17.66 -0.66 18.32 -1 19 C-1.10349817 12.58311325 -0.74507544 6.37305598 0 0 Z " fill="#1A512D" transform="translate(737,418)"/>
  <path d="M0 0 C1.44203037 0.09067534 2.8801533 0.24761443 4.3125 0.4375 C7.28888154 0.82615147 9.97302279 1 13 1 C13 1.99 13 2.98 13 4 C11.41590006 3.88512252 9.83271037 3.75765492 8.25 3.625 C7.36828125 3.55539062 6.4865625 3.48578125 5.578125 3.4140625 C3.00933618 3.00149945 1.24158985 2.28839043 -1 1 C-0.67 0.67 -0.34 0.34 0 0 Z " fill="#13361E" transform="translate(211,645)"/>
  <path d="M0 0 C2.3125 1.25 2.3125 1.25 3.3125 3.25 C0.3425 2.755 0.3425 2.755 -2.6875 2.25 C-3.0175 3.57 -3.3475 4.89 -3.6875 6.25 C-4.3475 6.25 -5.0075 6.25 -5.6875 6.25 C-6.0175 4.6 -6.3475 2.95 -6.6875 1.25 C-4.03583924 -0.51777384 -3.14407099 -0.87741516 0 0 Z " fill="#1C4E2F" transform="translate(460.6875,639.75)"/>
  <path d="M0 0 C3.3 0.99 6.6 1.98 10 3 C9.67 3.66 9.34 4.32 9 5 C4.545 4.01 4.545 4.01 0 3 C0 2.01 0 1.02 0 0 Z " fill="#194025" transform="translate(800,595)"/>
  <path d="M0 0 C0 0.33 0 0.66 0 1 C-2.24743045 1.53181175 -4.49807102 2.05007126 -6.75 2.5625 C-8.62945312 2.99755859 -8.62945312 2.99755859 -10.546875 3.44140625 C-13.59473748 3.93444283 -15.17641828 4.07666879 -18 3 C-12.73493611 -0.51004259 -6.2044262 -0.15908785 0 0 Z " fill="#307039" transform="translate(188,590)"/>
  <path d="M0 0 C0.33 0 0.66 0 1 0 C1 3.96 1 7.92 1 12 C-0.65 12.33 -2.3 12.66 -4 13 C-5 12 -5 12 -5.0625 9.4375 C-5.041875 8.633125 -5.02125 7.82875 -5 7 C-2.525 8.98 -2.525 8.98 0 11 C0 7.37 0 3.74 0 0 Z " fill="#3F8C4E" transform="translate(216,480)"/>
  <path d="M0 0 C1.60294922 0.01353516 1.60294922 0.01353516 3.23828125 0.02734375 C4.04652344 0.03894531 4.85476563 0.05054688 5.6875 0.0625 C5.6875 0.3925 5.6875 0.7225 5.6875 1.0625 C3.95942682 1.40145656 2.22998026 1.73341525 0.5 2.0625 C-0.94439453 2.3409375 -0.94439453 2.3409375 -2.41796875 2.625 C-5.1059206 3.03127612 -7.60021019 3.14183572 -10.3125 3.0625 C-10.6425 2.4025 -10.9725 1.7425 -11.3125 1.0625 C-7.47525828 0.15836327 -3.93747726 -0.04326898 0 0 Z " fill="#357A3E" transform="translate(307.3125,402.9375)"/>
  <path d="M0 0 C8.03501094 -0.63019694 8.03501094 -0.63019694 12.0625 2 C12.701875 2.66 13.34125 3.32 14 4 C13.67 4.66 13.34 5.32 13 6 C12.15695312 5.55527344 12.15695312 5.55527344 11.296875 5.1015625 C8.98032695 3.99056497 6.69290908 3.16535294 4.25 2.375 C3.05117188 1.98441406 3.05117188 1.98441406 1.828125 1.5859375 C1.22484375 1.39257812 0.6215625 1.19921875 0 1 C0 0.67 0 0.34 0 0 Z " fill="#1B4328" transform="translate(682,402)"/>
  <path d="M0 0 C0.66 1.32 1.32 2.64 2 4 C0 6 -2 8 -4 10 C-4.66 10 -5.32 10 -6 10 C-4.6302836 6.00499382 -2.74277578 3.19990508 0 0 Z " fill="#367940" transform="translate(104,393)"/>
  <path d="M0 0 C0.99 0.33 1.98 0.66 3 1 C3.66 0.67 4.32 0.34 5 0 C3.4169423 4.2742558 0.49431596 6.26531794 -3 9 C-3.66 8.67 -4.32 8.34 -5 8 C-4.0409375 7.13375 -4.0409375 7.13375 -3.0625 6.25 C-1.01776132 4.01937599 -0.41794801 2.92563609 0 0 Z " fill="#0B3418" transform="translate(554,641)"/>
  <path d="M0 0 C4.6875 3.61328125 4.6875 3.61328125 6 5 C6 5.99 6 6.98 6 8 C5.01 8 4.02 8 3 8 C2.34 7.34 1.68 6.68 1 6 C0.01 6.495 0.01 6.495 -1 7 C-0.67 4.69 -0.34 2.38 0 0 Z " fill="#17512D" transform="translate(938,627)"/>
  <path d="M0 0 C11.52164009 -0.3690205 11.52164009 -0.3690205 17 2 C13.9891035 2.9101119 11.61935536 3.04537125 8.5 2.6875 C7.7471875 2.60886719 6.994375 2.53023437 6.21875 2.44921875 C3.87112836 1.97390803 2.08485219 1.16088361 0 0 Z " fill="#468A4F" transform="translate(261,592)"/>
  <path d="M0 0 C0.66 0.33 1.32 0.66 2 1 C0.74464015 4.76607955 -0.52883585 5.26441793 -4 7 C-4.99 7 -5.98 7 -7 7 C-5.66667905 3.00003714 -3.5042173 2.16217663 0 0 Z " fill="#10391D" transform="translate(896,512)"/>
  <path d="M0 0 C-0.33 1.32 -0.66 2.64 -1 4 C-4.3 3.67 -7.6 3.34 -11 3 C-7.88866897 -0.11133103 -4.26881718 0 0 0 Z " fill="#21412C" transform="translate(645,426)"/>
  <path d="M0 0 C0 3.77910478 -0.99703962 4.46106101 -3.5 7.1875 C-4.47453125 8.26064453 -4.47453125 8.26064453 -5.46875 9.35546875 C-5.9740625 9.89816406 -6.479375 10.44085938 -7 11 C-7.33 10.34 -7.66 9.68 -8 9 C-7.109375 7.08984375 -7.109375 7.08984375 -5.75 4.9375 C-5.31171875 4.22464844 -4.8734375 3.51179688 -4.421875 2.77734375 C-3 1 -3 1 0 0 Z " fill="#10361C" transform="translate(788,401)"/>
  <path d="M0 0 C3.96 0.33 7.92 0.66 12 1 C12 1.33 12 1.66 12 2 C11.14535156 2.04898437 10.29070313 2.09796875 9.41015625 2.1484375 C8.30542969 2.22320312 7.20070313 2.29796875 6.0625 2.375 C4.96035156 2.44460938 3.85820313 2.51421875 2.72265625 2.5859375 C1.37494141 2.79089844 1.37494141 2.79089844 0 3 C-0.33 3.66 -0.66 4.32 -1 5 C-2.32 4.34 -3.64 3.68 -5 3 C-3.35 2.34 -1.7 1.68 0 1 C0 0.67 0 0.34 0 0 Z " fill="#1A4E2F" transform="translate(839,368)"/>
  <path d="M0 0 C1.77516029 0.39782879 3.54509163 0.81903661 5.3125 1.25 C6.29863281 1.48203125 7.28476562 1.7140625 8.30078125 1.953125 C11.34419645 3.13349443 12.33415362 4.24822646 14 7 C8.39958947 6.57996921 4.411509 4.31423011 0 1 C0 0.67 0 0.34 0 0 Z " fill="#102F18" transform="translate(809,546)"/>
  <path d="M0 0 C0.99 0 1.98 0 3 0 C2.5206753 4.31392226 1.2542015 6.16569547 -2 9 C-2 5.58012972 -1.52745657 3.05491313 0 0 Z " fill="#184B2C" transform="translate(908,498)"/>
  <path d="M0 0 C0.66 0.66 1.32 1.32 2 2 C-0.77280706 5.08089673 -3.06326356 6.68775452 -7 8 C-5.98823563 4.59679258 -5.35156418 3.24274669 -2.375 1.1875 C-1.59125 0.795625 -0.8075 0.40375 0 0 Z " fill="#134223" transform="translate(793,395)"/>
  <path d="M0 0 C-0.33 0.99 -0.66 1.98 -1 3 C-4.3 2.34 -7.6 1.68 -11 1 C-6.8204355 -1.78637633 -4.85331323 -0.79562512 0 0 Z " fill="#173B23" transform="translate(300,663)"/>
  <path d="M0 0 C0.33 0.99 0.66 1.98 1 3 C-1.75924185 4.80411967 -2.88972103 5.0127245 -6.25 4.625 C-7.1575 4.41875 -8.065 4.2125 -9 4 C-8.67 3.01 -8.34 2.02 -8 1 C-5.36 0.67 -2.72 0.34 0 0 Z " fill="#275236" transform="translate(928,642)"/>
  <path d="M0 0 C0.99 0.33 1.98 0.66 3 1 C3.33 3.31 3.66 5.62 4 8 C3.01 8.66 2.02 9.32 1 10 C1 8.68 1 7.36 1 6 C0.69169075 3.99598989 0.36270588 1.99488234 0 0 Z " fill="#F0F6F0" transform="translate(928,632)"/>
  <path d="M0 0 C3.93673644 1.31224548 6.22719294 2.91910327 9 6 C5.7 5.01 2.4 4.02 -1 3 C-0.67 2.01 -0.34 1.02 0 0 Z " fill="#0F371B" transform="translate(299,624)"/>
  <path d="M0 0 C1.98 0.66 3.96 1.32 6 2 C6 2.33 6 2.66 6 3 C1.126739 4.5912689 -2.80790596 5.21192221 -8 5 C-5.08235 3.0549 -3.37462715 2.54723683 0 2 C0 1.34 0 0.68 0 0 Z " fill="#174A28" transform="translate(168,607)"/>
  <path d="M0 0 C-1.0725 0.598125 -2.145 1.19625 -3.25 1.8125 C-5.98958993 3.37401069 -8.53256878 5.02605503 -11 7 C-11.33 6.34 -11.66 5.68 -12 5 C-9.12020614 0.68030921 -5.11568591 -1.70522864 0 0 Z " fill="#42884D" transform="translate(146,602)"/>
  <path d="M0 0 C0.33 0.66 0.66 1.32 1 2 C1.66 2 2.32 2 3 2 C2.67 5.63 2.34 9.26 2 13 C-0.20914 9.68629 -0.22481553 8.6553979 -0.125 4.8125 C-0.10695312 3.91144531 -0.08890625 3.01039063 -0.0703125 2.08203125 C-0.04710937 1.39496094 -0.02390625 0.70789063 0 0 Z " fill="#3F8C4B" transform="translate(218,571)"/>
  <path d="M0 0 C1 2 1 2 0.3125 5.5 C-1 9 -1 9 -3.125 10.4375 C-3.74375 10.623125 -4.3625 10.80875 -5 11 C-4.34 8.69 -3.68 6.38 -3 4 C-2.34 4 -1.68 4 -1 4 C-0.67 2.68 -0.34 1.36 0 0 Z " fill="#164325" transform="translate(940,511)"/>
  <path d="M0 0 C1.41750563 0.11509661 2.83401169 0.24253658 4.25 0.375 C5.03890625 0.44460938 5.8278125 0.51421875 6.640625 0.5859375 C9 1 9 1 13 3 C9.37 3.33 5.74 3.66 2 4 C1.34 2.68 0.68 1.36 0 0 Z " fill="#0A2D15" transform="translate(909,497)"/>
  <path d="M0 0 C4.22963303 2.27749471 7.87969203 4.25563044 11 8 C11 8.66 11 9.32 11 10 C10.01 10 9.02 10 8 10 C7.79375 9.4225 7.5875 8.845 7.375 8.25 C5.51518335 5.20666366 2.95455813 3.92688574 0 2 C0 1.34 0 0.68 0 0 Z " fill="#387C41" transform="translate(174,448)"/>
  <path d="M0 0 C0.66 0.33 1.32 0.66 2 1 C1.8125 2.8125 1.8125 2.8125 1 5 C-1.4375 6.8125 -1.4375 6.8125 -4 8 C-4.66 7.67 -5.32 7.34 -6 7 C-4.02 4.69 -2.04 2.38 0 0 Z " fill="#0D3219" transform="translate(695,443)"/>
  <path d="M0 0 C4.875 4.75 4.875 4.75 6 7 C4.35 7 2.7 7 1 7 C-0.0625 4.625 -0.0625 4.625 -1 2 C-0.67 1.34 -0.34 0.68 0 0 Z " fill="#104F29" transform="translate(722,385)"/>
  <path d="M0 0 C0.66 0.33 1.32 0.66 2 1 C1.071875 1.763125 0.14375 2.52625 -0.8125 3.3125 C-2.98276101 5.11848552 -5.05568065 6.9476629 -7 9 C-7.66 8.67 -8.32 8.34 -9 8 C-3.64285714 1.21428571 -3.64285714 1.21428571 0 0 Z " fill="#1A4B2B" transform="translate(632,381)"/>
  <path d="M0 0 C0 1.65 0 3.3 0 5 C-0.721875 4.79375 -1.44375 4.5875 -2.1875 4.375 C-5.44641585 3.94047789 -7.08304504 4.58319331 -10 6 C-9.67 4.68 -9.34 3.36 -9 2 C-8.21625 1.855625 -7.4325 1.71125 -6.625 1.5625 C-4.19936192 1.04272041 -2.45184765 0 0 0 Z " fill="#17512D" transform="translate(818,378)"/>
  <path d="M0 0 C4.83256305 0.41421969 6.82679218 2.46413986 10 6 C8.02 5.34 6.04 4.68 4 4 C3.67 4.66 3.34 5.32 3 6 C2.87625 5.195625 2.7525 4.39125 2.625 3.5625 C2.315625 2.2940625 2.315625 2.2940625 2 1 C1.34 0.67 0.68 0.34 0 0 Z " fill="#377E44" transform="translate(318,356)"/>
  <path d="M0 0 C0.71027344 0.26296875 1.42054688 0.5259375 2.15234375 0.796875 C2.86519531 1.04953125 3.57804688 1.3021875 4.3125 1.5625 C6.08984375 2.546875 6.08984375 2.546875 7.08984375 5.546875 C5.63081117 5.23765616 4.17263653 4.92438701 2.71484375 4.609375 C1.90273438 4.43535156 1.090625 4.26132812 0.25390625 4.08203125 C-1.91015625 3.546875 -1.91015625 3.546875 -3.91015625 2.546875 C-3.91015625 1.886875 -3.91015625 1.226875 -3.91015625 0.546875 C-1.91015625 -0.453125 -1.91015625 -0.453125 0 0 Z " fill="#16502B" transform="translate(924.91015625,626.453125)"/>
  <path d="M0 0 C0.90105469 0.00902344 1.80210937 0.01804687 2.73046875 0.02734375 C3.41753906 0.03894531 4.10460937 0.05054688 4.8125 0.0625 C0.53876002 2.19936999 -1.95673622 3.18146237 -6.8125 3.125 C-7.81539062 3.11597656 -8.81828125 3.10695313 -9.8515625 3.09765625 C-10.62242187 3.08605469 -11.39328125 3.07445312 -12.1875 3.0625 C-7.97877702 0.88557432 -4.75266121 -0.06172287 0 0 Z " fill="#3E8E4E" transform="translate(189.1875,587.9375)"/>
  <path d="M0 0 C1 3 1 3 -0.6875 6.5625 C-2.5364566 9.88205528 -3.25660516 10.12830258 -7 12 C-4.69 8.04 -2.38 4.08 0 0 Z " fill="#E0F5E2" transform="translate(372,558)"/>
  <path d="M0 0 C0.33 0.99 0.66 1.98 1 3 C-0.43836751 2.88541307 -1.87570966 2.75790884 -3.3125 2.625 C-4.11300781 2.55539062 -4.91351562 2.48578125 -5.73828125 2.4140625 C-8 2 -8 2 -11 0 C-7.01803543 -1.05404945 -4.01804691 -0.84098656 0 0 Z " fill="#1F4A2E" transform="translate(932,501)"/>
  <path d="M0 0 C0.66 0.66 1.32 1.32 2 2 C-0.64 4.97 -3.28 7.94 -6 11 C-6.66 10.67 -7.32 10.34 -8 10 C-5.36 6.7 -2.72 3.4 0 0 Z " fill="#EBFCEC" transform="translate(360,577)"/>
  <path d="M0 0 C0.28875 0.639375 0.5775 1.27875 0.875 1.9375 C1.82823451 4.15206079 1.82823451 4.15206079 4 5 C3.34 6.32 2.68 7.64 2 9 C0.5 7.8125 0.5 7.8125 -1 6 C-1.25 3.375 -1.25 3.375 -1 1 C-0.67 0.67 -0.34 0.34 0 0 Z " fill="#3D9049" transform="translate(209,529)"/>
  <path d="M0 0 C1.875 0.5 1.875 0.5 4 2 C4.98494554 4.65177645 5.45912382 7.20547307 6 10 C3.72328514 7.83170013 1.72813851 5.63335392 0 3 C0 2.01 0 1.02 0 0 Z " fill="#40844A" transform="translate(137,462)"/>
  <path d="M0 0 C0.66 0 1.32 0 2 0 C1.67 1.98 1.34 3.96 1 6 C0.34 6 -0.32 6 -1 6 C-1.33 6.99 -1.66 7.98 -2 9 C-3 6 -3 6 -1.5625 2.8125 C-1.046875 1.884375 -0.53125 0.95625 0 0 Z " fill="#13371D" transform="translate(700,433)"/>
  <path d="M0 0 C0.66 0.33 1.32 0.66 2 1 C-0.34407102 4.51610654 -2.16854912 5.35794962 -6 7 C-6.99 7 -7.98 7 -9 7 C-7.87720538 6.01830524 -6.75168527 5.03972702 -5.625 4.0625 C-4.68527344 3.24458984 -4.68527344 3.24458984 -3.7265625 2.41015625 C-2 1 -2 1 0 0 Z " fill="#0C2A15" transform="translate(808,381)"/>
  <path d="M0 0 C-1.1875 1.5 -1.1875 1.5 -3 3 C-5.6875 3.1875 -5.6875 3.1875 -8 3 C-8.33 2.01 -8.66 1.02 -9 0 C-5.52176885 -1.15941038 -3.54104422 -0.70820884 0 0 Z " fill="#144D28" transform="translate(487,604)"/>
  <path d="M0 0 C2.12472576 -0.05386629 4.24983652 -0.09273071 6.375 -0.125 C7.55835938 -0.14820313 8.74171875 -0.17140625 9.9609375 -0.1953125 C13 0 13 0 15 2 C11.20431539 2.97798721 8.4994001 2.92653069 4.6875 2.0625 C3.80449219 1.86785156 2.92148437 1.67320312 2.01171875 1.47265625 C1.34785156 1.31667969 0.68398438 1.16070313 0 1 C0 0.67 0 0.34 0 0 Z " fill="#1F5432" transform="translate(535,597)"/>
  <path d="M0 0 C5.41538462 -0.36923077 5.41538462 -0.36923077 8.375 1.5 C8.91125 1.995 9.4475 2.49 10 3 C7.36 3.33 4.72 3.66 2 4 C1.34 2.68 0.68 1.36 0 0 Z " fill="#194B28" transform="translate(825,552)"/>
  <path d="M0 0 C1.09658936 3.28976808 0.79953138 4.71303767 0 8 C-3.875 5.25 -3.875 5.25 -5 3 C-3.35 2.67 -1.7 2.34 0 2 C0 1.34 0 0.68 0 0 Z " fill="#408B4C" transform="translate(373,550)"/>
  <path d="M0 0 C0.33 0.99 0.66 1.98 1 3 C1.66 3 2.32 3 3 3 C3 6.3 3 9.6 3 13 C0.89172945 9.83759418 0.66182535 8.49342531 0.375 4.8125 C0.30023438 3.91144531 0.22546875 3.01039063 0.1484375 2.08203125 C0.09945312 1.39496094 0.05046875 0.70789063 0 0 Z " fill="#2E6D37" transform="translate(78,515)"/>
  <path d="M0 0 C2.12508244 3.18762365 2.5020163 5.26512223 3 9 C3.66 9 4.32 9 5 9 C4.34 10.32 3.68 11.64 3 13 C2.49242138 11.58603098 1.99425075 10.16868271 1.5 8.75 C1.08234375 7.56664062 1.08234375 7.56664062 0.65625 6.359375 C0 4 0 4 0 0 Z " fill="#0B2B13" transform="translate(770,490)"/>
  <path d="M0 0 C4.62 0 9.24 0 14 0 C14 0.33 14 0.66 14 1 C13.09507812 1.09087891 13.09507812 1.09087891 12.171875 1.18359375 C10.97304688 1.30927734 10.97304688 1.30927734 9.75 1.4375 C8.96109375 1.51871094 8.1721875 1.59992188 7.359375 1.68359375 C5.17635361 1.97634993 3.1226818 2.42064419 1 3 C0.67 2.01 0.34 1.02 0 0 Z " fill="#438F4E" transform="translate(312,401)"/>
  <path d="M0 0 C0.33 1.32 0.66 2.64 1 4 C-0.65 5.32 -2.3 6.64 -4 8 C-4.66 7.67 -5.32 7.34 -6 7 C-4.02 4.69 -2.04 2.38 0 0 Z " fill="#357840" transform="translate(111,384)"/>
  <path d="M0 0 C-0.804375 0.28875 -1.60875 0.5775 -2.4375 0.875 C-5.1326468 1.73262568 -5.1326468 1.73262568 -6 4 C-7.65 4 -9.3 4 -11 4 C-7.39482939 0.00856111 -5.29679003 -1.76559668 0 0 Z " fill="#357D40" transform="translate(154,352)"/>
  <path d="M0 0 C3.95371299 0.56481614 6.71675094 1.71996593 10 4 C10.33 4.66 10.66 5.32 11 6 C7.64762596 5.44127099 4.97528893 4.64153872 2 3 C1.34 2.67 0.68 2.34 0 2 C0 1.34 0 0.68 0 0 Z " fill="#1D4B2E" transform="translate(774,644)"/>
  <path d="M0 0 C0.66 0.33 1.32 0.66 2 1 C-0.57784846 3.64752004 -2.91648098 5.94432065 -6 8 C-6.99 7.67 -7.98 7.34 -9 7 C-8.071875 6.401875 -7.14375 5.80375 -6.1875 5.1875 C-3.79745282 3.54727155 -1.91529747 2.1281083 0 0 Z " fill="#06250F" transform="translate(810,635)"/>
  <path d="M0 0 C0.99 0 1.98 0 3 0 C2.34 2.31 1.68 4.62 1 7 C0.01 7 -0.98 7 -2 7 C-1.34 4.69 -0.68 2.38 0 0 Z " fill="#183D24" transform="translate(821,632)"/>
  <path d="M0 0 C1.65 1.65 3.3 3.3 5 5 C3.02 5.99 3.02 5.99 1 7 C-0.32 5.35 -1.64 3.7 -3 2 C-2.01 1.34 -1.02 0.68 0 0 Z " fill="#154A28" transform="translate(165,624)"/>
  <path d="M0 0 C1.8871875 0.0309375 1.8871875 0.0309375 3.8125 0.0625 C3.173125 0.371875 2.53375 0.68125 1.875 1 C-0.12360821 1.8970163 -0.12360821 1.8970163 -1.1875 3.0625 C-2.85367115 3.10313832 -4.52138095 3.105221 -6.1875 3.0625 C-6.5175 2.4025 -6.8475 1.7425 -7.1875 1.0625 C-4.43671116 0.14557039 -2.82801087 -0.04636083 0 0 Z " fill="#0D2F17" transform="translate(177.1875,605.9375)"/>
  <path d="M0 0 C0.33 1.32 0.66 2.64 1 4 C-0.32 4.33 -1.64 4.66 -3 5 C-3.33 4.34 -3.66 3.68 -4 3 C-7.02934491 2.34227572 -7.02934491 2.34227572 -10 2 C-10 1.67 -10 1.34 -10 1 C-7.98177083 1.03255208 -5.96354167 1.06510417 -3.9453125 1.09765625 C-1.91814596 1.12649242 -1.91814596 1.12649242 0 0 Z " fill="#17512E" transform="translate(543,602)"/>
  <path d="M0 0 C2.97 0.33 5.94 0.66 9 1 C9 1.66 9 2.32 9 3 C6.36 3 3.72 3 1 3 C0.67 2.01 0.34 1.02 0 0 Z " fill="#0E331A" transform="translate(931,502)"/>
  <path d="M0 0 C0.66 1.32 1.32 2.64 2 4 C1.34 4 0.68 4 0 4 C0.33 5.32 0.66 6.64 1 8 C0.01 8.33 -0.98 8.66 -2 9 C-2.125 5.625 -2.125 5.625 -2 2 C-1.34 1.34 -0.68 0.68 0 0 Z " fill="#328E3F" transform="translate(199,473)"/>
  <path d="M0 0 C0.99 0.33 1.98 0.66 3 1 C3 3.97 3 6.94 3 10 C2.34 9.67 1.68 9.34 1 9 C0.5859375 6.93359375 0.5859375 6.93359375 0.375 4.4375 C0.30023438 3.61121094 0.22546875 2.78492188 0.1484375 1.93359375 C0.09945312 1.29550781 0.05046875 0.65742188 0 0 Z " fill="#3E8E4B" transform="translate(127,436)"/>
  <path d="M0 0 C2.97069541 2.54631035 4.4775751 5.42230149 6 9 C5.67 9.66 5.34 10.32 5 11 C1.19015156 8.22920113 0.93159248 4.37131855 0 0 Z " fill="#2F6E39" transform="translate(368,408)"/>
  <path d="M0 0 C1.9375 0.375 1.9375 0.375 4 1 C4.33 1.66 4.66 2.32 5 3 C4.67 3.66 4.34 4.32 4 5 C2.35 4.67 0.7 4.34 -1 4 C-0.67 2.68 -0.34 1.36 0 0 Z " fill="#174A29" transform="translate(864,619)"/>
  <path d="M0 0 C0 3.90838866 -1.50567876 5.11594107 -4 8 C-4.99 7.34 -5.98 6.68 -7 6 C-4.69 4.02 -2.38 2.04 0 0 Z " fill="#EEFBEC" transform="translate(335,605)"/>
  <path d="M0 0 C0.33 0 0.66 0 1 0 C1 1.98 1 3.96 1 6 C0.34 6 -0.32 6 -1 6 C-1.66 6.66 -2.32 7.32 -3 8 C-3 4.72224847 -2.36665159 2.36665159 0 0 Z " fill="#1F4D2D" transform="translate(641,496)"/>
  <path d="M0 0 C0 0.99 0 1.98 0 3 C-1.98 3.33 -3.96 3.66 -6 4 C-6 2.68 -6 1.36 -6 0 C-3 -1 -3 -1 0 0 Z " fill="#1C4A2D" transform="translate(653,371)"/>
  <path d="M0 0 C7.75 0.75 7.75 0.75 10 3 C7.36 3 4.72 3 2 3 C2 2.34 2 1.68 2 1 C1.34 0.67 0.68 0.34 0 0 Z " fill="#0E2F18" transform="translate(693,369)"/>
  <path d="M0 0 C0.66 0.99 1.32 1.98 2 3 C-0.31 3.66 -2.62 4.32 -5 5 C-5 4.01 -5 3.02 -5 2 C-3.35 1.34 -1.7 0.68 0 0 Z " fill="#3D864A" transform="translate(174,338)"/>
  <path d="M0 0 C-0.66 1.65 -1.32 3.3 -2 5 C-3.65 3.68 -5.3 2.36 -7 1 C-3.375 -1.125 -3.375 -1.125 0 0 Z " fill="#205131" transform="translate(340,679)"/>
  <path d="M0 0 C2.88575819 0.39803561 3.82189513 0.79009069 5.75 3.0625 C6.36875 4.0215625 6.36875 4.0215625 7 5 C5.329375 4.4740625 5.329375 4.4740625 3.625 3.9375 C0.19735524 2.62760669 0.19735524 2.62760669 -2 4 C-1.34 2.68 -0.68 1.36 0 0 Z " fill="#142A1B" transform="translate(458,637)"/>
  <path d="M0 0 C0.89130413 2.6739124 1.47731534 5.23723823 2 8 C-1.81538462 5.53846154 -1.81538462 5.53846154 -2.75 2.8125 C-2.8325 2.214375 -2.915 1.61625 -3 1 C-2.01 0.67 -1.02 0.34 0 0 Z " fill="#16522E" transform="translate(854,612)"/>
  <path d="M0 0 C4.75 0.75 4.75 0.75 7 3 C2.545 3.495 2.545 3.495 -2 4 C-1.34 2.68 -0.68 1.36 0 0 Z " fill="#41894C" transform="translate(157,594)"/>
  <path d="M0 0 C0.99 0.495 0.99 0.495 2 1 C2 1.66 2 2.32 2 3 C2.66 3 3.32 3 4 3 C4.33 5.31 4.66 7.62 5 10 C2.35534962 6.8745041 1.15585285 3.91211733 0 0 Z " fill="#2C6F36" transform="translate(87,547)"/>
  <path d="M0 0 C3.4375 0.8125 3.4375 0.8125 7 2 C7.33 2.99 7.66 3.98 8 5 C1.25 3.25 1.25 3.25 -1 1 C-0.67 0.67 -0.34 0.34 0 0 Z " fill="#164F2C" transform="translate(830,516)"/>
  <path d="M0 0 C0 3.58534593 -1.02362045 5.07495826 -3 8 C-3.33 8 -3.66 8 -4 8 C-4.25 5.6875 -4.25 5.6875 -4 3 C-2 1.1875 -2 1.1875 0 0 Z " fill="#33773B" transform="translate(253,484)"/>
  <path d="M0 0 C3.91402949 1.26941497 5.79072873 2.51167694 8 6 C7.67 6.66 7.34 7.32 7 8 C5.83035398 6.8572081 4.66435444 5.71068285 3.5 4.5625 C2.8503125 3.92441406 2.200625 3.28632813 1.53125 2.62890625 C0 1 0 1 0 0 Z " fill="#F3FEF0" transform="translate(188,458)"/>
  <path d="M0 0 C2.6875 0.3125 2.6875 0.3125 5 1 C3.68 2.32 2.36 3.64 1 5 C1 4.01 1 3.02 1 2 C-0.32 2.33 -1.64 2.66 -3 3 C-1.8125 1.4375 -1.8125 1.4375 0 0 Z " fill="#327338" transform="translate(278,446)"/>
  <path d="M0 0 C0.99 0 1.98 0 3 0 C4.75 2.375 4.75 2.375 6 5 C5.67 5.66 5.34 6.32 5 7 C2.5 5.1875 2.5 5.1875 0 3 C0 2.01 0 1.02 0 0 Z " fill="#3D8148" transform="translate(185,427)"/>
  <path d="M0 0 C0.66 0.33 1.32 0.66 2 1 C2.625 3.0625 2.625 3.0625 3 5 C2.01 5.33 1.02 5.66 0 6 C-0.66 5.34 -1.32 4.68 -2 4 C-2 3.01 -2 2.02 -2 1 C-1.34 0.67 -0.68 0.34 0 0 Z " fill="#174928" transform="translate(893,409)"/>
  <path d="M0 0 C1.98 1.65 3.96 3.3 6 5 C5.67 5.99 5.34 6.98 5 8 C4.34 8 3.68 8 3 8 C0 2.25 0 2.25 0 0 Z " fill="#184A29" transform="translate(933,402)"/>
  <path d="M0 0 C0.66 0.33 1.32 0.66 2 1 C1.67 2.32 1.34 3.64 1 5 C-1.97 4.505 -1.97 4.505 -5 4 C-3.36587557 2.29159719 -2.13093906 1.06546953 0 0 Z " fill="#32783D" transform="translate(165,342)"/>
  <path d="M0 0 C1.85776765 3.13498292 2.20140476 5.37471432 2 9 C1.67 8.34 1.34 7.68 1 7 C0.34 7 -0.32 7 -1 7 C-1.33 5.68 -1.66 4.36 -2 3 C-1.34 3 -0.68 3 0 3 C0 2.01 0 1.02 0 0 Z " fill="#173921" transform="translate(337,671)"/>
  <path d="M0 0 C1.485 0.99 1.485 0.99 3 2 C3 2.66 3 3.32 3 4 C3.66 4 4.32 4 5 4 C5 4.66 5 5.32 5 6 C2.525 5.01 2.525 5.01 0 4 C0 2.68 0 1.36 0 0 Z " fill="#113D21" transform="translate(871,640)"/>
  <path d="M0 0 C6.75 0.75 6.75 0.75 9 3 C6.36 3 3.72 3 1 3 C0.67 2.01 0.34 1.02 0 0 Z " fill="#1C452A" transform="translate(192,639)"/>
  <path d="M0 0 C0.33 0 0.66 0 1 0 C1 2.97 1 5.94 1 9 C0.01 8.01 -0.98 7.02 -2 6 C-1.7181953 3.67511119 -1.04553582 2.09107165 0 0 Z " fill="#3F8D4E" transform="translate(237,570)"/>
  <path d="M0 0 C-3.25 1.625 -3.25 1.625 -7 3 C-9.4375 2.1875 -9.4375 2.1875 -11 1 C-3.375 -1.125 -3.375 -1.125 0 0 Z " fill="#10341B" transform="translate(905,551)"/>
  <path d="M0 0 C0.99 0.66 1.98 1.32 3 2 C0.1875 3.5625 0.1875 3.5625 -3 5 C-3.99 4.67 -4.98 4.34 -6 4 C-4.02 2.68 -2.04 1.36 0 0 Z " fill="#154C2A" transform="translate(905,546)"/>
  <path d="M0 0 C0.33 1.32 0.66 2.64 1 4 C-3.75 5.125 -3.75 5.125 -6 4 C-4.03617993 2.49440461 -2.21736634 1.10868317 0 0 Z " fill="#1F492E" transform="translate(903,507)"/>
  <path d="M0 0 C0.66 0 1.32 0 2 0 C2.33 1.32 2.66 2.64 3 4 C0.525 5.485 0.525 5.485 -2 7 C-1.125 2.25 -1.125 2.25 0 0 Z " fill="#114E2A" transform="translate(695,488)"/>
  <path d="M0 0 C0.62109375 1.796875 0.62109375 1.796875 1 4 C-0.9375 7.25 -0.9375 7.25 -3 10 C-3.33 9.34 -3.66 8.68 -4 8 C-3.22265625 6.0546875 -3.22265625 6.0546875 -2.0625 3.875 C-1.49208984 2.78832031 -1.49208984 2.78832031 -0.91015625 1.6796875 C-0.60980469 1.12539063 -0.30945313 0.57109375 0 0 Z " fill="#EAFCEE" transform="translate(244,443)"/>
  <path d="M0 0 C0.99 0.33 1.98 0.66 3 1 C3.90837763 3.47739354 4 5.33579484 4 8 C2 6.25 2 6.25 0 4 C0 2.68 0 1.36 0 0 Z " fill="#397942" transform="translate(170,446)"/>
  <path d="M0 0 C0.93423645 3.01031744 1.04449911 3.86650268 0 7 C-0.99 6.67 -1.98 6.34 -3 6 C-2.625 3.5625 -2.625 3.5625 -2 1 C-1.34 0.67 -0.68 0.34 0 0 Z " fill="#42874D" transform="translate(84,434)"/>
</svg>
